<svg width="1440" height="300" viewBox="0 0 1440 300" fill="none" xmlns="http://www.w3.org/2000/svg">
<path fill-rule="evenodd" clip-rule="evenodd" d="M1440 207.593V299.933C1439.24 299.955 1438.48 300 1437.72 300H2.27999C1.77728 300 1.27457 299.98 0.769666 299.96C0.513769 299.95 0.257309 299.94 0 299.933V180.237C0.645935 180.091 1.28626 179.916 1.9265 179.741C3.62792 179.276 5.32872 178.811 7.13246 178.903C7.19246 178.903 7.25996 178.873 7.30496 178.828C8.28853 178.025 9.47558 177.93 10.6622 177.835C11.81 177.743 12.9574 177.651 13.9199 176.918C17.919 177.09 21.888 176.721 25.855 176.352C28.4573 176.11 31.0588 175.869 33.6673 175.779C39.6223 175.577 45.5923 175.592 51.5472 175.772C55.5147 175.892 59.0397 174.866 62.5497 172.821C61.7434 171.948 61.7389 170.928 61.7346 169.911C61.7341 169.802 61.7336 169.693 61.7322 169.585C61.7208 168.873 61.6908 168.16 61.6608 167.448C61.5918 165.811 61.5229 164.176 61.6797 162.558C61.9123 160.179 61.4916 157.883 61.0716 155.591C60.7603 153.893 60.4494 152.196 60.4047 150.468C60.4047 150.183 60.2772 149.824 60.0747 149.636C59.0623 148.72 58.7148 147.337 58.4346 146.222L58.4097 146.123C58.2307 145.408 58.164 144.666 58.0972 143.923C57.9569 142.362 57.816 140.794 56.6322 139.449C54.7709 138.435 52.724 137.695 50.6281 136.936C49.3798 136.485 48.114 136.027 46.8598 135.501C46.8598 128.864 46.8598 122.16 46.8748 115.456C46.8748 115.42 46.8743 115.384 46.8738 115.346C46.8689 114.954 46.8627 114.462 47.3623 114.332C47.9212 114.184 48.4275 113.918 48.9364 113.652C49.7864 113.206 50.6435 112.757 51.7647 112.842C53.8947 112.999 54.6822 111.958 54.6822 109.83C54.6822 109.44 54.6987 109.048 54.7152 108.657C54.7496 107.839 54.7839 107.023 54.6672 106.227C54.1272 102.549 55.4547 99.2606 57.3372 96.4141C59.1447 93.665 60.9897 90.9009 62.9847 88.2716C64.0572 86.8633 65.3997 85.1929 66.9521 84.7284C67.4391 84.5823 67.9258 84.4134 68.4159 84.2432C70.0622 83.6715 71.7489 83.0858 73.6271 83.3052C75.5621 83.5299 76.4171 82.4362 76.4846 80.4961C76.4948 80.1529 76.4794 79.789 76.4639 79.4228C76.4224 78.4463 76.3803 77.4528 76.8221 76.7882C77.0736 76.4085 77.3139 76.0187 77.5552 75.6273C78.2422 74.513 78.9371 73.3859 79.9196 72.4435C81.2621 71.1625 86.467 69.8966 87.787 71.1625C88.3312 71.6863 89.0378 71.7552 89.7308 71.8228C90.6138 71.9089 91.4747 71.9929 91.9495 73.0128C92.0245 73.1701 93.1645 73.1476 93.3445 72.8929C93.6304 72.4714 93.9925 72.0992 94.3554 71.7262C95.192 70.8664 96.033 70.0021 95.9545 68.5183C95.887 67.2074 96.8845 66.1062 97.762 65.2073C99.172 63.7691 100.882 62.7353 103.042 62.8028C103.402 62.8103 103.679 62.7653 103.957 62.3533C105.494 60.0686 107.497 58.1809 109.619 56.4805C109.736 56.3877 109.852 56.2937 109.969 56.1992C111.29 55.135 112.689 54.0078 114.404 53.7463C115.485 53.5782 116.595 53.5935 117.706 53.6089C118.377 53.6182 119.048 53.6275 119.714 53.5965C121.272 53.5191 122.147 54.3872 123.155 55.387C123.22 55.4514 123.286 55.5163 123.352 55.5816C123.886 56.112 124.266 56.7405 124.647 57.3701C125.159 58.2165 125.672 59.0648 126.562 59.6791C127.568 60.3714 128.179 61.6912 128.715 62.8469C128.77 62.9666 128.825 63.0845 128.879 63.1998C129.689 64.9302 128.737 66.3085 126.524 66.5632C127.829 67.6868 129.059 68.366 130.214 68.6007C130.649 68.6906 130.957 68.8703 131.309 69.1924C132.254 70.0539 135.029 69.7093 136.012 68.9153C136.754 68.3078 137.23 67.5292 137.7 66.761C137.966 66.3262 138.23 65.8947 138.539 65.4995C139.994 63.6417 141.644 61.8514 143.654 60.4357C144.667 59.7165 145.829 58.7203 144.067 57.0798C142.784 55.8887 141.907 54.0235 141.614 52.2032C141.277 50.1133 139.897 48.9148 138.307 48.1732C137.077 47.6039 136.994 46.8847 136.964 45.881C136.927 44.8397 136.964 43.9334 138.187 43.409C138.913 43.0968 139.532 42.6175 140.159 42.1333C140.884 41.572 141.619 41.0041 142.537 40.6823C143.095 40.4872 143.629 40.2184 144.164 39.9489C145.086 39.484 146.013 39.0168 147.082 38.922C148.153 38.8259 149.158 39.1236 150.144 39.4161C150.774 39.6026 151.396 39.7871 152.024 39.8658C154.912 40.2329 156.494 41.9258 157.417 44.1955C157.766 45.0566 158.269 45.8049 158.772 46.5549C159.307 47.3513 159.844 48.1496 160.199 49.087L160.262 49.2532C160.886 50.8894 161.257 51.8624 159.907 53.3194L159.962 53.3868C160.876 54.5063 161.849 55.6984 163.319 55.9187C164.303 56.065 165.217 56.4075 166.132 56.7506C166.857 57.022 167.582 57.2939 168.344 57.4693C168.606 57.5291 168.89 57.5814 169.182 57.6354C170.134 57.8112 171.176 58.0038 171.877 58.5255C172.516 59.0008 173.196 59.4073 173.877 59.814C174.783 60.3559 175.69 60.8982 176.504 61.6042C177.903 62.8213 179.339 64.0015 180.774 65.1808C181.485 65.7652 182.196 66.3494 182.902 66.9377C184.377 68.1634 185.685 69.5408 186.991 70.9155C187.736 71.7 188.48 72.4836 189.254 73.2375C189.505 73.4818 189.768 73.7237 190.035 73.9688C191.315 75.1442 192.677 76.3951 193.161 78.3537C193.349 79.1103 193.784 80.0841 194.181 80.9081C194.769 82.1367 195.646 83.163 196.528 84.1943C197.458 85.2821 198.392 86.3753 198.996 87.7173C199.574 89.0057 200.069 93.5751 199.409 94.7662C197.849 97.5752 198.201 100.729 198.936 103.515C199.386 105.246 200.024 107.178 200.991 108.811C201.334 109.385 201.513 110.036 201.686 110.66C201.865 111.308 202.035 111.927 202.371 112.4C203.358 113.785 203.648 115.403 203.912 116.879C203.965 117.176 204.018 117.466 204.074 117.748C204.223 118.496 204.506 119.215 204.79 119.934C205.294 121.211 205.798 122.488 205.544 123.92C205.521 124.033 205.566 124.235 205.649 124.273C206.935 124.926 207.111 126.233 207.266 127.388C207.321 127.796 207.373 128.185 207.471 128.52C208.013 130.365 207.904 132.399 207.795 134.45C207.749 135.296 207.704 136.145 207.704 136.984C207.557 136.996 207.426 137.008 207.306 137.019C207.032 137.044 206.815 137.065 206.601 137.059C205.722 137.046 204.841 137.017 203.96 136.988C201.985 136.923 200.009 136.858 198.044 136.962C196.664 137.034 195.371 136.672 194.078 136.31C192.686 135.92 191.295 135.53 189.794 135.681C188.866 135.774 187.915 135.216 187.056 134.713C186.805 134.566 186.562 134.423 186.329 134.303C186.08 134.172 185.795 134.075 185.502 133.976C184.921 133.778 184.308 133.57 183.884 133.067C182.863 131.851 181.491 131.16 180.117 130.467C179.28 130.045 178.442 129.623 177.682 129.082C177.344 128.842 176.437 128.79 175.769 129.666C175.459 130.077 175.256 130.524 175.062 130.954C174.881 131.355 174.706 131.742 174.457 132.07C172.919 134.086 172.439 136.265 172.319 138.737C172.229 140.577 172.256 142.415 172.283 144.253C172.337 147.918 172.391 151.586 171.517 155.277C170.977 157.556 171.076 159.983 171.175 162.416C171.228 163.702 171.281 164.99 171.239 166.259C171.212 167.011 171.644 167.415 172.075 167.816C172.368 168.09 172.661 168.363 172.807 168.746C172.889 168.963 174.179 169.038 174.344 168.626C174.782 167.535 175.527 167.602 176.273 167.669C176.537 167.693 176.801 167.717 177.052 167.689C178.931 167.479 180.765 167.828 182.59 168.175C184.079 168.457 185.561 168.739 187.057 168.716C189.423 168.676 191.796 168.755 194.168 168.835C199.846 169.024 205.526 169.214 211.139 167.772C211.408 167.703 211.686 167.688 211.965 167.673C212.656 167.635 213.346 167.598 213.891 166.738C214.124 166.371 215.031 165.435 216.029 165.502C217.517 165.601 218.668 164.864 219.823 164.125C220.601 163.627 221.382 163.127 222.269 162.88C222.546 162.805 223.656 162.056 223.761 160.918C224.111 157.279 223.467 153.765 222.821 150.245L222.821 150.243C222.692 149.54 222.563 148.836 222.441 148.131C222.419 148.011 222.381 147.884 222.329 147.771C221.301 145.569 220.469 143.299 220.356 140.857C220.221 137.928 218.819 135.629 217.094 133.404C216.948 133.215 216.794 133.022 216.638 132.826C215.795 131.773 214.882 130.631 214.806 129.494C214.729 128.316 214.417 127.197 214.104 126.078C213.687 124.585 213.27 123.092 213.411 121.456C213.619 119.102 213.55 116.727 213.48 114.351C213.449 113.3 213.418 112.25 213.411 111.201C213.404 109.561 212.504 108.399 211.409 107.313C210.074 105.98 208.499 105.133 206.609 104.991C205.791 104.931 205.454 104.497 205.514 103.778C205.658 101.904 205.622 100.035 205.586 98.1626C205.525 94.9582 205.464 91.7436 206.301 88.4813C207.246 84.7959 208.109 80.9156 208.034 76.908C207.99 74.4179 206.918 72.4918 205.841 70.5562C205.46 69.8716 205.078 69.1857 204.741 68.4733C204.411 67.7767 204.104 63.4844 204.621 62.99C205.418 62.2273 206.237 61.4858 207.055 60.7443C207.523 60.3207 207.99 59.897 208.454 59.4693C210.599 57.5067 212.346 55.3719 212.346 52.2032C212.346 50.4878 211.336 49.3858 210.348 48.3077C209.99 47.917 209.635 47.5294 209.331 47.117C208.98 46.6407 208.609 46.1789 208.24 45.7186C206.924 44.0789 205.623 42.4578 205.236 40.2703C202.559 39.6935 201.284 38.1429 202.131 36.068C202.702 34.6691 203.563 33.381 204.418 32.0993C204.63 31.7819 204.842 31.4648 205.049 31.1465C205.484 30.4723 206.091 30.0004 206.841 29.5435C207.197 29.3246 207.539 29.0857 207.88 28.8481C209.055 28.0284 210.207 27.2241 211.806 27.3112C211.888 27.3112 211.979 27.2478 212.064 27.1879C212.089 27.1707 212.113 27.1539 212.136 27.1389C214.454 25.8205 218.451 26.3599 220.251 28.1427C220.658 28.549 221.111 28.9156 221.564 29.2816C222.204 29.7996 222.843 30.3166 223.349 30.9443C223.774 31.4763 224.282 31.935 224.8 32.402C225.695 33.2107 226.618 34.0443 227.189 35.3264C225.654 35.0239 225.176 35.9158 224.701 36.8032C224.47 37.2343 224.239 37.6642 223.889 37.9557C223.536 38.2478 223.514 39.3415 224.324 40.1954C225.204 41.1179 226.236 41.8146 227.268 42.5118C228.181 43.1279 229.094 43.7445 229.904 44.5176C231.899 46.4278 234.441 47.484 237.149 46.8922C238.432 44.532 238.496 42.1292 238.561 39.6908L238.566 39.4838C238.597 38.4261 238.572 37.3615 238.547 36.2953C238.468 32.9442 238.388 29.5782 240.044 26.3674C241.004 26.1576 242.046 26.0602 243.231 26.5621V28.7869C243.229 30.4504 243.23 32.1135 243.23 33.7763C243.232 38.7625 243.233 43.7466 243.171 48.735C243.149 50.2182 244.049 51.0422 245.076 51.3193C246.29 51.6477 247.273 52.3465 248.246 53.0385C248.782 53.42 249.316 53.7993 249.884 54.1134C252.501 55.5591 254.894 56.5254 257.496 55.8887C258.372 53.4902 259.839 51.4939 261.289 49.5212C263.09 47.0702 264.864 44.6557 265.446 41.5513C264.905 41.4192 264.844 40.9232 264.777 40.3754C264.722 39.929 264.663 39.4482 264.336 39.1018C264.233 38.9916 264.127 38.8826 264.022 38.7734C263.201 37.925 262.376 37.0722 262.476 35.6785C262.525 35.0327 261.993 34.7088 261.462 34.3845C261.42 34.3589 261.378 34.3334 261.336 34.3076C259.941 33.4612 258.426 33.1016 256.521 33.1765C256.798 32.6146 256.829 32.1024 256.86 31.6036C256.901 30.9254 256.941 30.2717 257.594 29.551C258.576 28.4573 259.656 26.9816 260.181 25.4385C260.549 24.3523 261.254 23.5957 262.056 23.0264C264.839 21.0414 268.026 20.135 271.386 20.7942C272.691 21.0489 274.094 21.5582 275.256 22.5995C275.731 23.026 276.339 23.4373 276.929 23.8361C277.168 23.9977 277.403 24.1572 277.626 24.3149C278.118 24.6594 278.672 24.8563 279.217 25.0494C280.01 25.3308 280.781 25.6042 281.301 26.3149C282.409 25.6973 283.042 24.7721 283.654 23.8794C283.717 23.7869 283.78 23.6947 283.844 23.6032C284.343 22.8795 284.6 21.9907 284.846 21.1401C284.944 20.8023 285.04 20.4705 285.148 20.1575C285.319 19.6613 285.557 19.1871 285.798 18.7077C286.245 17.8192 286.7 16.9124 286.753 15.8128C286.806 14.779 287.796 13.146 289.783 14.1498C290.081 15.8724 289.614 17.4342 289.096 19.173L289.041 19.3559L288.991 19.5237C288.151 22.3171 287.291 25.1806 286.798 28.0153C286.628 29.001 286.367 29.9755 286.105 30.953C285.54 33.0656 284.97 35.1921 285.298 37.4763C285.501 38.8546 286.371 39.6186 287.211 39.9033C288.573 40.3724 289.63 41.2295 290.68 42.081C291.139 42.4533 291.597 42.8245 292.078 43.1618C292.577 43.5112 293.067 43.9033 293.557 44.296L293.558 44.2965C294.824 45.3098 296.095 46.3278 297.538 46.6301C298.263 46.7821 298.961 47.0636 299.659 47.3453C300.957 47.8685 302.256 48.3927 303.733 48.0908C303.966 48.0458 304.303 48.0758 304.461 48.2181C305.348 49.0224 306.445 49.2947 307.547 49.5684C308.262 49.7459 308.979 49.924 309.643 50.2481C311.428 51.1171 312.021 52.9898 310.986 54.7726C310.835 55.0314 310.663 55.2917 310.488 55.5562C309.877 56.4784 309.232 57.452 309.366 58.5929C309.561 60.2184 308.601 61.7091 307.918 62.5331C307.721 62.7727 307.525 63.0166 307.327 63.2621C306.072 64.8207 304.762 66.4461 302.916 67.4621C301.558 68.2111 300.853 70.6756 301.521 71.8592C302.256 73.1776 303.561 78.3238 303.636 79.6122C303.683 80.4038 303.407 81.1039 303.137 81.7865C302.937 82.2924 302.741 82.7886 302.683 83.3052C302.353 86.2566 302.143 89.2829 302.646 92.2043C302.69 92.4627 302.739 92.711 302.786 92.9534C303.026 94.1792 303.236 95.2552 302.766 96.7437C301.806 99.7625 300.606 102.579 299.181 105.396C298.003 107.71 296.623 108.954 293.991 108.549C293.787 108.516 293.574 108.529 293.36 108.542C293.189 108.552 293.018 108.563 292.851 108.549C291.328 108.429 290.181 109.635 290.196 110.587C290.219 111.96 289.867 113.248 289.516 114.53C289.182 115.751 288.85 116.966 288.846 118.242C288.844 119.192 288.842 120.141 288.839 121.091C288.832 123.939 288.825 126.788 288.831 129.636C288.831 129.819 288.816 130.021 288.802 130.226C288.761 130.802 288.717 131.403 288.988 131.673C290.023 132.699 290.085 133.954 290.148 135.236C290.199 136.277 290.251 137.336 290.826 138.303C291.456 139.367 291.548 140.736 291.643 142.144C291.702 143.017 291.762 143.905 291.951 144.745C292.162 145.673 292.358 146.602 292.555 147.53L292.555 147.531C293.062 149.932 293.568 152.332 294.336 154.708C294.694 155.826 294.988 156.965 295.283 158.108L295.283 158.109C295.686 159.669 296.09 161.234 296.661 162.76C297.606 165.277 298.918 166.543 301.581 166.566C302.816 166.577 304.053 166.562 305.289 166.548C307.415 166.524 309.541 166.499 311.661 166.603C314.128 166.723 315.898 165.697 317.143 163.817C317.601 163.127 318.028 163.023 318.621 163.023C321.096 163.008 323.293 163.352 324.426 166.131C324.688 166.768 325.881 167.502 327.163 167.614C328.459 167.728 329.678 167.454 330.897 167.181C331.935 166.949 332.972 166.716 334.056 166.723C339.136 166.756 344.216 166.695 349.297 166.633C351.064 166.612 352.831 166.591 354.598 166.573C354.681 166.573 354.769 166.575 354.861 166.578C355.316 166.588 355.838 166.601 356.038 166.364C357.264 164.943 358.834 164.007 360.4 163.073C361.518 162.407 362.634 161.742 363.621 160.903C365.886 158.978 367.723 156.723 367.566 153.539C367.533 152.896 367.558 152.252 367.583 151.606C367.65 149.853 367.717 148.095 366.643 146.348C366.513 146.136 366.344 145.918 366.166 145.689C365.595 144.952 364.936 144.102 365.211 143C364.806 142.942 364.589 142.616 364.371 142.289C364.105 141.889 363.838 141.486 363.223 141.569C362.691 143.951 361.738 144.865 359.556 144.872C354.486 144.895 349.408 144.917 344.338 144.835C341.406 144.782 340.191 143.412 340.168 140.513C340.159 139.193 340.151 137.873 340.142 136.553C340.112 131.603 340.081 126.653 339.981 121.703C339.943 119.868 339.433 117.898 337.903 116.879C334.836 114.842 334.431 111.958 334.483 108.722C334.519 106.696 334.478 104.671 334.438 102.645C334.427 102.139 334.417 101.632 334.408 101.126C334.407 101.055 334.407 100.985 334.407 100.913C334.407 100.424 334.408 99.9235 334.093 99.4854C333.636 98.8337 332.301 93.9571 332.196 93.283C332.107 92.6885 332.437 92.2533 332.746 91.8468C333.01 91.5003 333.257 91.1745 333.216 90.7885C333.11 89.7832 333.508 88.9116 333.904 88.0449C334.325 87.1228 334.744 86.2062 334.551 85.1404C334.521 84.9831 334.603 84.7135 334.723 84.6236C335.826 83.8481 336.027 82.6143 336.216 81.4567C336.291 80.993 336.365 80.5415 336.493 80.1366C337.221 77.8069 338.166 75.4323 339.336 73.5221C341.203 70.4734 344.338 68.3235 347.998 67.11C348.086 66.4676 348.289 65.8007 348.487 65.1494C348.727 64.3578 348.961 63.5891 348.973 62.9151C349.002 61.2904 349.364 59.7337 349.726 58.1835C350.122 56.4817 350.517 54.7876 350.466 53.0197L350.46 52.8526C350.422 51.7064 350.383 50.5329 351.306 49.6114C350.521 49.114 349.714 49.151 348.932 49.1869C348.301 49.2158 347.686 49.244 347.113 48.9897C346.933 47.9559 346.888 47.1619 347.916 46.3829C349.821 44.9371 349.708 42.6824 349.056 40.7797C348.954 40.4781 348.811 40.1853 348.669 39.8936C348.322 39.1784 347.977 38.4701 348.238 37.656C348.889 35.6463 348.547 33.6887 348.203 31.7163L348.201 31.7008C348.166 31.4984 348.166 31.2895 348.166 31.0811C348.166 30.4797 348.166 29.8819 347.331 29.4536C346.918 29.2438 346.783 28.255 347.653 27.3412C349.298 25.616 351.374 24.8916 353.446 24.1686C354.379 23.843 355.311 23.5177 356.203 23.1014C356.863 22.7942 357.928 22.6819 358.588 23.6557C358.776 23.9328 359.383 24.0302 359.796 24.0302C361.678 24.0302 363.028 25.2279 364.253 26.3158C364.517 26.5496 364.775 26.7784 365.031 26.9891C367.611 29.1165 368.653 32.4949 368.548 35.7983C368.495 37.3973 368.86 38.8896 369.223 40.3733C369.526 41.6143 369.828 42.8493 369.883 44.1356C369.892 44.305 370.008 44.4185 370.112 44.5204C370.178 44.5853 370.239 44.6454 370.266 44.7124C370.827 46.054 371.974 46.7835 373.101 47.5C373.164 47.5396 373.226 47.5792 373.288 47.6188C373.748 47.9136 374.207 48.2167 374.665 48.5202C376.247 49.5665 377.836 50.6177 379.551 51.3493C380.215 51.6318 380.898 51.8671 381.579 52.1021C383.372 52.7208 385.158 53.3367 386.593 54.8026C388.52 56.7726 390.395 58.7952 391.318 61.387C391.955 63.1698 390.59 64.5107 389.293 65.7467C390.035 67.0385 391.305 67.5133 392.551 67.9795C392.967 68.1351 393.38 68.2897 393.77 68.4733C395.308 69.1924 396.845 69.9116 397.94 71.1775C398.585 71.9191 398.45 72.833 397.16 73.0802C396.908 73.1269 396.648 73.1206 396.386 73.1141C395.892 73.102 395.391 73.0897 394.925 73.4323C394.923 73.5398 394.917 73.6479 394.91 73.7563C394.882 74.2597 394.852 74.7723 395.173 75.29C395.499 75.332 395.836 75.3437 396.174 75.3555C397.283 75.3941 398.399 75.433 399.14 76.541C400.434 78.4793 401.385 77.5309 402.297 76.622C402.506 76.4139 402.712 76.2079 402.92 76.0391C403.001 75.9734 403.064 75.888 403.127 75.8019C403.259 75.6226 403.394 75.44 403.693 75.4248C405.403 75.3349 406.588 74.3461 407.75 73.2C409.625 71.3498 411.845 70.3311 414.568 70.7655C416.06 71.0052 416.975 70.1588 417.913 69.14C418.434 68.5712 418.852 67.9113 419.261 67.2636C419.683 66.5978 420.096 65.9449 420.605 65.4171C421.977 63.9954 422.377 62.301 422.776 60.6116L422.776 60.6108C422.958 59.8436 423.139 59.0774 423.41 58.3382C423.512 58.0601 423.505 57.7557 423.498 57.4487C423.485 56.8294 423.47 56.1996 424.348 55.7539C424.918 55.4618 424.595 54.4205 423.86 53.8812C421.748 52.32 420.389 50.1482 419.028 47.9727L419.017 47.9562C418.952 47.8512 418.886 47.7462 418.82 47.6413L418.809 47.6239L418.798 47.6064L418.732 47.5007C418.292 46.8014 417.81 46.0357 416.96 45.7761C415.378 45.2967 414.23 44.3603 413.728 43.4464C413.916 41.694 414.748 40.5173 415.55 39.3848C415.965 38.7988 416.371 38.2246 416.675 37.5886C416.831 37.2612 416.973 36.9116 417.115 36.5622C417.426 35.8002 417.736 35.0388 418.183 34.5099C419.825 32.5698 422.375 31.7757 424.723 31.1016C428.375 30.0454 431.503 31.8806 434.54 33.7084C435.163 34.0847 435.701 34.5607 436.241 35.039C437.066 35.7697 437.896 36.5056 439.048 36.8995C440.72 37.4763 440.803 38.8021 439.378 39.8284C436.818 41.6663 436.533 44.3269 436.245 47.0043C436.215 47.2842 436.185 47.5642 436.153 47.8436C436.078 48.4585 436.406 48.9367 436.735 49.4159C437.103 49.9523 437.472 50.4899 437.278 51.2219C437.746 51.3656 438.207 51.4428 438.661 51.5186C439.508 51.6601 440.326 51.7969 441.103 52.3531C442.28 53.192 445.025 51.177 445.085 49.6489C445.185 46.9306 445.182 44.2079 445.18 41.4852C445.176 35.5793 445.171 29.6733 446.203 23.813C446.319 23.1523 446.303 22.4747 446.287 21.7945C446.262 20.7242 446.237 19.6478 446.728 18.6218C447.492 18.983 448.24 19.3346 448.98 19.6831C449.975 20.1513 450.958 20.6139 451.955 21.0863V23.4235L451.956 23.7346C452.001 33.6385 452.046 43.5352 452.083 53.4392C452.083 54.7426 452.645 55.7389 453.868 56.0685C455.405 56.4805 456.118 55.0273 456.38 54.0984C456.943 52.1017 457.687 50.1984 458.436 48.2803C458.536 48.0252 458.636 47.7699 458.735 47.514C459.838 44.6749 461.84 43.0869 464.645 41.8884C464.391 41.1202 464.144 40.3385 463.897 39.5577L463.895 39.5521C463.625 38.6977 463.356 37.8446 463.078 37.0118C462.899 36.4793 462.702 35.9498 462.505 35.4205C461.88 33.746 461.257 32.0738 461.24 30.315C461.234 29.7761 461.209 29.2372 461.183 28.698C461.081 26.5387 460.979 24.3738 462.125 22.18C463.34 19.8578 465.763 17.2885 468.403 17.2585C470.105 17.236 471.658 17.5132 473.353 18.1499C475.35 18.9039 476.501 20.3289 477.653 21.7547C477.828 21.9721 478.004 22.1896 478.182 22.4047C479.67 24.1982 479.554 26.432 479.441 28.6115L479.441 28.6141C479.425 28.928 479.409 29.2408 479.397 29.551C479.396 29.5862 479.395 29.6213 479.394 29.656C479.375 30.1893 479.359 30.6622 478.767 31.1615C477.732 32.0379 478.22 34.6073 479.263 35.5211C479.933 36.1103 480.739 36.5173 481.524 36.9142C482.267 37.2894 482.992 37.6556 483.567 38.1579C484.885 39.312 486.428 39.9335 487.968 40.5536C489.136 41.0242 490.303 41.4941 491.367 42.1955C491.843 42.509 492.34 42.7636 492.836 43.0174C493.952 43.5884 495.059 44.1553 495.89 45.3791C496.199 45.8324 496.263 46.305 496.324 46.7519C496.388 47.2281 496.449 47.6751 496.797 48.0383C497.755 49.0393 498.044 50.3483 498.322 51.6075C498.415 52.0257 498.506 52.4384 498.62 52.8325C498.781 53.3861 499.041 53.9169 499.302 54.449C499.818 55.5008 500.336 56.5578 500.097 57.8064C500.914 58.0339 500.997 58.6499 501.081 59.2754C501.143 59.7417 501.207 60.2132 501.575 60.533C502.737 61.5443 503.555 62.7353 503.427 64.4208C503.421 64.5102 503.412 64.6013 503.403 64.6937C503.347 65.252 503.286 65.8553 503.795 66.3759C504.845 67.4546 505.422 69.1775 505.482 70.2861C505.596 72.4402 506.684 74.0288 507.766 75.6097C508.396 76.5302 509.024 77.4481 509.457 78.4736C509.649 78.9255 509.86 79.3663 510.071 79.8051C510.726 81.1701 511.372 82.5156 511.377 84.1142C511.38 84.9499 511.393 85.7856 511.406 86.6214L511.406 86.6267C511.424 87.8791 511.443 89.1316 511.43 90.384C511.421 91.4032 511.856 92.2563 512.292 93.1115C512.562 93.639 512.831 94.1674 512.997 94.7362C513.179 95.3696 513.497 95.9686 513.814 96.5653C514.19 97.2741 514.565 97.9798 514.707 98.7363C514.945 99.9822 514.892 101.288 514.839 102.589C514.822 103.009 514.805 103.428 514.797 103.845C514.797 103.884 514.798 103.924 514.799 103.964L514.799 103.981C514.805 104.327 514.811 104.678 514.46 105.036C513.275 106.242 512.352 107.605 512.45 109.441C512.454 109.527 512.46 109.614 512.466 109.702C512.508 110.354 512.552 111.042 512.142 111.695C510.409 112.04 508.666 111.94 506.85 111.835C506.458 111.812 506.062 111.789 505.662 111.77C505.646 111.382 505.631 110.995 505.617 110.61C505.5 107.566 505.387 104.624 504.747 101.658C504.463 100.325 504.416 98.9504 504.369 97.5609C504.285 95.0986 504.199 92.591 502.79 90.1967C502.542 90.1368 501.942 90.2342 501.207 90.4964C501.717 94.6912 498.77 96.077 495.59 97.298C495.538 97.4588 495.497 97.6293 495.456 97.8012C495.366 98.174 495.275 98.5537 495.065 98.8561C493.82 100.669 492.972 102.572 493.115 104.849C493.189 105.983 493.154 107.129 493.119 108.27L493.112 108.481L493.107 108.647C493.04 110.789 492.117 111.718 490.002 111.913C489.914 111.921 489.826 111.925 489.739 111.929C489.371 111.946 489.008 111.962 488.645 112.325C487.167 113.785 486.725 115.8 486.41 117.568C485.915 120.332 486.072 123.239 486.245 126.093C486.319 127.319 486.91 128.384 487.455 129.367C487.576 129.586 487.695 129.8 487.805 130.011C488.162 130.695 488.391 131.418 488.621 132.14C488.883 132.965 489.145 133.79 489.597 134.557C490.012 135.266 490.253 136.124 490.488 136.962C490.678 137.639 490.864 138.303 491.135 138.865C491.888 140.416 492.125 142.042 492.361 143.659C492.506 144.65 492.65 145.638 492.912 146.603C493.075 147.2 493.321 147.789 493.569 148.384C494.12 149.708 494.683 151.059 494.367 152.573C494.356 152.633 494.421 152.713 494.483 152.789C494.506 152.818 494.529 152.846 494.547 152.873C495.456 154.187 495.825 155.721 496.186 157.226C496.264 157.547 496.341 157.867 496.422 158.184C496.706 159.266 496.665 160.435 496.624 161.599C496.608 162.039 496.593 162.477 496.595 162.91C496.595 164.079 496.392 165.083 495.747 166.214C495.602 166.469 495.394 166.719 495.18 166.979C494.557 167.734 493.873 168.562 494.465 169.772C494.5 169.784 494.538 169.8 494.579 169.816C494.687 169.861 494.814 169.913 494.945 169.929C498.833 170.472 502.651 169.943 506.469 169.415C508.608 169.119 510.748 168.823 512.9 168.716C513.02 168.716 513.147 168.671 513.26 168.611C515.712 167.427 518.217 166.431 521.03 166.573C521.975 166.618 522.935 166.603 523.88 166.581C524.405 166.566 524.757 166.483 525.222 165.937C526.632 164.259 528.635 163.532 530.832 163.255C533.275 162.953 535.58 163.511 537.902 164.073L537.903 164.073C538.119 164.125 538.334 164.177 538.55 164.229C539.337 164.416 539.982 164.678 540.47 165.255C540.707 165.053 540.931 164.841 541.151 164.634C541.965 163.866 542.724 163.149 543.935 163.12C545.282 163.086 546.576 162.754 547.879 162.421C549.136 162.099 550.402 161.774 551.735 161.712C552.777 161.659 554.442 161.27 555.605 160.603L555.671 160.565C557.433 159.559 559.149 158.58 561.252 158.536C561.287 158.535 561.324 158.534 561.361 158.534C561.723 158.529 562.17 158.523 562.34 158.326C563.149 157.357 564.252 157.191 565.363 157.024C566.022 156.925 566.684 156.826 567.29 156.558C569.06 155.768 571.358 156.009 573.455 156.229L573.664 156.251C574.542 156.341 574.939 156.723 575.419 157.562C576.372 159.232 577.474 160.835 579.867 160.963C582.642 161.112 585.252 160.865 587.832 159.255C587.849 158.163 587.564 156.999 587.265 155.777L587.265 155.776C587.169 155.388 587.073 154.994 586.984 154.595C586.824 153.877 586.55 153.179 586.275 152.478C585.741 151.117 585.205 149.749 585.492 148.221C585.537 147.989 585.477 147.696 585.357 147.487C584.214 145.521 583.754 143.353 583.292 141.171L583.242 140.932C582.829 138.977 581.802 137.277 580.512 135.778C579.862 135.022 579.156 134.318 578.452 133.614L578.451 133.614C576.589 131.755 574.732 129.901 573.904 127.097C573.719 126.464 573.512 125.832 573.305 125.201C572.629 123.133 571.952 121.062 571.992 118.939C572.03 116.842 571.63 114.819 571.229 112.795C570.844 110.849 570.458 108.902 570.462 106.886C570.462 106.12 570.185 105.184 569.901 104.228C569.731 103.652 569.558 103.069 569.442 102.512C569.299 101.837 568.707 101.628 568.159 101.538C567.117 101.366 566.045 101.283 564.942 101.905C565.322 103.022 564.859 103.915 564.398 104.803C564.022 105.528 563.647 106.25 563.735 107.089C560.765 107.815 558.417 107.448 557.247 104.22C557.895 103.732 557.944 103.001 557.995 102.227C558.006 102.061 558.017 101.893 558.035 101.725C558.204 100.107 558.175 98.4801 558.145 96.8518C558.093 93.9425 558.04 91.0286 559.122 88.1517C559.795 86.3583 559.95 84.2413 560.093 82.295C560.114 82.0057 560.135 81.7201 560.157 81.44C560.307 79.5227 560.588 77.6143 560.87 75.7056C561.404 72.081 561.938 68.4553 561.575 64.7654C561.505 64.0403 561.543 63.3018 561.581 62.5637C561.592 62.3486 561.604 62.1335 561.612 61.9188C561.642 61.2746 561.725 60.6304 562.61 60.6079C563.877 60.578 563.96 59.6341 563.877 58.7502C563.671 56.5768 564.073 54.468 564.475 52.3556C564.836 50.4638 565.196 48.5691 565.122 46.6226C565.085 45.6338 565.745 44.188 566.547 43.6787C568.115 42.6749 567.597 41.0868 566.99 40.7048C565.116 39.5151 564.881 37.687 564.651 35.9021C564.542 35.0572 564.434 34.2219 564.155 33.4687C563.315 31.2064 562.917 28.4348 562.752 25.813C562.745 25.6892 562.749 25.5611 562.753 25.4316C562.77 24.8793 562.788 24.3016 561.95 23.9253C561.522 23.7306 561.08 22.6219 562.175 21.6631C562.596 21.2986 563.069 21.0752 563.543 20.8515C564.082 20.5972 564.622 20.3427 565.085 19.8803C566.217 18.7567 567.807 17.7754 569.352 17.4458C572.457 16.7866 575.742 16.869 578.457 18.6293C578.709 18.7914 578.992 18.9195 579.282 19.0508C579.864 19.314 580.474 19.5903 580.924 20.1799L580.932 20.1891C582.241 21.8936 583.489 23.5175 583.362 25.8205C583.287 27.2213 584.037 28.9891 584.667 29.5285C586.201 30.85 585.534 31.5292 584.786 32.2896C584.631 32.4473 584.472 32.6084 584.329 32.7795C584.024 33.1441 583.628 33.146 583.223 33.1479C582.863 33.1495 582.495 33.1512 582.177 33.4087C582.177 33.4679 582.167 33.5402 582.157 33.6158C582.134 33.7889 582.108 33.9793 582.192 34.0679C583.701 35.6848 585.558 36.8031 587.418 37.9239C587.971 38.257 588.525 38.5903 589.069 38.937C589.476 39.1946 589.909 39.4019 590.34 39.609C591.039 39.944 591.736 40.2785 592.324 40.8247C593.502 41.9108 595.039 42.9071 596.389 43.2292C597.075 43.3897 597.749 43.5999 598.426 43.811C599.992 44.2995 601.572 44.7923 603.342 44.6824C605.665 44.5364 608.002 44.5903 610.34 44.6442C612.319 44.6898 614.298 44.7355 616.272 44.66C619.497 44.5326 621.522 45.8885 623.299 48.4578C623.53 48.7904 623.758 49.1278 623.987 49.4666C624.747 50.5932 625.519 51.736 626.442 52.7725C626.832 53.2091 627.248 53.6262 627.665 54.0441L627.666 54.0447C628.515 54.8958 629.368 55.7504 630.012 56.7801C631.073 58.4798 632.399 59.9623 633.731 61.4506C635.004 62.8746 636.283 64.304 637.339 65.9339C638.742 68.0988 640.534 70.4434 643.189 71.597C644.135 71.0599 644.674 70.1657 645.22 69.2596C645.686 68.4849 646.158 67.7015 646.894 67.125C647.314 66.7954 647.442 65.8366 646.579 64.9377C645.842 64.1647 645.004 64.1011 644.166 64.0374C643.632 63.9968 643.097 63.9562 642.589 63.7316V61.6042C642.612 56.7801 642.807 51.9935 643.602 47.1994C643.939 45.1768 644.404 43.1468 645.124 41.3865C646.249 38.6298 647.929 35.9406 649.954 33.7533C651.776 31.7863 651.755 29.7323 651.733 27.4845L651.732 27.3711C651.732 26.8617 651.664 26.5696 651.049 26.2625C648.724 25.0789 646.804 23.5059 645.462 21.0863C644.802 19.8878 643.789 18.6518 642.019 18.1199C640.272 17.5956 638.397 16.6368 637.257 14.9888C637.108 14.7724 636.915 14.5666 636.722 14.3596C635.992 13.5774 635.246 12.7785 636.747 11.3333C637.844 10.2788 638.923 9.11424 639.99 7.96206C640.257 7.6736 640.523 7.38591 640.789 7.10093C642.102 5.70764 643.797 4.15703 645.544 3.82744C646.031 3.735 646.51 3.6097 646.994 3.48331C648.47 3.09761 649.985 2.70171 651.867 3.19821C654.338 3.85043 656.087 5.21169 657.855 6.58821C658.443 7.04557 659.032 7.50462 659.652 7.9399C660.441 8.49426 660.973 9.25121 661.512 10.017C661.956 10.6482 662.404 11.2854 663.004 11.8202C664.992 13.588 664.819 15.1311 663.334 17.3484C662.922 17.9701 663.042 18.8016 663.529 19.2885C666.057 21.8204 668.509 24.3973 670.737 27.2138C672.379 29.2963 673.534 31.6259 674.314 34.0005C674.828 35.5615 674.984 37.2495 675.14 38.9422L675.14 38.9433C675.221 39.817 675.301 40.6919 675.431 41.5513C675.828 44.1746 675.787 46.8362 675.746 49.5029C675.688 53.2935 675.629 57.0945 676.826 60.8102C676.905 61.0513 676.976 61.2916 677.047 61.5307L677.047 61.5316C677.201 62.05 677.353 62.5628 677.569 63.0649C677.731 63.4457 677.968 63.8124 678.205 64.1798C678.658 64.882 679.113 65.5869 679.054 66.3984C678.965 67.5498 679.482 68.4838 679.98 69.3818C680.197 69.7749 680.411 70.1612 680.569 70.5558C680.808 71.1556 681.003 71.7826 681.199 72.4104C681.576 73.6172 681.953 74.8269 682.639 75.8518C683.062 76.4833 683.221 77.196 683.374 77.879C683.523 78.5407 683.665 79.1746 684.034 79.6796C684.704 80.598 684.939 81.6212 685.174 82.6431C685.342 83.3716 685.509 84.0994 685.834 84.7884C686.046 85.2356 686.13 85.7494 686.215 86.2739C686.344 87.0669 686.477 87.8845 687.064 88.5338C685.429 89.8447 684.289 91.5226 683.839 93.253C683.269 95.4178 682.609 97.5827 681.221 99.1708C680.272 100.255 680.324 101.26 680.379 102.307C680.394 102.591 680.409 102.878 680.404 103.171C680.396 103.543 680.617 103.772 680.849 104.011C681.079 104.249 681.319 104.498 681.356 104.909C681.769 109.381 681.176 113.733 680.149 118.063C680.143 118.087 680.142 118.115 680.141 118.143C680.139 118.186 680.137 118.227 680.119 118.25C678.81 119.645 678.941 121.263 679.072 122.881C679.12 123.479 679.168 124.076 679.144 124.662C679.129 125.007 679.271 125.299 679.519 125.636L679.554 125.682C680.256 126.613 681.009 127.609 681.304 128.7C681.709 130.183 682.204 131.928 682.849 132.977C683.641 134.263 683.883 135.654 684.118 137C684.235 137.668 684.35 138.326 684.529 138.955C684.69 139.521 684.878 140.093 685.069 140.672C685.755 142.758 686.47 144.933 686.059 147.232C686.014 147.472 686.014 147.809 686.156 147.974C687.199 149.196 687.27 150.64 687.343 152.111C687.403 153.318 687.463 154.544 688.061 155.682C689.051 157.569 690.409 159.539 692.719 159.749C693.573 159.824 694.286 159.523 694.997 159.224C695.641 158.953 696.282 158.682 697.024 158.693C702.731 158.76 708.431 158.723 714.139 158.67C715.756 158.652 717.282 159.212 718.721 159.741C719.038 159.857 719.35 159.972 719.659 160.079C722.419 161.023 725.179 161.847 728.021 161.899C728.834 161.915 729.647 161.936 730.46 161.957C735.516 162.087 740.582 162.218 745.609 161.038C747.956 160.483 749.921 159.015 749.929 156.566C749.929 154.593 749.89 152.625 749.852 150.655L749.852 150.646L749.85 150.549C749.841 150.085 749.832 149.621 749.824 149.157L749.822 149.044C749.816 148.635 749.81 148.209 749.666 147.846C748.564 144.94 747.686 141.966 747.641 138.857C747.62 137.562 747.286 136.329 746.95 135.094C746.555 133.638 746.158 132.179 746.276 130.61C746.329 129.921 745.654 128.61 745.031 127.906C743.156 125.778 742.219 123.314 741.971 120.595C741.808 118.778 742.146 116.999 742.483 115.221C742.596 114.623 742.709 114.025 742.804 113.426C743.156 111.156 743.764 108.879 744.506 106.886C745.361 104.602 745.466 102.482 745.361 100.242C745.249 97.8224 744.431 97.1407 741.956 97.0958C741 97.0759 740.041 97.0824 739.065 97.0891C738.571 97.0924 738.073 97.0958 737.569 97.0958C737.353 96.0454 737.349 94.9835 737.346 93.9337C737.34 91.8093 737.333 89.7345 735.566 87.9045C735.491 87.8804 735.38 87.8685 735.245 87.8539C734.917 87.8186 734.445 87.7679 733.984 87.4926C732.506 86.6086 731.066 86.7435 729.439 87.5225C728.162 88.1339 727.273 89.117 726.386 90.0982C725.87 90.6679 725.356 91.237 724.766 91.7324C724.099 92.2867 723.476 92.6987 722.884 92.459C722.149 92.1743 721.474 91.605 721.331 90.5788C720.986 88.0918 721.376 85.7247 722.621 83.6048C723.535 82.0509 724.726 80.7068 725.921 79.3585C726.961 78.1849 728.003 77.0081 728.869 75.687C729.153 75.2515 729.499 74.843 729.841 74.4393C731.005 73.0654 732.122 71.7466 730.609 69.6044C730.768 67.2957 730.345 65.0413 729.922 62.7862C729.47 60.3804 729.018 57.9737 729.274 55.4992C729.28 55.4402 729.286 55.3799 729.292 55.3187L729.295 55.2924C729.37 54.5822 729.458 53.7502 729.124 53.2594C728.111 51.7777 728.177 50.1841 728.243 48.5983C728.267 48.0116 728.292 47.4259 728.261 46.8473C728.194 45.5888 729.109 44.7499 730.226 44.7124C732.604 44.6225 734.464 44.4053 735.401 41.5588C735.614 40.9075 735.858 40.2636 736.102 39.6185L736.103 39.6164C736.597 38.3105 737.093 36.9993 737.344 35.611C737.416 35.2022 737.411 34.7794 737.405 34.356C737.393 33.422 737.38 32.4848 738.206 31.6858C738.536 31.3637 738.521 30.4873 738.086 30.0903C737.496 29.5476 737.474 28.9231 737.452 28.2684C737.449 28.182 737.445 28.0951 737.441 28.0078C737.413 27.4048 737.092 26.9925 736.765 26.5733C736.658 26.4353 736.55 26.2966 736.451 26.1501C736.068 25.5755 735.564 25.462 735.079 25.3526C734.672 25.2609 734.277 25.172 733.976 24.8167C732.124 22.6444 730.361 20.4721 730.316 17.6405C728.029 16.5993 725.899 15.633 723.851 14.7116C722.972 12.9878 723.954 11.582 724.773 10.4097C724.911 10.2116 725.044 10.0202 725.164 9.83508C725.38 9.49801 725.594 9.15758 725.809 8.81596C726.879 7.11544 727.968 5.38568 729.349 3.89485C730.811 2.31429 732.521 0.943466 734.546 0.321727C737.374 -0.554701 740.224 0.516489 742.669 1.6551C744.723 2.61396 746.57 4.02103 748.415 5.42703C749.151 5.98714 749.886 6.54709 750.634 7.07846C752.741 8.56913 752.809 10.2246 750.634 11.558C749.036 12.5393 748.496 13.7378 748.661 15.5131C748.851 17.5385 750.25 18.6058 751.616 19.6475C752.034 19.9658 752.448 20.2818 752.824 20.6219C753.576 21.3081 754.542 21.7904 755.501 22.2687C756.196 22.6153 756.887 22.9599 757.489 23.3785C759.956 25.1014 762.034 27.4835 763.481 30.1652C764.876 32.7495 766.263 35.4837 766.826 38.3152C766.991 39.1419 767.174 39.9685 767.357 40.7979L767.358 40.8006C767.76 42.6159 768.165 44.4445 768.386 46.3154C768.504 47.3344 768.666 48.3557 768.829 49.3811L768.829 49.3821C769.083 50.972 769.337 52.5719 769.428 54.1883C769.436 54.3681 769.496 54.5853 769.608 54.7127C770.773 56.0535 771.049 57.8383 771.291 59.4094C771.325 59.6289 771.359 59.8443 771.393 60.0536C771.986 63.6043 772.586 67.0875 773.621 70.5633C774.158 72.3872 774.412 74.3701 774.662 76.3218C774.719 76.7668 774.776 77.2101 774.836 77.6496C775.09 79.5186 775.05 81.4275 775.009 83.339V83.34C774.987 84.416 774.964 85.4928 774.993 86.5637C775.016 87.4701 774.611 88.0319 773.973 88.5038C774.731 89.5151 775.376 90.1967 776.696 90.4814C777.468 90.6462 778.616 91.223 779.381 91.9121C782.051 94.3467 784.698 96.8036 787.286 99.3281C787.944 99.9706 788.516 100.7 789.1 101.445C789.374 101.795 789.651 102.147 789.941 102.497C788.463 103.216 787.653 102.519 786.918 101.613C786.55 102.121 786.184 102.604 785.826 103.076C785.097 104.038 784.399 104.958 783.776 105.972C782.576 107.92 780.588 110.22 777.566 109.65C776.632 111.996 777.529 114.016 778.354 115.874C778.522 116.253 778.687 116.625 778.833 116.991C779.181 117.87 779.399 118.776 779.618 119.682C779.862 120.691 780.105 121.702 780.528 122.677C781.308 124.482 781.443 126.827 781.533 128.752C781.629 130.815 781.949 132.844 782.269 134.868L782.269 134.87L782.27 134.872C782.63 137.154 782.99 139.431 783.026 141.749C783.028 141.853 783.029 141.957 783.031 142.061C783.056 143.599 783.08 145.097 783.873 146.655C785.186 149.262 783.326 151.786 780.446 151.816C778.758 151.836 777.071 151.83 775.433 151.823C774.633 151.82 773.844 151.816 773.073 151.816C772.256 154.322 772.831 156.587 773.398 158.818L773.398 158.819C773.746 160.189 774.091 161.547 774.108 162.94C774.108 163.36 774.828 164.745 775.706 165.525C777.01 166.686 778.555 166.863 780.092 167.038C780.933 167.134 781.772 167.23 782.568 167.487C785.201 168.334 788.066 167.495 790.511 165.772C790.958 165.455 791.488 165.307 792.037 165.153C792.592 164.998 793.167 164.837 793.698 164.491C794.643 163.877 796.361 163.951 797.508 164.731C798.813 165.607 800.111 166.618 801.108 167.824C801.362 168.13 801.651 168.418 801.942 168.708C802.883 169.643 803.842 170.596 803.658 172.244C803.531 173.375 804.566 173.465 805.413 173.45C806.092 173.434 806.776 173.451 807.46 173.468C810 173.532 812.558 173.597 814.938 171.974C814.938 171.875 814.943 171.763 814.947 171.645V171.643C814.958 171.379 814.969 171.077 814.938 170.783C814.683 168.558 815.441 167.33 817.668 166.259C818.248 165.978 818.882 165.866 819.516 165.755C820.572 165.57 821.626 165.385 822.423 164.416C822.732 164.039 823.102 163.706 823.472 163.374C824.205 162.714 824.936 162.056 825.191 161.06C825.308 160.597 825.336 160.116 825.364 159.634C825.418 158.703 825.472 157.767 826.173 156.948C826.406 156.678 826.346 155.786 826.083 155.517C825.43 154.859 825.396 154.095 825.36 153.319C825.351 153.105 825.341 152.891 825.318 152.678C825.275 152.281 825.234 151.886 825.193 151.492L825.192 151.489C825.014 149.773 824.836 148.068 824.471 146.333C824.3 145.534 824.08 144.736 823.858 143.935L823.857 143.932C823.359 142.128 822.854 140.303 822.896 138.385C822.941 136.265 820.308 133.127 818.298 132.423C817.023 131.973 816.266 131.112 816.108 129.621C815.987 128.441 816.296 127.339 816.599 126.257C816.838 125.402 817.074 124.56 817.091 123.703C817.108 122.75 817.485 121.928 817.857 121.118C818.292 120.17 818.719 119.24 818.553 118.138C818.545 118.07 818.622 117.998 818.706 117.919L818.707 117.919C818.771 117.858 818.84 117.794 818.876 117.726C818.946 117.596 819.016 117.468 819.087 117.339C819.733 116.161 820.374 114.991 820.638 113.621C821.143 111.009 820.033 108.875 818.937 106.769C818.634 106.188 818.332 105.608 818.066 105.021C817.881 104.612 817.68 104.213 817.481 103.816L817.481 103.815C816.729 102.314 815.995 100.85 816.161 99.0434C816.21 98.4913 816.21 97.9346 816.209 97.3772C816.209 96.9212 816.209 96.4646 816.236 96.0096C816.281 95.2231 816.236 94.5115 815.433 93.9197C814.656 94.7489 813.629 94.7364 812.628 94.7241C812.507 94.7227 812.387 94.7212 812.268 94.7212C810.483 94.7212 809.283 95.4853 807.911 96.6913C806.434 97.9917 805.369 99.5147 804.295 101.05L804.294 101.051C804.032 101.426 803.77 101.801 803.501 102.175C802.835 103.099 801.926 103.005 801.051 102.914C800.842 102.892 800.635 102.871 800.433 102.864C799.541 102.834 799.068 102.167 798.986 101.178C798.741 98.2769 800.311 96.1506 801.878 94.0277L802.068 93.7699C802.633 93.0052 803.293 92.3298 803.957 91.6513C804.652 90.9407 805.351 90.2266 805.946 89.4027C806.397 88.778 806.751 88.0955 807.102 87.4199C807.55 86.5564 807.992 85.7042 808.623 84.9981C810.843 82.5186 811.218 79.3875 811.361 76.4885C811.617 71.3078 811.581 66.1119 811.544 60.917C811.529 58.8259 811.514 56.7349 811.518 54.6452C811.518 52.7201 812.306 51.8137 814.218 51.5066C814.358 51.484 814.495 51.4682 814.632 51.4526C815.084 51.4009 815.526 51.3504 815.981 51.0571C817.937 49.7808 818.448 47.8061 818.958 45.8394C819.124 45.1975 819.29 44.5565 819.506 43.9408C820.001 42.5251 820.503 41.1393 821.448 39.9632C822.551 38.5849 821.651 36.3451 820.136 35.4163C819.786 35.2015 819.417 35.014 819.045 34.8248C818.406 34.4994 817.756 34.169 817.173 33.6859C816.333 32.9975 816.143 32.0944 815.951 31.1847C815.79 30.4214 815.628 29.6535 815.081 29.0041C814.744 28.6079 814.437 28.147 814.121 27.6741L814.12 27.6722C813.809 27.207 813.491 26.7304 813.131 26.2924C812.57 25.6071 811.813 25.2389 811.054 24.8696C810.27 24.4882 809.484 24.1056 808.908 23.371C807.851 22.0227 807.851 21.0489 808.863 19.6256C809.407 18.8625 810.042 18.1846 810.678 17.5056C811.515 16.6116 812.353 15.7159 812.988 14.6217C813.873 13.0936 815.193 10.9213 816.551 10.734C820.466 10.2021 824.561 10.1272 828.468 10.6965C829.62 10.8645 830.633 11.9665 831.652 13.0739C832.132 13.5961 832.613 14.1195 833.111 14.5468C834.762 15.963 836.059 17.674 837.39 19.4292L837.391 19.4298C837.897 20.0975 838.408 20.7716 838.946 21.4384C838.453 21.777 838.034 22.1904 837.613 22.6054C836.879 23.3288 836.14 24.0573 835.001 24.4048C833.583 24.8392 832.571 27.4535 833.321 28.3824C833.821 28.9971 834.279 29.6454 834.732 30.2861C835.135 30.8557 835.533 31.4193 835.953 31.948C837.395 33.7454 839.036 35.3634 840.683 36.9865C842.385 38.6646 844.092 40.348 845.591 42.2404C847.382 44.5095 848.456 47.0662 849.534 49.6331L849.536 49.6366C849.77 50.1955 850.005 50.7549 850.248 51.3118C850.608 52.1325 851.011 52.9248 851.412 53.7149C851.663 54.2085 851.914 54.7013 852.153 55.1996C852.513 55.9488 852.917 56.6765 853.318 57.4016L853.32 57.404C853.837 58.3383 854.353 59.268 854.771 60.2334C855.288 61.4244 855.956 62.5706 856.578 63.6268C856.789 63.9827 857.006 64.3341 857.222 64.6843C858.476 66.7142 859.703 68.7013 859.518 71.2824C859.481 71.7768 859.488 72.3236 859.84 72.7281C860.13 73.0623 860.415 73.4007 860.7 73.7389L860.701 73.7395C861.553 74.7508 862.405 75.7609 863.365 76.6533C864.033 77.2676 864.16 78.114 863.808 78.4436C863.073 79.1415 862.638 79.9836 862.202 80.8253C862.002 81.2122 861.802 81.5991 861.573 81.9718C860.752 83.3091 859.776 84.5499 858.799 85.7909C857.909 86.9204 857.02 88.0501 856.248 89.2529C856.109 89.468 855.924 89.6528 855.737 89.8385C855.392 90.183 855.044 90.5306 854.981 91.0807C854.748 93.0957 854.478 95.0882 854.013 97.1033C853.595 98.9067 853.553 100.751 853.51 102.613C853.464 104.665 853.416 106.739 852.866 108.804C852.5 110.182 852.474 111.63 852.448 113.094C852.407 115.356 852.366 117.658 851.073 119.808C850.437 119.617 849.917 119.949 849.358 120.305C848.863 120.62 848.338 120.955 847.676 120.962C844.749 120.999 844.743 121.096 844.58 123.905L844.578 123.943C844.569 124.093 844.572 124.251 844.575 124.41C844.583 124.78 844.59 125.153 844.443 125.441C843.303 127.651 843.686 129.643 844.368 132.011C844.439 132.257 844.511 132.504 844.582 132.751L844.583 132.753C845.412 135.615 846.265 138.56 846.611 141.442C846.758 142.674 847.014 143.893 847.269 145.111L847.269 145.112C847.701 147.172 848.133 149.232 848.043 151.359C847.959 153.281 848.331 155.159 848.702 157.038C849.129 159.195 849.556 161.355 849.296 163.584C849.273 163.764 849.281 164.011 849.386 164.139C850.314 165.211 850.362 166.511 850.41 167.825C850.457 169.1 850.505 170.388 851.358 171.495C851.588 171.79 851.685 172.212 851.791 172.67C851.913 173.199 852.046 173.777 852.408 174.266C853.676 175.982 856.781 176.364 858.37 174.881C858.508 174.752 858.646 174.621 858.785 174.49C860.188 173.165 861.659 171.776 863.515 171.36C864.813 171.07 866.138 170.943 867.473 170.815C868.793 170.688 870.123 170.561 871.443 170.274C873.906 169.745 876.351 170.698 878.753 171.635C879.072 171.76 879.391 171.884 879.708 172.004C880.087 172.147 880.46 172.326 880.837 172.506C881.72 172.929 882.62 173.36 883.645 173.36C887.706 173.369 891.766 173.38 895.825 173.392H895.828C901.912 173.409 907.995 173.426 914.08 173.435C914.134 173.435 914.189 173.435 914.244 173.435L914.268 173.436C914.847 173.439 915.493 173.443 915.933 173.173C918.13 171.847 920.185 171.704 922.398 173.218C923.103 173.697 924.198 173.592 924.423 172.334C924.535 171.719 924.58 171.075 924.558 170.446C924.504 168.685 924.169 166.973 923.834 165.254C923.752 164.831 923.669 164.407 923.59 163.981C923.435 163.158 923.16 162.352 922.885 161.544L922.885 161.543C922.358 160.001 921.83 158.454 922.135 156.768C922.158 156.663 922.105 156.498 922.03 156.416C920.915 155.231 920.723 153.719 920.534 152.232C920.445 151.528 920.356 150.831 920.17 150.176C919.357 147.298 917.71 145.192 916.022 143.034C915.935 142.923 915.847 142.812 915.76 142.7C915.689 142.609 915.618 142.518 915.547 142.429L915.386 142.227C914.079 140.578 912.9 139.091 912.948 136.58C913.03 132.482 912.91 128.385 912.34 124.235L912.311 124.024C911.713 119.656 911.101 115.189 910.968 110.729C910.966 110.663 910.966 110.595 910.967 110.526C910.971 110.092 910.975 109.631 910.315 109.605C909.658 109.575 909.655 109.995 909.652 110.398C909.651 110.497 909.651 110.594 909.64 110.684C909.581 111.167 909.546 111.643 909.511 112.118C909.419 113.377 909.328 114.628 908.778 115.965C907.863 118.22 906.955 120.819 907.458 123.516C907.623 124.4 907.75 125.703 906.948 126.198C906.602 126.413 906.258 126.641 905.913 126.87C904.45 127.84 902.962 128.827 901.135 128.984C897.895 129.261 894.888 128.954 892.015 126.924C891.202 126.352 890.602 125.719 890.01 125.059C889.949 124.991 889.887 124.922 889.826 124.852L889.757 124.775L889.756 124.775L889.623 124.625C888.588 123.471 889.233 122.542 890.155 121.681C890.26 121.583 890.238 121.306 890.215 121.126C889.96 119.491 891 118.006 891.713 116.988L891.768 116.909C893.185 114.857 892.908 112.699 892.278 111.096C891.545 109.237 891.232 107.324 890.921 105.422C890.767 104.481 890.614 103.544 890.41 102.617C889.831 99.9908 889.993 97.2511 890.155 94.5215C890.205 93.6845 890.255 92.8485 890.283 92.017C890.286 91.9033 890.284 91.7799 890.281 91.6538V91.6504C890.273 91.2211 890.264 90.7609 890.478 90.5413C891.437 89.5667 891.56 88.3557 891.685 87.123C891.779 86.205 891.874 85.275 892.315 84.4213C892.774 83.5347 893.148 82.4212 893.515 81.329L893.516 81.3276C893.694 80.7961 893.871 80.2697 894.055 79.777C894.112 79.6262 894.168 79.4674 894.226 79.3027C894.541 78.4124 894.916 77.3523 895.675 76.4735C897.31 74.5709 898.84 72.2862 898.233 69.4097C898.191 69.2042 898.203 68.9917 898.215 68.7774C898.225 68.6088 898.234 68.4392 898.218 68.2711C898.09 66.8553 898.653 66.1811 900.145 66.2411C901.915 66.316 903.693 66.301 905.47 66.256C907.428 66.2111 908.41 65.2298 908.575 63.2897C908.585 63.1731 908.587 63.0493 908.589 62.9246C908.595 62.5765 908.601 62.2219 908.778 62.0012C909.486 61.0886 909.622 60 909.757 58.9141C909.894 57.8163 910.03 56.7214 910.758 55.8138C910.45 52.7026 910.885 49.6453 911.321 46.5889C911.681 44.06 912.041 41.5318 911.98 38.9744C911.955 38.024 912.305 37.1615 912.655 36.2969C913.042 35.3422 913.429 34.3849 913.315 33.3039C913.306 33.1958 913.473 33.0701 913.724 32.8824C913.872 32.7707 914.05 32.6372 914.238 32.4724C913.591 32.4977 913.391 32.0722 913.2 31.6632C912.994 31.2237 912.797 30.8032 912.063 30.9817C910.698 31.3113 909.798 30.4648 908.965 29.6633C908.741 29.4465 908.63 29.1122 908.52 28.7786C908.409 28.4437 908.298 28.1094 908.073 27.8955C906.571 26.4957 906.118 24.6255 905.677 22.8064L905.677 22.8047C905.559 22.3173 905.441 21.8335 905.305 21.3635C904.848 19.7754 904.375 18.502 903.22 17.2885C903.112 17.1738 902.983 17.0508 902.847 16.9207C902.129 16.2346 901.206 15.3511 901.893 14.4569C902.401 13.7973 902.579 13.0421 902.758 12.2868C902.966 11.4039 903.175 10.5209 903.91 9.79014C905.913 7.79758 908.035 6.13461 910.87 5.91738C913.082 5.74616 915.306 5.78367 917.531 5.82117C918.226 5.83289 918.921 5.84461 919.615 5.84996C920.227 5.84996 920.684 6.16808 921.232 6.55022L921.28 6.58406C922.246 7.2521 923.028 8.08737 923.808 8.92011L923.809 8.92093C924.35 9.4979 924.889 10.0736 925.488 10.5917C927.543 12.367 927.385 13.618 925.578 15.7379C925.458 15.8796 925.299 15.9549 925.138 16.0313C924.856 16.1647 924.568 16.3013 924.468 16.8016C923.635 20.9065 925.968 24.2624 930.033 25.3861C930.288 25.4568 930.545 25.5272 930.804 25.5978C931.995 25.9231 933.208 26.2546 934.36 26.667C934.818 26.8315 935.272 27.005 935.726 27.1784C937.607 27.8972 939.48 28.6127 941.553 28.667C944.155 28.7345 944.92 28.0078 944.928 25.3336C944.931 24.1603 944.923 22.987 944.916 21.8137C944.905 20.2004 944.895 18.5871 944.913 16.9738C944.916 16.6777 944.902 16.3605 944.887 16.039V16.0381C944.842 15.0588 944.795 14.0395 945.258 13.4532C946.213 12.2537 946.191 11.0027 946.169 9.75203C946.16 9.28436 946.152 8.81674 946.195 8.3519C946.338 6.83126 947.29 5.68516 948.617 5.86494C950.057 6.0597 950.695 6.91366 950.785 8.47175C950.845 9.54096 950.517 10.5249 950.189 11.5094C949.815 12.6287 949.442 13.7489 949.637 14.9963C949.77 15.8416 949.725 16.7113 949.679 17.5832C949.645 18.241 949.611 18.9 949.652 19.5507C949.872 22.9882 949.744 26.437 949.617 29.8865C949.399 35.7654 949.182 41.6462 950.68 47.4765C950.984 48.6503 951.525 49.739 952.013 50.7208L952.102 50.9L952.172 51.0422C953.168 53.054 954.367 54.9815 955.562 56.9038C955.96 57.5438 956.358 58.1833 956.747 58.8251L956.75 58.8296C958.347 61.4649 959.921 64.0628 961.3 66.8253C961.456 67.1372 961.595 67.4658 961.736 67.7965C961.959 68.3236 962.185 68.8561 962.485 69.3348C963.437 70.8404 962.777 73.5821 961.217 74.1514C960.085 74.5634 959.207 75.3125 958.367 76.1065C957.445 76.9829 957.145 80.0542 957.97 80.9456C959.02 82.0767 959.62 83.6048 959.732 84.8783C959.812 85.7539 960.142 86.5575 960.469 87.3549C960.918 88.4471 961.362 89.5277 961.15 90.766C961.11 91.0069 961.282 91.1301 961.456 91.255C961.542 91.3166 961.628 91.3785 961.69 91.4552C962.62 92.6163 962.11 96.2119 961.3 97.4554C960.63 98.4744 959.806 98.3757 959.002 98.2795C958.689 98.2421 958.379 98.205 958.082 98.2344L957.985 98.2441C955.835 98.4584 953.447 98.6965 952.405 100.534C951.565 102.01 950.928 103.965 950.853 105.785C950.803 107.019 950.415 108.143 950.027 109.267L950.026 109.268C949.764 110.026 949.502 110.784 949.345 111.576C949.142 112.583 948.798 113.572 948.452 114.564L948.452 114.565C947.827 116.358 947.2 118.159 947.403 120.093C947.86 124.392 945.88 127.471 943.015 130.258C941.193 132.033 941.118 132.265 942.768 134.34C943.083 134.737 943.392 135.138 943.701 135.538L943.701 135.539C944.744 136.891 945.785 138.24 947.058 139.441C948.932 141.209 950.477 143.419 951.797 145.651C952.429 146.72 953.189 147.689 953.946 148.655C954.744 149.673 955.539 150.687 956.177 151.809C956.496 152.371 956.942 152.82 957.383 153.264C957.864 153.749 958.34 154.228 958.637 154.843C959.83 157.322 961.945 159.037 963.985 160.611C964.691 161.157 965.431 161.652 966.169 162.146C967.94 163.331 969.704 164.512 970.99 166.393C972.692 168.88 972.835 170.116 971.545 172.753C971.391 173.068 971.179 173.353 970.968 173.638C970.602 174.131 970.237 174.621 970.18 175.263C969.94 178.019 969.97 180.821 971.56 183.15C971.677 183.322 971.794 183.508 971.915 183.7C972.541 184.698 973.265 185.849 974.642 185.9C976.794 185.974 978.946 185.958 981.025 185.942C981.874 185.936 982.71 185.93 983.53 185.93C984.306 184.993 983.803 184.284 983.317 183.599C982.873 182.975 982.443 182.37 983.012 181.63C983.57 181.423 983.697 181.745 983.818 182.052C983.912 182.291 984.003 182.521 984.287 182.491C985.467 182.373 986.536 182.726 987.619 183.083C988.587 183.403 989.567 183.727 990.647 183.72C998.588 183.654 1006.53 183.667 1014.47 183.68C1021.05 183.691 1027.63 183.701 1034.21 183.667C1034.71 183.665 1035.21 183.67 1035.72 183.676C1038.13 183.703 1040.55 183.73 1043.03 182.843C1044.24 182.409 1045.49 182.069 1046.75 181.727C1048.11 181.36 1049.47 180.991 1050.8 180.499C1050.91 180.458 1051.02 180.416 1051.13 180.375L1051.18 180.357C1053.31 179.571 1055.54 178.745 1057.98 179.105C1058.05 179.115 1058.11 179.126 1058.18 179.137C1059 179.268 1059.98 179.427 1060.59 178.251C1060.8 177.854 1061.9 177.854 1062.75 178.386C1063.32 178.744 1063.86 179.166 1064.39 179.588C1065.53 180.491 1066.68 181.396 1068.2 181.682C1068.22 181.87 1068.22 182.075 1068.23 182.277C1068.23 182.712 1068.24 183.135 1068.45 183.36C1069.19 184.134 1069.75 185.005 1070.32 185.878C1070.52 186.188 1070.72 186.499 1070.93 186.806C1071.61 187.802 1072.68 189.091 1074.01 189.233C1077 189.555 1080.03 189.675 1082.95 189.383C1083.63 187.455 1082.78 185.904 1082.02 184.532C1081.87 184.252 1081.72 183.979 1081.58 183.712C1081.33 183.202 1081.19 182.653 1081.05 182.098C1080.83 181.235 1080.61 180.356 1079.95 179.577C1079.9 179.517 1079.84 179.453 1079.78 179.385C1079.16 178.66 1078.14 177.479 1078.49 176.117C1077.57 175.98 1077.45 175.348 1077.33 174.681C1077.24 174.212 1077.15 173.726 1076.78 173.382C1076.25 172.903 1075.81 172.369 1075.36 171.829C1074.68 171.011 1073.99 170.179 1073 169.502C1070.93 168.094 1068.97 166.266 1068 163.547C1067.8 162.964 1067.52 162.386 1067.25 161.808L1067.25 161.807C1066.56 160.331 1065.87 158.858 1066.26 157.307C1066.9 154.801 1067.09 152.315 1067.26 149.794L1067.29 149.291L1067.29 149.289L1067.3 149.217C1067.3 149.09 1067.3 148.94 1067.36 148.85C1068.21 147.695 1068.42 146.352 1068.64 145.004C1068.8 143.991 1068.96 142.975 1069.39 142.033C1069.54 141.703 1069.57 141.334 1069.6 140.958C1069.65 140.312 1069.7 139.648 1070.38 139.127C1070.82 138.79 1070.86 137.614 1070.46 137.164C1070.28 136.958 1070.09 136.744 1069.91 136.528C1068.92 135.389 1067.89 134.191 1066.61 133.681C1065.16 133.104 1065.05 132.323 1064.89 131.241C1064.88 131.114 1064.86 130.984 1064.84 130.849C1064.7 129.962 1065.06 129.293 1065.43 128.623C1065.71 128.116 1065.98 127.609 1066.04 127.007C1066.16 125.905 1065.84 124.897 1065.54 123.918C1065.28 123.113 1065.04 122.328 1065.04 121.523C1065.05 120.532 1064.66 119.669 1064.29 118.818C1063.85 117.829 1063.42 116.857 1063.61 115.718C1063.62 115.655 1063.54 115.585 1063.46 115.509C1063.39 115.449 1063.32 115.387 1063.28 115.321C1063.12 115.012 1062.94 114.708 1062.76 114.404L1062.76 114.402C1062.14 113.345 1061.51 112.285 1061.51 110.976C1061.5 108.321 1061.5 105.666 1061.49 103.011V102.95C1061.48 95.8725 1061.46 88.7948 1061.48 81.7171C1061.48 80.2372 1062.37 79.0652 1063.23 77.929L1063.38 77.732C1064.94 75.6645 1067.09 74.6308 1069.58 74.1738C1069.95 74.1064 1070.18 73.9267 1070.46 73.612C1071.67 72.2234 1072.06 70.4043 1072.42 68.7705L1072.42 68.7688C1072.48 68.4996 1072.53 68.2354 1072.59 67.9789C1072.69 67.5744 1072.81 67.156 1072.94 66.7275C1073.5 64.8157 1074.13 62.703 1072.37 60.7203C1070.48 60.3158 1068.43 59.724 1066.59 58.3682C1066.16 58.0445 1066.06 57.6377 1065.96 57.2373C1065.86 56.8592 1065.77 56.4869 1065.4 56.1958C1064.83 55.7484 1064.46 55.1007 1064.1 54.4497C1063.54 53.4444 1062.97 52.4314 1061.62 52.1358C1061.7 51.2869 1061.34 50.5584 1060.99 49.8375C1060.66 49.178 1060.34 48.5247 1060.36 47.7911C1060.39 46.6423 1059.93 45.671 1059.46 44.6985C1059.17 44.0984 1058.88 43.4978 1058.71 42.8547C1058.51 42.1056 1058.17 41.0644 1057.71 40.2329C1057.53 39.8917 1057.32 39.5615 1057.12 39.2345L1057.12 39.2335C1056.11 37.6155 1055.16 36.0759 1056.68 33.6709C1058.18 31.2888 1060.04 30.3 1062.44 29.948C1064.68 29.6244 1066.86 30.0406 1069.05 30.4586C1070.82 30.7954 1072.59 31.1334 1074.4 31.0866C1075.29 31.0641 1076.51 32.0154 1077.49 32.7945C1079.34 34.2719 1080.96 35.9731 1082.58 37.67C1083.02 38.124 1083.45 38.5778 1083.89 39.0269C1085.09 40.2703 1086.38 41.9258 1086.44 43.6637C1086.49 45.37 1086.8 47.0419 1087.12 48.7114C1087.52 50.8605 1087.92 53.0055 1087.76 55.2146C1087.75 55.3298 1087.8 55.4483 1087.84 55.5724C1087.87 55.6339 1087.89 55.6968 1087.91 55.7614C1088.9 56.1584 1090.37 56.3906 1090.81 55.8363C1091.47 54.9956 1092.35 54.7978 1093.24 54.5977C1093.86 54.4591 1094.48 54.3193 1095.04 53.9636C1095.25 53.8319 1095.45 53.704 1095.66 53.5778C1097.54 52.4049 1099.2 51.3785 1099.22 48.7949C1099.22 48.4653 1099.33 48.1956 1099.65 48.0234C1100.41 47.6188 1100.28 46.7574 1100.03 46.3454C1098.94 44.5956 1099.05 42.7399 1099.16 40.8867C1099.21 39.995 1099.27 39.1038 1099.19 38.2253C1099.14 37.686 1099.33 37.1841 1099.65 36.6523C1100.69 34.9369 1100.44 32.9218 1100 31.1765C1099.95 30.955 1099.82 30.7391 1099.68 30.5102C1099.4 30.0345 1099.08 29.5029 1099.31 28.7494C1099.89 28.7494 1100.46 28.7511 1101.04 28.7527C1102.21 28.7561 1103.39 28.7594 1104.56 28.7494C1105.43 28.7419 1105.91 29.2064 1105.95 29.9854C1106.02 31.2106 1106.25 32.4086 1106.48 33.6107L1106.48 33.6118C1106.78 35.158 1107.07 36.7111 1107.04 38.3377C1106.89 45.0492 1106.99 51.7673 1107.1 58.4857L1107.12 59.9937C1107.13 60.3628 1107.12 60.7313 1107.12 61.0996C1107.1 62.7869 1107.08 64.4677 1108.01 66.1587C1108.81 67.6119 1109.54 68.4658 1111.18 68.5332C1111.29 68.5379 1111.39 68.5359 1111.5 68.5338C1111.93 68.5259 1112.37 68.5177 1112.75 68.8928C1113.38 69.5118 1114.03 70.113 1114.68 70.7138L1114.68 70.7146C1115.91 71.8587 1117.14 73.0017 1118.23 74.2637C1118.47 74.5364 1118.74 74.7999 1119.01 75.0666L1119.01 75.0676C1119.8 75.8263 1120.61 76.6105 1120.68 77.702C1120.83 79.9973 1120.8 82.3066 1120.77 84.6152C1120.76 85.2224 1120.75 85.8295 1120.75 86.4363C1120.75 86.7884 1120.57 87.2004 1120.34 87.4701C1120.05 87.8033 1119.76 88.1423 1119.48 88.4814C1118.61 89.5221 1117.73 90.5626 1116.65 91.4327C1114.43 93.223 1114.49 94.7287 1116.06 97.358C1116.2 97.5893 1116.39 97.7837 1116.58 97.9817C1116.93 98.3479 1117.29 98.7263 1117.39 99.373C1117.86 102.242 1119.87 104.115 1122.5 104.924C1124.16 105.433 1125.12 106.332 1125.26 107.785C1125.28 107.949 1125.3 108.114 1125.32 108.281V108.282C1125.51 110.085 1125.72 111.991 1123.4 113.081C1122.53 113.493 1121.72 114.295 1121.75 115.681C1121.81 118.242 1119.86 120.572 1117.35 121.284C1117.33 121.632 1117.3 121.988 1117.26 122.349L1117.26 122.351C1117.13 123.804 1116.99 125.309 1117.64 126.497C1118.6 128.265 1119.1 130.153 1119.48 131.981C1119.64 132.723 1119.89 133.447 1120.15 134.173L1120.15 134.175C1120.67 135.638 1121.18 137.105 1120.89 138.722C1120.87 138.835 1120.92 139 1121 139.074C1122.1 140.083 1121.97 141.238 1121.84 142.367C1121.79 142.756 1121.75 143.141 1121.75 143.516C1121.48 143.587 1121.22 143.634 1120.97 143.677C1120.48 143.764 1120.06 143.839 1119.74 144.063C1118.17 145.202 1116.35 145.689 1114.52 146.041C1112.98 146.341 1111.48 146.812 1110.49 147.914C1109.17 149.389 1110.18 151.494 1110.91 152.49C1111.65 153.506 1111.57 154.313 1111.48 155.189C1111.45 155.503 1111.42 155.825 1111.42 156.169C1109.72 156.326 1108.82 155.358 1107.92 154.396C1107.63 154.076 1107.33 153.756 1107 153.479C1106.79 153.297 1106.62 153.008 1106.45 152.719C1106.1 152.103 1105.75 151.49 1104.92 151.929C1104.36 152.228 1103.43 153.007 1103.6 154.161C1103.69 154.76 1103.66 155.427 1103.32 156.004C1102.31 157.749 1101.55 159.652 1101.43 161.622C1101.32 163.435 1101.28 165.195 1102.2 167.128L1102.33 167.39C1102.97 168.729 1103.75 170.361 1103.8 172.124C1103.84 173.255 1104.47 174.641 1105.07 175.6C1106.15 177.3 1106.45 179.233 1106.88 180.993C1107.35 182.873 1108.54 184.551 1108.46 186.664C1108.43 187.338 1109.51 188.409 1111.04 188.379C1117.56 188.229 1124.09 188.297 1130.63 188.304C1131.8 188.304 1132.85 188.424 1134.01 189.031C1135.22 189.66 1136.7 189.967 1138.07 190.394C1139.78 190.933 1141.64 190.799 1143.47 191.39C1146.28 192.289 1149.41 191.488 1152.37 192.686C1154.01 193.353 1156.13 192.814 1158.02 192.874C1159 192.904 1159.92 192.874 1160.85 193.615C1161.62 194.237 1163.14 194.334 1163.87 193.548C1165.13 192.199 1166.48 191.555 1168.28 191.645C1168.94 191.675 1169.72 191.39 1169.69 190.649C1169.57 188.117 1171.21 185.96 1171 183.383C1170.61 178.424 1172.7 173.63 1172.21 168.641C1172.18 168.401 1172.24 168.124 1172.36 167.907C1173.41 165.892 1174.2 163.794 1174.33 161.494C1174.4 160.229 1173.93 158.506 1174.59 157.794C1176.74 155.449 1176.38 152.318 1177.61 149.711C1178.42 148.026 1177.9 145.936 1178.71 143.973C1179.57 141.906 1178.88 139.404 1179.92 137.112C1180.67 135.471 1180.23 133.471 1180.99 131.576C1181.85 129.434 1181.27 126.894 1182.2 124.512C1183 122.475 1182.65 120.078 1183.24 117.793C1184.11 114.415 1184.18 110.729 1184.35 107.253C1184.63 101.485 1185.86 95.8149 1185.82 90.0319C1185.82 89.7847 1185.79 89.4776 1185.91 89.2829C1187.29 87.0131 1189.34 85.5524 1191.72 84.4588C1193.62 83.5898 1195.37 82.1516 1195.86 80.2939C1196.45 78.099 1196.09 75.657 1196.09 73.3199C1196.09 72.406 1195.53 71.994 1194.64 71.9641C1191.86 71.8667 1190.63 69.5595 1189.41 67.7168C1188.51 66.3459 1187.33 65.3122 1186.38 64.0462C1184.84 61.9938 1182.32 61.1623 1180.78 58.7502C1179.24 56.3382 1178.82 54.1733 1178.92 51.6115C1178.94 51.0272 1179.12 50.6377 1179.64 50.1133C1181.08 48.6751 1182.32 47.3417 1184.45 46.645C1186.98 45.821 1189.43 44.7274 1192.1 44.6525C1194.59 44.5851 1197 44.5401 1199.52 45.5439C1201.54 46.3452 1203.21 47.4875 1204.92 48.6489L1205.11 48.7799C1207.58 50.4654 1209.56 52.7351 1211.6 54.8999C1212.78 56.1659 1214.14 57.3345 1214.44 59.4019C1214.87 62.3608 1213.87 64.5706 1211.72 66.286C1210.88 66.9602 1210.64 67.8741 1211.05 68.286C1211.76 68.9977 1212.45 70.0913 1213.89 69.7468C1214.93 69.4996 1215.3 68.9902 1215.52 67.9864C1215.86 66.3459 1216.31 64.6081 1216.95 63.1848C1217.88 61.1248 1218.06 58.9375 1218.76 56.87C1219.3 55.267 1219.86 53.5366 1220.39 51.9485C1221.05 49.9785 1222.1 48.0833 1222.52 46.0458C1224.93 44.8248 1226.8 46.7274 1228.88 47.2368C1229.57 47.4016 1231.13 48.6601 1230.14 49.8586C1229.18 51.0347 1228.31 52.1508 1227.64 53.5366C1226.94 54.9674 1225.81 56.1734 1225.72 57.8813C1225.7 58.3158 1225.7 58.8851 1225.44 59.1472C1224.02 60.563 1224.28 62.6005 1223.65 64.2785C1223.06 65.874 1222.55 67.7467 1222.01 69.3797C1221.21 71.8517 1220.81 73.7394 1222.15 76.1739C1223.31 78.2788 1225.17 79.7845 1226.21 82.0317C1227.08 83.882 1228.12 85.7622 1228.97 87.6274C1229.45 88.6761 1230.75 89.5825 1230.32 91.0357C1231.64 91.3354 1231.07 93.0732 1232.15 93.5077C1235 94.6538 1237.49 96.3467 1239.9 98.2044C1243.02 100.616 1245.25 103.53 1245.21 107.703C1245.2 108.594 1245.26 109.471 1245.86 109.913L1245.48 111.158C1244.94 112.957 1244.41 114.679 1243.86 116.46C1242.25 116.063 1241.35 117.943 1239.75 117.718C1239.74 118.684 1238.35 118.654 1238.35 119.636V131.037C1240.03 132.085 1240.84 130.333 1242.09 130.033L1242.12 130.026C1243.37 129.728 1244.95 129.354 1245.77 128.692C1247.48 127.299 1249.02 128.13 1250.67 127.906L1250.68 128.003C1250.81 129.336 1250.9 130.262 1249.89 131.351C1248.95 132.37 1247.73 132.7 1246.75 133.494C1246.15 133.981 1245.61 134.662 1244.57 134.722C1242.65 134.85 1240.95 136.213 1238.9 135.921C1238.63 135.883 1238.53 136.16 1238.36 136.325C1237.16 137.471 1236.14 138.677 1235.37 140.213C1234.93 141.104 1234.92 141.704 1235.27 142.423C1236.63 145.284 1235.87 148.303 1235.99 151.255C1235.99 151.374 1235.96 151.554 1235.87 151.599C1234.27 152.49 1232.84 153.794 1230.92 153.989C1228.8 154.198 1227.22 155.861 1226.95 157.981C1226.69 159.989 1227.85 161.749 1227.85 163.584C1227.85 165.974 1229.58 167.854 1229.32 170.214C1229.3 170.326 1229.4 170.454 1229.46 170.566L1229.61 170.837C1230.49 172.483 1231.37 174.125 1231.47 176.049C1231.49 176.356 1231.54 176.618 1231.74 176.911C1232.8 178.446 1233.18 180.289 1233.63 182.034C1234.04 183.615 1234.63 185.195 1235.32 186.529C1236.62 189.053 1237.28 191.765 1238.11 194.394C1238.57 195.87 1239.11 196.492 1240.43 196.312C1242.83 195.982 1245.2 196.874 1247.05 197.713C1249.57 198.859 1252.18 198.514 1254.69 199.353C1257.62 200.334 1261.08 199.69 1264.32 199.735C1265 199.743 1265.42 199.623 1265.89 198.844C1267.02 196.979 1268.66 195.877 1271.15 196.17C1273.61 196.462 1276.06 196.799 1278.5 197.106C1282.64 197.623 1286.66 198.402 1290.73 199.368C1294.48 200.26 1298.35 201.443 1302.35 200.776L1302.48 200.757C1302.85 200.699 1303.19 200.646 1303.57 200.424C1304.81 199.698 1306.05 198.971 1307.4 198.424C1308.32 198.05 1309.59 197.69 1310.06 197.061C1311.38 195.301 1312.36 193.173 1312.43 190.963C1312.6 185.907 1312.47 180.836 1312.49 175.772C1312.49 175.03 1312.38 174.259 1312.83 173.577L1312.9 173.47C1313.83 172.052 1314.77 170.626 1314.81 168.836C1314.83 168.012 1314.95 167.322 1315.65 166.648C1316.76 165.584 1317.5 164.079 1318.04 162.73C1319.08 160.139 1320.02 157.262 1320.2 154.603C1320.49 150.55 1321.93 146.663 1321.65 142.558C1321.58 141.543 1321 141.052 1320.42 140.567L1320.32 140.475C1319.45 139.734 1318.85 137.943 1319.64 137.239C1322 135.112 1323.73 132.445 1325.81 130.093C1326.46 129.366 1326.38 128.28 1325.63 128.1C1324.6 127.853 1323.99 127.157 1323.27 126.632L1323.11 126.518C1322.11 125.788 1320.87 124.886 1320.66 123.876C1320.29 122.085 1319.93 120.287 1319.54 118.49C1318.88 115.478 1319.37 112.385 1318.47 109.253C1317.45 105.703 1318.32 101.965 1320.47 98.7138C1321.46 97.2306 1322.24 95.6051 1323.13 94.0845C1323.86 92.8335 1324.66 91.4402 1324.87 90.2342C1325.15 88.6386 1325.78 87.0356 1326.45 85.9045C1327.67 83.8295 1328.44 81.365 1330.5 79.7096C1331.13 79.2077 1331.32 77.4399 1330.39 76.6308C1329.41 75.7769 1328.16 75.1327 1326.66 75.3499C1326.09 75.4323 1325.58 75.1776 1324.98 74.6383C1323.7 73.4922 1323.68 71.8667 1322.9 70.5708C1322.54 69.949 1321.58 69.7093 1321.67 68.7205C1321.86 66.6605 1320.89 64.8777 1320.32 63.4919C1317.87 61.4394 1314.79 62.1136 1312.5 60.3008C1312.64 59.5368 1312.46 58.9375 1313.38 58.0686C1315.09 56.4655 1316.82 54.7951 1318.4 53.0048C1319.74 51.4766 1321.07 49.6863 1323.32 48.8773C1324.11 48.5927 1325.25 48.3155 1325.96 47.6413C1327.37 46.293 1329.49 47.1544 1330.91 45.896C1331.16 45.6787 1331.77 45.8285 1332.06 46.3005C1332.38 46.8023 1332.93 46.8023 1333.43 46.8023C1336.65 46.8098 1338.92 48.7949 1341.08 50.75C1344.05 53.4542 1347.29 55.8513 1349.9 58.915C1348.88 60.7278 1346.56 60.4282 1345.04 61.6417C1344.55 62.0387 1344.13 62.6679 1343.32 62.8852C1341.89 63.2747 1341.14 64.3309 1340.99 65.9789C1340.85 67.3872 1341.84 68.2186 1342.34 69.1325C1343.05 70.4284 1344.31 72.009 1346.08 71.7993C1347.74 71.6045 1349.38 70.9153 1350.81 69.9565C1352.78 70.9078 1354.84 71.7843 1356.46 73.23C1358.57 75.1177 1360.94 75.5447 1363.62 75.4248C1366.15 75.3125 1368.69 75.4698 1371.23 75.4023C1372.79 75.3649 1374.14 76.2413 1375.08 77.0279C1376.7 78.3912 1378.76 80.174 1376.57 82.7583C1376.5 82.8333 1376.54 83.0055 1376.54 83.1329C1376.22 86.2715 1376.59 89.4177 1375.52 92.5788C1374.79 94.7512 1375.28 97.343 1375.25 99.755C1375.22 100.909 1375.59 101.688 1376.96 101.65C1377.49 101.635 1378.02 101.695 1378.53 102.085C1381.05 103.995 1381.73 107.036 1383.18 109.59C1384.1 111.209 1384.93 112.842 1386.19 114.257C1388.31 116.639 1389.89 119.291 1390.06 122.632C1390.12 123.823 1388.99 124.437 1389.05 125.598C1389.16 127.464 1388.25 128.947 1386.99 130.258C1386.45 130.82 1386.56 134.16 1387.08 134.76C1388.03 135.838 1388.12 139.029 1387.39 140.161C1385.97 142.37 1384.07 144.206 1382.96 146.715C1382.51 147.719 1382.51 149.157 1381.3 150.138C1380.75 150.58 1379.12 152.318 1380.1 153.577C1381.22 155.037 1380.79 156.536 1381.03 158.034C1381.46 160.708 1382.55 163.277 1382.3 166.064C1382.27 166.423 1382.73 166.513 1382.85 166.753C1383.62 168.229 1383.08 169.854 1383.3 171.39C1383.44 172.341 1382.57 172.206 1382.21 172.611C1381.28 173.652 1379.87 174.079 1379.16 175.495C1378.82 176.177 1378.84 176.896 1378.48 177.525C1377.45 179.308 1378.14 181.637 1379.93 182.574C1382.52 183.937 1383 186.858 1381.23 189.36C1380.58 190.289 1379.3 191.166 1380.11 192.694C1381.21 194.761 1382.15 196.926 1383.38 198.911C1383.96 199.848 1384.2 201.046 1384.93 201.75C1386.89 203.66 1388.42 206.042 1391.1 207.226C1392.01 207.623 1392.8 207.735 1393.25 207.151C1393.76 206.514 1394.29 206.574 1394.87 206.469C1398.33 205.848 1401.76 207.346 1405.22 206.642C1405.61 206.559 1405.88 207.024 1406.12 207.099C1407.47 207.533 1408.41 208.994 1409.91 208.822C1412.57 208.514 1414.85 209.885 1417.28 210.162C1417.73 211.219 1417.28 212.312 1417.88 213.211H1429.9C1430.09 212.095 1430.18 211.121 1429.77 210.117L1428.99 210.03C1428.2 209.942 1427.43 209.856 1426.67 209.765C1426.58 209.518 1426.51 209.264 1426.43 209.016C1428.04 209.114 1428.91 207.705 1430.46 207.698C1433.63 207.675 1436.8 207.66 1439.97 207.646L1440 207.593ZM598.227 110.19C598.917 108.504 599.854 106.864 600.672 105.089L600.679 105.096C601.819 105.141 603.072 104.534 604.009 105.95C604.227 106.272 605.232 106.205 605.832 106.1C607.309 105.83 608.374 106.602 609.342 107.463C611.269 109.171 613.782 108.759 615.402 106.654C616.797 104.841 618.484 103.238 620.074 101.575C621.049 100.564 621.604 99.343 622.009 98.0247C622.047 97.9123 622.039 97.7775 622.024 97.6501C621.477 93.0882 623.427 88.766 623.262 84.234C623.209 82.8707 625.054 81.2452 626.472 81.1029C627.109 84.8108 625.414 88.8634 628.302 92.4065C628.842 92.429 629.652 92.4889 630.469 92.5039C631.504 92.5189 631.872 91.9646 632.457 91.0507C634.017 88.6087 633.064 85.9794 633.612 83.2752C634.909 83.5823 635.412 84.5262 635.637 85.6124C635.794 86.4139 635.727 87.2528 635.757 88.0768C635.877 91.2979 637.377 93.0358 640.534 93.68C641.577 93.8897 642.162 95.1856 643.617 94.7961C643.212 96.3467 644.352 97.2231 645.034 98.0022C645.972 99.0734 646.002 100.115 646.009 101.291C646.032 103.373 646.024 105.463 646.047 107.553C646.077 109.965 645.634 112.257 645.019 114.624C644.404 116.999 644.877 119.651 644.892 122.183C644.899 122.864 646.257 126.175 646.782 126.932C646.887 127.082 647.022 127.276 646.999 127.434C646.632 129.928 648.049 132.078 648.432 134.445C648.852 137.014 649.024 139.741 650.322 142.138C650.382 142.251 650.434 142.378 650.434 142.498C650.487 146.266 652.249 149.809 651.792 153.697C651.649 154.955 650.907 155.682 650.247 156.079C649.452 156.558 648.162 156.506 647.209 155.891C646.917 155.704 646.752 155.307 646.317 155.3C642.094 155.21 637.902 152.873 633.799 154.281C631.227 155.165 628.542 154.76 625.999 156.049C622.407 157.869 618.259 157.966 614.284 157.345C612.522 157.067 610.939 155.884 609.379 154.888C607.009 153.374 604.894 151.517 603.289 149.292C602.232 147.831 601.002 146.438 600.274 144.693C599.509 142.85 598.257 141.209 597.492 139.367C596.644 137.337 595.399 135.501 594.402 133.576C593.532 131.898 593.584 130.108 592.804 128.445C591.942 126.602 591.904 124.13 593.044 122.085C593.449 121.351 593.434 120.632 593.449 119.905C593.479 117.995 594.859 116.639 595.384 115.021C595.999 113.134 597.499 111.958 598.227 110.19ZM383.54 102.669C384.973 102.871 386.023 102.369 386.72 101.253L386.728 101.261C384.913 98.3767 386.248 95.4403 385.738 92.7137C389.353 91.987 389.87 92.4665 390.575 97.1557C392.75 97.0059 394.633 94.886 397.123 96.092C397.123 98.6389 397.618 101.478 396.935 104.002C396.523 105.538 396.095 107.276 395.42 108.856C394.753 110.422 393.725 112.047 393.785 113.92C393.83 115.373 394.903 116.37 395.45 117.598C395.578 117.883 395.9 118.242 396.05 118.624C396.515 119.823 398.533 120.415 399.418 119.523C401.668 117.269 404.368 115.538 406.73 113.388C407.915 112.31 409.513 111.149 411.328 110.512C412.768 110.003 414.335 109.141 415.453 108.017C416.143 107.328 416.72 107.441 417.733 107.261C417.718 110.13 418.483 112.939 416.885 115.591C416.795 115.748 416.735 115.95 416.735 116.13C416.713 121.111 414.673 125.913 415.4 130.962C415.513 131.711 415.978 132.123 416.36 132.685C417.65 134.572 418.408 136.745 418.985 139.044C419.69 141.846 419.533 144.842 420.913 147.487C421.13 147.906 421.048 148.475 421.108 148.977C421.385 151.374 421.093 153.756 422.008 156.191C422.795 158.296 421.475 160.566 419.803 161.981C418.28 163.262 416.263 163.847 414.275 164.476C412.318 165.105 409.798 165.06 408.493 167.307C408.103 167.989 404.135 167.779 403.085 167.18C401.758 166.423 400.49 166.229 399.133 167.247C398.548 167.682 397.843 168.056 397.078 167.023C396.448 166.169 394.94 166.581 394.078 165.599C393.703 165.165 392.765 165.442 392.42 164.461C392.27 164.034 391.033 163.966 390.395 164.528C389.503 165.322 384.546 167 383.728 166.251C382.888 165.487 383.96 163.539 382.903 162.88C383.375 159.172 384.44 155.779 382.693 152.333C382.086 151.142 381.823 149.696 381.576 148.52C381.118 146.326 380.001 144.288 380.001 141.936C379.993 139.591 379.146 137.359 378.096 135.239C378.013 135.067 377.938 134.88 377.923 134.7C377.578 129.269 375.718 123.846 376.933 118.46C377.383 116.467 377.488 114.25 378.568 112.212C379.258 110.909 379.843 109.171 380.241 107.531C380.616 106.002 381.171 104.294 382.341 102.991C382.715 102.564 383.165 102.617 383.54 102.669ZM258.006 67.6868C258.306 67.492 258.524 67.3946 259.094 67.522H259.109C258.824 69.1175 259.821 70.8854 258.261 72.3461C258.179 72.421 258.141 72.5708 258.141 72.6907C258.134 74.9304 257.451 77.0353 256.926 79.1927C256.199 82.1815 255.996 85.2977 254.691 88.1442C254.661 88.2042 254.639 88.2716 254.646 88.3315C255.134 91.3204 253.289 93.9796 253.424 96.901C253.521 99.0284 252.104 100.459 251.324 102.332C252.509 105.208 254.946 106.295 258.074 106.175C259.356 106.122 259.859 107.808 261.381 107.201V126.355C261.636 126.475 261.764 126.595 261.854 126.572C265.544 125.763 267.509 128.258 269.376 130.655C271.484 133.359 272.826 136.483 274.244 139.606C275.264 141.846 276.231 144.198 277.079 146.453C278.099 149.165 279.389 152.221 278.391 155.262C277.694 157.397 276.411 159.397 274.536 160.775C273.074 161.847 271.664 163.12 269.661 163.202C266.811 163.322 266.129 162.738 265.994 159.921C265.956 159.172 265.874 158.431 265.821 157.809C263.999 156.603 263.024 158.363 262.859 159.075C262.551 160.378 261.561 160.85 260.864 161.734C259.964 161.038 258.891 160.558 258.846 159.09C258.824 158.513 257.924 158.543 257.384 158.528C256.724 158.513 256.004 158.745 255.876 159.442C255.621 160.835 254.331 161.847 254.526 163.42C254.654 164.468 253.499 164.94 252.929 165.285C250.266 166.903 247.244 166.573 244.214 166.506C244.244 165.465 244.056 164.693 245.279 164.139C246.741 163.472 247.026 161.614 247.454 160.311C247.799 159.255 248.406 158.438 248.939 157.622C250.214 155.659 250.191 153.262 249.269 151.21C247.559 147.389 244.454 144.625 242.264 141.202C241.731 140.37 241.371 139.352 240.914 138.423C240.036 136.647 239.076 134.932 238.026 133.262C236.504 130.835 234.981 128.422 233.016 126.303C232.664 125.921 232.626 124.662 232.964 124.325C234.276 123.007 234.141 121.126 234.749 119.613C235.776 117.074 238.071 115.905 239.301 113.838C239.886 112.856 240.441 111.658 241.004 110.624C241.604 109.531 241.784 108.235 242.714 107.261C243.479 106.467 243.351 105.201 243.974 104.175C244.566 103.208 245.069 101.837 245.211 100.744C245.459 98.7812 246.374 97.3055 247.754 96.3093C248.901 95.4853 248.969 94.6238 248.826 93.5526C248.616 91.9871 248.901 90.6911 250.544 90.1068C251.151 89.8896 251.031 89.4252 251.054 89.0357C251.106 88.0843 251.234 87.1105 251.076 86.1891C250.544 83.0505 251.969 80.1965 252.531 77.2676C252.966 75.0203 254.271 72.6382 255.921 70.818C256.799 69.8441 256.859 68.4359 258.006 67.6868ZM143.032 125.568L143.029 125.568C145.318 129.026 144.652 132.455 145.177 135.711C145.424 137.209 146.077 138.865 147.374 139.981C148.057 140.573 148.942 140.258 149.729 140.265C152.107 140.295 152.414 141.089 153.074 143.307C153.974 146.356 153.614 149.524 154.372 152.476C155.159 155.547 156.479 158.476 156.449 161.742C156.419 164.536 155.767 165.202 152.962 165.427C150.119 165.652 148.019 167.307 146.227 169.322C145.297 170.364 144.517 170.259 143.692 169.435C142.942 168.686 141.592 168.888 141.082 167.727C141.022 167.592 139.979 167.622 139.859 167.839C138.817 169.749 137.107 168.626 135.704 168.828C135.457 168.865 135.202 168.828 134.947 168.828C129.832 168.783 128.954 168.071 130.364 163.12C131.122 160.468 130.664 157.757 131.512 155.33C132.592 152.228 131.969 149.09 132.524 146.056C132.802 144.543 133.222 142.835 134.324 141.524C134.969 140.752 135.382 139.651 135.629 138.887C136.387 136.543 137.819 134.505 138.352 132.011C138.772 130.033 139.612 127.973 140.587 126.108C141.223 124.897 142.524 125.446 143.029 125.568C143.027 125.565 143.026 125.563 143.024 125.561L143.032 125.568ZM1332.3 180.379C1333.95 179.083 1335.23 177.383 1337.17 176.326C1338.11 175.819 1338.75 175.661 1339.81 175.903L1339.81 175.884L1339.82 175.907L1339.81 175.904L1339.81 175.903C1339.84 178.173 1340.87 179.822 1341.99 181.617L1342 181.63C1343.03 183.285 1343.59 185.405 1343.4 187.622C1343.21 189.81 1344.84 190.911 1346.94 190.409C1347.39 190.304 1347.65 190.177 1347.87 189.675C1348.67 187.922 1349.87 187.735 1351.47 188.918C1352.33 189.563 1353.44 189.638 1354.41 190.169L1354.6 190.272C1356.5 191.305 1358.3 192.289 1359.86 193.87C1360.66 194.679 1360.65 195.713 1361.33 196.567C1362.32 197.795 1362.66 199.66 1363.83 200.979C1364.01 201.188 1363.94 201.818 1363.68 201.795C1362.4 201.69 1361.68 202.971 1360.4 202.956C1356.41 202.911 1352.42 202.986 1348.43 202.971C1347.8 202.971 1347.3 202.851 1346.72 202.207C1345.77 201.143 1344.37 200.372 1343.03 199.773C1341.49 199.083 1340 199.855 1338.94 200.889C1336.91 202.851 1334.59 201.638 1332.41 201.675C1332.06 201.683 1330.85 200.492 1330.91 199.443C1331.12 195.106 1329.49 190.993 1329.54 186.611C1329.57 183.862 1330.39 181.885 1332.3 180.379ZM95.8345 128.37C95.8345 125.037 96.4645 122.512 99.922 121.246C100.079 121.426 100.229 121.523 100.229 121.613C100.072 124.887 101.707 127.891 101.572 131.187C101.429 134.722 101.812 138.288 101.572 141.816C101.189 147.329 103.049 152.64 102.764 158.131C102.697 159.472 103.717 159.727 104.857 159.734C106.312 159.749 106.829 158.708 107.287 157.644C108.854 154.019 108.209 150.123 108.562 146.206C109.469 146.146 109.934 146.056 110.992 146.715C114.089 148.648 113.542 151.517 114.307 154.236C115.057 156.888 114.757 159.757 116.212 162.296C116.827 163.375 116.647 164.963 115.964 166.693C115.372 165.225 114.382 165.48 113.482 165.472C110.504 165.435 107.519 165.51 104.549 165.322C102.389 165.187 100.799 166.086 99.2395 167.367C98.3995 168.049 96.832 168.049 96.412 167.577C95.0545 166.041 93.4195 166.865 91.942 166.581C91.822 166.558 91.717 166.491 91.4545 166.378C91.792 164.82 90.1795 163.854 90.2245 162.176C90.3145 159.105 91.177 156.303 92.1895 153.442C92.722 151.929 93.3145 150.326 93.8095 148.805C94.522 146.603 94.1695 144.273 94.9345 142.28C96.697 137.681 95.8345 132.992 95.8345 128.37ZM450.793 122.347C451.115 120.797 452.683 119.658 451.94 117.823H451.925C452.833 117.576 453.388 117.561 453.95 117.748C454.308 118.388 454.251 119.109 454.199 119.772L454.198 119.786C453.98 122.744 455.323 125.449 455.69 128.333C456.013 130.864 458.008 133.134 460.43 134.782C461.54 135.539 462.523 135.801 463.715 135.831C465.515 135.868 466.603 134.872 466.723 132.999C466.828 131.359 466.805 129.711 466.888 128.07C466.955 126.767 467.758 126.01 468.823 125.246C469.445 127.591 470.263 129.516 471.17 131.449C471.755 132.692 472.198 134.348 472.235 135.576C472.34 138.902 473.488 142.011 473.908 145.247C474.268 147.966 474.56 150.843 475.587 153.577C476.503 156.011 476.323 158.88 475.775 161.457C475.55 162.513 474.155 163.45 473.098 164.131C472.445 164.551 471.605 164.611 470.878 165.202C469.918 165.996 468.148 165.202 467.045 163.817C468.343 162.453 468.058 160.288 467.15 158.596C465.98 156.423 464.405 154.535 463.168 152.416C462.358 151.022 461.375 149.599 460.393 148.243C459.74 147.344 459.298 146.101 459.133 145.247C458.833 143.711 458.06 142.4 457.52 141.074C456.763 139.217 456.058 137.209 454.7 135.621C454.048 134.857 453.823 133.823 453.41 132.999C451.775 129.703 449.96 126.34 450.793 122.347ZM452.975 158.161C453.208 161.629 452.99 165.15 454.7 168.783C452.751 168.783 450.891 168.781 449.088 168.78L448.445 168.779C445.238 168.776 442.207 168.774 439.175 168.783C438.163 168.791 437.263 167.704 437.285 167.412C437.42 165.757 436.745 164.251 435.905 163.187C434.09 160.888 435.68 157.914 434.008 155.682C433.715 155.292 433.843 154.58 433.828 154.011C433.745 150.221 433.693 146.423 433.595 142.633C433.558 141.232 433.775 139.756 432.695 138.625C434.233 137.172 435.223 138.782 435.688 139.389C436.498 140.43 437.413 140.423 438.283 140.221C441.02 139.584 442.408 141.367 444.02 142.992C446.06 145.045 447.508 147.547 449.27 149.801C449.908 150.618 450.26 152.131 450.943 153C452.113 154.483 451.348 156.588 452.863 157.816C452.938 157.876 452.968 158.041 452.975 158.161ZM956.372 170.071C957.055 171.525 955.862 172.573 955.007 173.225C953.053 174.714 952.511 176.852 951.629 179.051L951.64 179.053L951.625 179.06L951.629 179.051C950.169 178.849 948.479 179.865 947.088 178.117C946.75 177.697 945.513 178.027 944.703 177.944C942.693 177.742 940.488 178.476 938.74 176.933C937.885 176.177 937.368 175.263 936.978 174.057C935.703 170.169 936.64 166.026 935.628 162.281C934.645 158.64 935.088 155.082 934.683 151.509C934.6 150.775 934.705 150.063 933.985 149.457C933.393 148.955 933.58 148.078 934.12 147.614C934.63 147.187 935.148 147.442 935.86 147.794C938.65 149.165 940.728 151.479 943.308 153.12C945.273 154.371 946.6 156.566 948.408 158.116C950.523 159.944 951.917 162.356 953.867 164.289C954.542 164.963 954.182 166.004 955.022 166.835C955.638 167.457 955.855 168.978 956.372 170.071ZM676.834 155.367C676.691 158.603 676.841 158.611 673.399 158.558C672.469 158.588 671.479 158.655 670.362 159.427C668.359 160.805 665.367 159.105 664.099 157.09C662.989 155.33 663.552 153.509 662.967 151.876C661.294 147.217 662.892 142.31 661.819 137.749C660.919 133.936 661.572 129.928 659.937 126.288C659.352 124.999 660.244 123.913 661.017 123.419C662.216 122.647 661.962 124.857 663.019 124.857C662.929 126.819 664.602 127.666 665.757 128.61C668.112 130.542 669.064 133.112 670.144 135.786C670.594 136.902 670.781 138.325 671.854 139.149C672.319 139.509 672.169 139.928 672.236 140.325C672.529 142.108 673.264 143.696 674.224 145.202C674.291 145.307 674.389 145.434 674.374 145.539C674.126 147.696 676.061 149.314 675.761 151.539C675.589 152.843 676.901 153.854 676.834 155.367ZM1179.26 179.907C1180.25 178.266 1179.81 176.461 1180.21 174.491L1180.23 174.499C1183.36 175.113 1183.88 172.97 1184.99 170.851C1186.2 168.528 1186.8 166.011 1187.81 163.659C1188.46 162.161 1188.86 160.273 1189.45 158.678C1190.03 157.082 1189.92 155.142 1191.37 153.861C1191.95 153.344 1191.46 152.461 1192.12 151.704C1193.32 150.341 1194.56 150.475 1196.06 150.753C1196.35 152.453 1195.1 153.682 1194.67 155.075C1194.15 156.738 1193.72 158.655 1192.62 160.064C1191.81 161.097 1191.98 162.566 1190.85 163.36C1190.72 163.457 1190.6 163.682 1190.6 163.839C1190.77 166.716 1188.63 169.382 1189.52 172.199C1190 173.757 1189.94 175.652 1191.35 176.896C1191.42 176.961 1191.46 177.078 1191.49 177.181L1191.5 177.225C1193.2 182.356 1192.92 187.63 1192.64 192.904C1192.58 194.065 1189.4 196.626 1188.93 196.065C1187.85 194.754 1186.19 195.443 1185.17 194.581C1184.52 194.03 1183.88 193.985 1183.17 193.935L1183.1 193.93C1181.12 193.795 1180.23 192.881 1180.17 190.874C1180.11 188.978 1180.08 187.076 1180.02 185.18C1179.98 184.184 1180.06 183.21 1179.38 182.289C1178.89 181.622 1178.9 180.506 1179.26 179.907ZM1184.48 129.366C1184.52 129.329 1184.54 129.254 1184.54 129.194C1184.43 127.32 1185.13 125.643 1185.87 123.89L1185.88 123.858C1185.95 123.692 1186.02 123.526 1186.09 123.359H1186.08L1186.1 123.344L1186.09 123.359H1189.17C1189.14 125.149 1189.82 126.909 1188.32 128.28C1189.07 130.273 1190.92 131.808 1190.42 134.288C1190.16 135.591 1189.33 136.632 1188.95 137.898C1188.71 138.707 1188.23 139.591 1188.14 140.535C1188.05 141.412 1186.49 145.045 1186.09 146.445C1185.57 148.288 1184.56 149.816 1183.77 151.494C1182.97 153.217 1181.92 154.738 1180.88 156.236C1179.77 156.064 1180.01 155.262 1180.01 154.73C1180.02 152.648 1179.64 150.378 1180.34 148.528C1181.25 146.153 1180.72 143.636 1181.55 141.486C1182.28 139.591 1181.74 137.382 1182.65 135.981C1184.06 133.838 1182.7 131.202 1184.48 129.366ZM1207.54 180.132C1207.63 179.452 1207.55 178.757 1207.55 177.854C1209.48 178.319 1210.19 179.802 1210.89 181.105C1211.33 181.914 1211.72 182.319 1212.62 182.566C1214.87 183.188 1217.02 184.064 1218.62 185.9C1218.73 186.027 1218.94 186.184 1218.92 186.312C1218.62 189.038 1220.54 191.48 1219.99 194.199C1219.79 195.203 1219.07 196.042 1217.91 196.08C1215.95 196.14 1213.99 196.177 1212.03 196.087C1210.12 195.997 1208.6 194.447 1208.68 192.589C1208.87 188.379 1207.01 184.371 1207.54 180.132ZM835.218 163.899C833.411 159.869 834.888 155.884 834.558 151.891C836.096 152.753 836.193 154.251 836.823 155.382C837.911 157.322 837.281 159.532 838.578 161.435C839.448 162.708 838.923 164.731 838.856 166.506C836.613 166.895 836.036 165.719 835.218 163.899ZM76.4321 156.536C76.4246 158.348 78.4796 159.652 77.7221 161.315L77.7146 161.307C77.6771 162.146 77.6396 162.648 77.6396 163.15C77.6321 164.296 77.4671 165.555 76.0346 165.352C75.0896 165.217 74.3096 164.341 74.1896 163.113C73.9721 160.85 74.3396 158.73 75.3296 156.693C75.4496 156.446 75.5396 156.266 75.8246 156.236C76.1021 156.206 76.4321 156.296 76.4321 156.536ZM592.609 60.6604C594.334 60.3832 596.194 60.4057 598.009 60.6079V60.6005C598.399 61.3346 598.002 61.9338 598.077 62.608C597.184 63.035 596.074 62.7054 595.377 63.7017C595.137 64.0462 594.139 64.0837 593.502 63.5144C592.654 62.7578 591.747 62.0911 592.609 60.6604ZM354.988 43.7236C357.111 42.4202 358.551 44.5776 360.538 44.7873C360.598 45.4615 360.651 46.0158 360.703 46.6375C359.676 47.0346 358.416 47.1544 357.771 46.6675C356.946 46.0458 356.166 45.7012 355.221 45.6038C354.898 44.9596 354.928 44.3379 354.988 43.7236ZM263.466 76.5634C264.134 80.7883 263.586 82.6984 261.411 83.3052C261.411 81.5523 261.449 79.9717 261.404 78.3987C261.366 76.923 261.989 76.2863 263.466 76.5634ZM1097.3 57.1172C1097.3 57.1188 1097.29 57.1204 1097.29 57.122C1098.09 58.1746 1099.81 58.5582 1098.83 60.3682C1097.49 60.7428 1096.08 60.7053 1094.69 60.4506C1094.32 59.7914 1094.55 59.1697 1094.48 58.4581C1095.49 58.1664 1096.56 58.054 1097.29 57.122C1097.29 57.1204 1097.29 57.1188 1097.29 57.1172H1097.3ZM278.504 32.8469C279.014 31.9106 280.004 31.2064 279.704 29.933C280.596 29.7757 281.181 29.8206 282.044 30.2027C280.769 30.9443 280.791 32.0679 280.686 33.0941C279.899 33.2514 279.239 33.2814 278.504 32.8469ZM91.4845 83.6497C93.277 82.646 93.682 84.4812 95.047 85.1554H95.0395C93.6295 85.9045 92.632 85.7622 91.5895 85.3876C91.2895 84.8258 91.357 84.234 91.4845 83.6497Z" fill="#272829"/>
</svg>
