<svg width="234" height="160" viewBox="0 0 234 160" fill="none" xmlns="http://www.w3.org/2000/svg">
<path d="M204.632 103.524C204.632 99.0665 202.78 95.0303 199.78 92.0466C201.715 89.3712 202.851 86.1362 202.851 82.6436C202.851 76.6941 199.556 71.4913 194.622 68.5583C194.627 68.3999 194.647 68.2489 194.647 68.0879C194.647 61.2894 190.352 55.4508 184.209 52.8817C181.672 46.6933 175.368 42.3047 167.976 42.3047C167.635 42.3047 167.298 42.3351 166.962 42.3548C165.691 36.0004 159.838 31.1958 152.799 31.1958C144.898 31.1958 138.488 37.2502 138.386 44.7556H138.376V141.384H138.396C138.62 151.696 148.097 160 159.772 160C166.479 160 172.456 157.259 176.383 152.976C177.568 153.218 178.8 153.354 180.063 153.354C189.694 153.354 197.5 145.916 197.5 136.743C197.5 135.712 197.388 134.706 197.198 133.728C201.69 130.722 204.632 125.759 204.632 120.136C204.632 117.106 203.768 114.275 202.281 111.827C203.768 109.384 204.632 106.552 204.632 103.524Z" fill="#A89372"/>
<path d="M150.119 140.449C149.326 138.121 149.548 135.556 150.775 132.792C151.394 133.233 152.09 133.54 152.882 133.631C153.079 133.651 153.275 133.664 153.472 133.664C157.796 133.664 162.908 128.71 163.501 128.124L161.796 126.398C160.333 127.849 155.904 131.5 153.15 131.222C152.68 131.167 152.307 130.943 151.965 130.633C152.106 130.402 152.192 130.18 152.345 129.948C161.535 115.969 161.147 113.898 154.548 107.334L153.806 106.596L152.09 108.31L152.838 109.055C158.382 114.567 159.091 115.273 150.319 128.61C147.643 132.681 146.795 136.509 147.59 140.047C147.073 139.915 146.548 139.844 146.002 139.903C143.437 140.059 141.815 142.181 141.749 142.276L143.693 143.725C143.703 143.715 144.714 142.41 146.148 142.326C147.088 142.274 148.073 142.77 149.07 143.781C152.311 148.89 158.711 151.135 159.018 151.244L159.806 148.951C159.73 148.923 152.099 146.241 150.119 140.449Z" fill="white"/>
<path d="M173.797 86.7681C172.429 92.6992 174.292 96.3552 176.814 98.8706C174.678 100.847 172.363 101.785 170.805 101.123C169.237 100.462 168.495 98.2171 168.712 94.7953C168.89 91.8834 168.1 89.4311 166.354 87.5068C162.871 83.6644 156.845 83.4145 156.589 83.4048L156.504 85.829C156.557 85.829 161.781 86.0608 164.567 89.1445C165.849 90.5604 166.43 92.4126 166.286 94.6443C165.908 100.75 168.359 102.725 169.859 103.358C170.495 103.628 171.188 103.758 171.914 103.758C174.061 103.758 176.485 102.553 178.667 100.462C179.567 101.145 180.477 101.747 181.294 102.276C182.189 102.848 183.028 103.382 183.699 103.942C185.421 105.376 187.42 107.56 187.127 109.795C186.857 111.879 184.574 113.973 180.528 115.855C179.972 116.114 179.524 116.407 179.045 116.693C177.307 113.373 175.229 111.405 172.829 111.005C169.374 110.468 166.788 113.179 166.678 113.293L168.449 114.951C168.471 114.933 170.251 113.066 172.429 113.396C174.097 113.675 175.692 115.348 177.085 118.146C175.802 119.347 175.005 120.695 174.834 122.225C174.285 127.18 180.055 131.67 180.302 131.861L181.779 129.937C180.406 128.874 176.909 125.477 177.246 122.489C177.436 120.786 178.885 119.29 181.553 118.052C186.455 115.774 189.14 113.104 189.533 110.11C189.879 107.437 188.437 104.738 185.25 102.075C184.514 101.458 183.594 100.868 182.609 100.235C178.758 97.7607 174.395 94.96 176.158 87.3153L173.797 86.7681Z" fill="white"/>
<path d="M187.806 85.9998C186.65 84.1096 187.216 80.8177 189.447 76.4789C191.371 72.7341 191.659 69.4489 190.301 66.7274C188.013 62.139 181.916 61.0325 181.66 60.9897L181.245 63.3765C181.294 63.3862 186.401 64.3313 188.135 67.8162C188.881 69.3173 188.901 71.1318 188.203 73.2252C186.116 71.5327 184.079 70.8441 182.106 71.2223C178.18 71.989 176.346 76.7104 176.271 76.9119L178.536 77.7715C178.548 77.7337 179.992 74.1072 182.57 73.6037C183.955 73.3207 185.504 74.0263 187.203 75.5688C184.623 80.6734 184.119 84.615 185.736 87.267C187.506 90.163 191.096 90.4753 192.559 90.4753V88.0512C191.508 88.0512 188.938 87.852 187.806 85.9998Z" fill="white"/>
<path d="M194.752 101.627L193.186 103.472C193.223 103.501 196.705 106.525 196.712 110.39C196.717 112.64 195.529 114.815 193.181 116.84L194.761 118.677C197.68 116.157 199.151 113.364 199.139 110.36C199.114 105.372 194.932 101.773 194.752 101.627Z" fill="white"/>
<path d="M145.146 62.1473L146.605 60.2052C145.549 59.4138 143.786 58.0931 143.946 56.7223C144.051 55.8153 145.102 53.9106 150.926 51.3779C155.175 49.5243 157.382 47.3133 157.489 44.7963C157.655 41.0882 153.221 38.5584 152.721 38.2838L151.556 40.4153C152.492 40.9288 155.15 42.8064 155.07 44.6917C155.004 46.1781 153.236 47.7242 149.958 49.1508C144.593 51.4861 141.839 53.8725 141.537 56.443C141.215 59.1966 143.773 61.113 145.146 62.1473Z" fill="white"/>
<path d="M168.111 63.6239C167.679 64.7568 165.6 66.614 156.594 66.2235C149.851 65.9639 145.947 66.9725 144.386 69.4311C142.466 72.4646 144.663 76.6752 146.791 80.7418C149.71 86.3254 151.234 89.8518 147.866 91.6335L149.002 93.7747C154.741 90.7348 151.527 84.5738 148.941 79.6202C147.132 76.1584 145.259 72.5832 146.437 70.7361C147.103 69.676 149.263 68.514 155.55 68.637C154.714 71.6515 154.887 73.7319 156.212 74.8464C156.897 75.423 157.764 75.6398 158.669 75.6398C160.923 75.6398 163.426 74.3098 164.055 73.949L162.862 71.8369C161.279 72.7393 158.57 73.6644 157.775 72.9888C157.328 72.616 157.243 71.2402 158.05 68.677C165.215 68.7883 169.264 67.4078 170.378 64.4875C170.91 63.089 170.608 61.5519 169.944 60.0498C171.159 59.824 172.227 59.388 172.98 58.5233C175.168 56.0187 174.295 51.8021 174.259 51.6277L171.89 52.1288C171.895 52.1619 172.529 55.3545 171.152 56.9307C170.615 57.5408 169.742 57.7853 168.664 57.7903C166.7 54.9405 163.935 52.5778 163.415 52.1522L161.881 54.0288C164.793 56.4102 169.062 61.1219 168.111 63.6239Z" fill="white"/>
<path d="M149.404 115.533L149.609 113.119C149.441 113.094 145.427 112.787 143.678 115.49C142.341 117.556 142.793 120.625 145.012 124.617L147.136 123.435C145.436 120.382 144.927 118.033 145.71 116.819C146.507 115.585 148.644 115.452 149.404 115.533Z" fill="white"/>
<path d="M154.599 57.3869C152.487 58.7637 152.687 61.9282 152.714 62.2857L155.131 62.0916C155.079 61.4184 155.206 59.8843 155.928 59.4185C156.509 59.048 157.726 59.2952 159.247 60.1295L160.413 57.998C157.974 56.675 156.028 56.4725 154.599 57.3869Z" fill="white"/>
<path d="M153.768 101.986C158.367 102.547 161.152 101.788 162.274 99.6844C163.757 96.9074 161.308 93.047 160.333 91.9121L158.494 93.4937C159.282 94.4081 160.872 97.1627 160.135 98.5428C159.569 99.5989 157.372 99.9818 154.055 99.5808C149.478 99.0296 146.295 99.7977 144.617 101.859C142.573 104.366 143.659 107.697 143.707 107.835L146.007 107.069C145.997 107.045 145.31 104.847 146.497 103.387C147.595 102.028 150.114 101.544 153.768 101.986Z" fill="white"/>
<path d="M179.709 141.616C178.553 141.85 177.431 141.817 176.387 141.649C177.355 140.189 177.726 138.65 177.455 137.05C176.636 132.268 170.282 128.917 170.014 128.78L168.895 130.93C170.439 131.739 174.555 134.48 175.063 137.464C175.265 138.645 174.819 139.782 173.846 140.928C171.853 140.132 170.509 139.076 170.488 139.055L169.886 138.562L169.188 138.904C163.183 141.812 160.508 138.308 160.394 138.161L158.423 139.572C158.462 139.628 162.142 144.622 169.57 141.394C170.88 142.304 174.087 144.213 177.955 144.213C178.672 144.213 179.406 144.151 180.158 144C184.157 143.208 187.528 140.287 190.191 135.306L188.049 134.162C185.755 138.464 182.948 140.968 179.709 141.616Z" fill="white"/>
<path d="M30.4517 103.524C30.4517 99.0665 32.3052 95.0303 35.3027 92.0466C33.3736 89.3712 32.2344 86.1362 32.2344 82.6436C32.2344 76.6941 35.5268 71.4913 40.4607 68.5583C40.4557 68.3999 40.439 68.2489 40.439 68.0879C40.439 61.2894 44.7334 55.4508 50.8743 52.8817C53.4131 46.6933 59.7151 42.3047 67.1092 42.3047C67.451 42.3047 67.7851 42.3351 68.1238 42.3548C69.392 36.0004 75.2453 31.1958 82.2836 31.1958C90.1852 31.1958 96.5971 37.2502 96.6993 44.7556H96.7094V141.384H96.6873C96.4628 151.696 86.9856 160 75.3111 160C68.6046 160 62.627 157.259 58.7028 152.976C57.5154 153.218 56.2836 153.354 55.0204 153.354C45.3896 153.354 37.5828 145.916 37.5828 136.743C37.5828 135.712 37.6974 134.706 37.8852 133.728C33.393 130.722 30.4517 125.759 30.4517 120.136C30.4517 117.106 31.3176 114.275 32.8027 111.827C31.3176 109.384 30.4517 106.552 30.4517 103.524Z" fill="#272829"/>
<path d="M84.9641 140.449C85.7589 138.121 85.5394 135.556 84.3103 132.792C83.6909 133.233 82.9936 133.54 82.2031 133.631C82.0034 133.651 81.8106 133.664 81.6105 133.664C77.2867 133.664 72.1751 128.71 71.5847 128.124L73.2896 126.398C74.7529 127.849 79.1813 131.5 81.9325 131.222C82.4056 131.167 82.7811 130.943 83.1179 130.633C82.9762 130.402 82.891 130.18 82.7374 129.948C73.5482 115.969 73.9381 113.898 80.535 107.334L81.2814 106.596L82.9936 108.31L82.2472 109.055C76.7037 114.567 75.9941 115.273 84.7666 128.61C87.4394 132.681 88.288 136.509 87.4955 140.047C88.01 139.915 88.5369 139.844 89.0808 139.903C91.6486 140.059 93.2679 142.181 93.3334 142.276L91.3927 143.725C91.383 143.715 90.3683 142.41 88.9344 142.326C87.9953 142.274 87.0127 142.77 86.0128 143.781C82.7714 148.89 76.3719 151.135 76.0649 151.244L75.2794 148.951C75.3526 148.923 82.9836 146.241 84.9641 140.449Z" fill="white"/>
<path d="M61.2855 86.7681C62.6563 92.6992 60.7931 96.3552 58.2687 98.8706C60.4052 100.847 62.7221 101.785 64.2803 101.123C65.8462 100.462 66.5926 98.2171 66.3754 94.7953C66.1927 91.8834 66.9851 89.4311 68.7338 87.5068C72.214 83.6644 78.2403 83.4145 78.4936 83.4048L78.5791 85.829C78.528 85.829 73.3015 86.0608 70.5192 89.1445C69.2336 90.5604 68.6583 92.4126 68.7996 94.6443C69.1778 100.75 66.7242 102.725 65.2265 103.358C64.5877 103.628 63.8951 103.758 63.1708 103.758C61.0219 103.758 58.6004 102.553 56.4178 100.462C55.5154 101.145 54.6084 101.747 53.7889 102.276C52.8938 102.848 52.0546 103.382 51.3867 103.942C49.6622 105.376 47.665 107.56 47.9576 109.795C48.2259 111.879 50.5111 113.973 54.5546 115.855C55.1129 116.114 55.5615 116.407 56.0376 116.693C57.7786 113.373 59.854 111.405 62.2587 111.005C65.7096 110.468 68.2948 113.179 68.4047 113.293L66.634 114.951C66.6143 114.933 64.8343 113.066 62.6563 113.396C60.9859 113.675 59.3929 115.348 58.0004 118.146C59.281 119.347 60.0785 120.695 60.2492 122.225C60.7978 127.18 55.03 131.67 54.7838 131.861L53.3034 129.937C54.6789 128.874 58.1738 125.477 57.8374 122.489C57.6469 120.786 56.1983 119.29 53.5303 118.052C48.6305 115.774 45.9434 113.104 45.5505 110.11C45.2067 107.437 46.6453 104.738 49.8332 102.075C50.5719 101.458 51.4913 100.868 52.4742 100.235C56.3276 97.7607 60.6882 94.96 58.9299 87.3153L61.2855 86.7681Z" fill="white"/>
<path d="M47.2823 85.9998C48.4359 84.1096 47.8676 80.8177 45.6359 76.4789C43.7142 72.7341 43.4242 69.4489 44.785 66.7274C47.0698 62.139 53.167 61.0325 53.4232 60.9897L53.8402 63.3765C53.7891 63.3862 48.6818 64.3313 46.9482 67.8162C46.2042 69.3173 46.1825 71.1318 46.8824 73.2252C48.9701 71.5327 51.0061 70.8441 52.9792 71.2223C56.9058 71.989 58.7373 76.7104 58.8131 76.9119L56.5497 77.7715C56.535 77.7337 55.0914 74.1072 52.5135 73.6037C51.128 73.3207 49.5795 74.0263 47.8847 75.5688C50.4625 80.6734 50.9673 84.615 49.3503 87.267C47.5796 90.163 43.9875 90.4753 42.5242 90.4753V88.0512C43.5752 88.0512 46.1481 87.852 47.2823 85.9998Z" fill="white"/>
<path d="M40.3319 101.627L41.8975 103.472C41.8611 103.501 38.3805 106.525 38.3708 110.39C38.3661 112.64 39.5538 114.815 41.9048 116.84L40.3219 118.677C37.4053 116.157 35.9323 113.364 35.9466 110.36C35.9687 105.372 40.1512 101.773 40.3319 101.627Z" fill="white"/>
<path d="M89.9393 62.1474L88.478 60.2054C89.5364 59.4139 91.2971 58.0932 91.136 56.7225C91.0318 55.8154 89.9804 53.9107 84.1589 51.378C79.9102 49.5244 77.7032 47.3134 77.5936 44.7964C77.4279 41.0883 81.862 38.5586 82.3641 38.2839L83.5294 40.4154C82.5906 40.9289 79.9323 42.8065 80.0128 44.6918C80.0813 46.1782 81.8473 47.7244 85.1251 49.1509C90.4906 51.4862 93.2438 53.8726 93.5462 56.4431C93.8706 59.1967 91.3124 61.1131 89.9393 62.1474Z" fill="white"/>
<path d="M66.975 63.6239C67.4066 64.7568 69.4847 66.614 78.4888 66.2235C85.2344 65.9639 89.1366 66.9725 90.7022 69.4311C92.6165 72.4646 90.4192 76.6752 88.2927 80.7418C85.3784 86.3254 83.852 89.8518 87.2173 91.6335L86.0807 93.7747C80.3423 90.7348 83.5593 84.5738 86.1442 79.6202C87.9536 76.1584 89.8245 72.5832 88.6512 70.7361C87.9807 69.676 85.8198 68.514 79.5325 68.637C80.3714 71.6515 80.1983 73.7319 78.8717 74.8464C78.1864 75.423 77.3205 75.6398 76.4158 75.6398C74.16 75.6398 71.66 74.3098 71.0285 73.949L72.2232 71.8369C73.8062 72.7393 76.5133 73.6644 77.3108 72.9888C77.7545 72.616 77.8423 71.2402 77.0328 68.677C69.8699 68.7883 65.819 67.4078 64.7048 64.4875C64.173 63.089 64.4757 61.5519 65.1388 60.0498C63.9264 59.824 62.8583 59.388 62.1073 58.5233C59.9173 56.0187 60.788 51.8021 60.827 51.6277L63.1927 52.1288C63.1901 52.1619 62.556 55.3545 63.9341 56.9307C64.4703 57.5408 65.341 57.7853 66.4191 57.7903C68.3822 54.9405 71.1505 52.5778 71.6697 52.1522L73.2041 54.0288C70.2895 56.4102 66.0215 61.1219 66.975 63.6239Z" fill="white"/>
<path d="M85.6812 115.533L85.4761 113.119C85.6421 113.094 89.6586 112.787 91.4052 115.49C92.7412 117.556 92.2925 120.625 90.0712 124.617L87.9494 123.435C89.6489 120.382 90.1564 118.033 89.3736 116.819C88.5808 115.585 86.4443 115.452 85.6812 115.533Z" fill="white"/>
<path d="M80.484 57.3869C82.5958 58.7637 82.3984 61.9282 82.3693 62.2857L79.9525 62.0916C80.0059 61.4184 79.877 59.8843 79.1573 59.4185C78.5747 59.048 77.3576 59.2952 75.8355 60.1295L74.6702 57.998C77.111 56.675 79.0598 56.4725 80.484 57.3869Z" fill="white"/>
<path d="M81.3181 101.986C76.7184 102.547 73.9334 101.788 72.8118 99.6844C71.3261 96.9074 73.7774 93.047 74.7529 91.9121L76.5891 93.4937C75.804 94.4081 74.2117 97.1627 74.953 98.5428C75.5136 99.5989 77.7113 99.9818 81.0278 99.5808C85.6105 99.0296 88.7931 99.7977 90.4686 101.859C92.5099 104.366 91.4244 107.697 91.378 107.835L89.0757 107.069C89.0858 107.045 89.7733 104.847 88.588 103.387C87.4881 102.028 84.9691 101.544 81.3181 101.986Z" fill="white"/>
<path d="M55.3741 141.616C56.5301 141.85 57.652 141.817 58.6983 141.649C57.7275 140.189 57.357 138.65 57.6302 137.05C58.4498 132.268 64.8002 128.917 65.0708 128.78L66.188 130.93C64.6442 131.739 60.5275 134.48 60.0227 137.464C59.8226 138.645 60.2666 139.782 61.2371 140.928C63.2296 140.132 64.5733 139.076 64.5977 139.055L65.1978 138.562L65.8953 138.904C71.902 141.812 74.5774 138.308 74.692 138.161L76.6601 139.572C76.6237 139.628 72.9433 144.622 65.5125 141.394C64.2052 142.304 60.9982 144.213 57.1278 144.213C56.4131 144.213 55.6765 144.151 54.9254 144C50.9284 143.208 47.5554 140.287 44.8923 135.306L47.0335 134.162C49.3307 138.464 52.1358 140.968 55.3741 141.616Z" fill="white"/>
<path d="M87.6857 16.3671C87.6857 17.4486 86.6928 18.3229 85.4711 18.3229C84.2489 18.3229 83.259 17.4439 83.259 16.3671L83.264 1.9551C83.264 0.874318 84.2566 0 85.4807 0C86.7028 0 87.6951 0.87699 87.6928 1.95611L87.6857 16.3671Z" fill="#B29F82"/>
<path d="M56.7936 27.6432C57.3518 28.5676 58.6541 28.8005 59.7008 28.1677C60.7492 27.5346 61.1421 26.2724 60.5835 25.348L53.1229 13.0213C52.562 12.0945 51.26 11.8607 50.2136 12.4938C49.1673 13.1276 48.7724 14.3908 49.3333 15.3125L56.7936 27.6432Z" fill="#B29F82"/>
<path d="M30.3079 53.0966C31.1762 53.739 32.4688 53.4664 33.1978 52.4838C33.9271 51.4993 33.8148 50.1839 32.9469 49.5388L21.3746 40.9517C20.509 40.3092 19.2137 40.5828 18.4844 41.5634C17.7577 42.5463 17.87 43.8623 18.7356 44.5074L30.3079 53.0966Z" fill="#B29F82"/>
<path d="M15.4097 85.4373C16.4558 85.7153 17.5559 84.9786 17.8656 83.7969C18.1777 82.6129 17.585 81.4316 16.5413 81.1546L2.60599 77.4783C1.56229 77.2036 0.462128 77.9393 0.150087 79.1233C-0.159616 80.305 0.432394 81.4864 1.47643 81.762L15.4097 85.4373Z" fill="#B29F82"/>
<path d="M148.481 16.3671C148.478 17.4486 147.488 18.3229 146.264 18.3229C145.04 18.3229 144.049 17.4439 144.049 16.3671L144.057 1.9551C144.059 0.874318 145.049 0 146.274 0C147.498 0 148.488 0.87699 148.488 1.95611L148.481 16.3671Z" fill="#B29F82"/>
<path d="M177.204 27.6432C176.643 28.5676 175.343 28.8005 174.297 28.1677C173.251 27.5346 172.856 26.2724 173.417 25.348L180.877 13.0213C181.435 12.0945 182.737 11.8607 183.781 12.4938C184.83 13.1276 185.226 14.3908 184.667 15.3125L177.204 27.6432Z" fill="#B29F82"/>
<path d="M203.69 53.0966C202.822 53.739 201.529 53.4664 200.8 52.4838C200.071 51.4993 200.183 50.1839 201.049 49.5388L212.621 40.9517C213.492 40.3092 214.784 40.5828 215.513 41.5634C216.242 42.5463 216.13 43.8623 215.262 44.5074L203.69 53.0966Z" fill="#B29F82"/>
<path d="M218.589 85.4373C217.545 85.7153 216.445 84.9786 216.133 83.7969C215.821 82.6129 216.413 81.4316 217.46 81.1546L231.39 77.4783C232.439 77.2036 233.537 77.9393 233.849 79.1233C234.161 80.305 233.568 81.4864 232.525 81.762L218.589 85.4373Z" fill="#B29F82"/>
<mask id="mask0_10_558" style="mask-type:luminance" maskUnits="userSpaceOnUse" x="117" y="47" width="25" height="106">
<path d="M141.015 47.3505H117.503V152.798H141.015V47.3505Z" fill="white"/>
</mask>
<g mask="url(#mask0_10_558)">
<path d="M108.611 57.8502H126.221L124.585 61.7127C127.217 59.7552 131.462 57.9074 134.881 56.8246C131.462 55.7431 127.217 53.8946 124.585 51.9385L126.221 55.7969H108.611L110.247 51.9385C107.616 53.8946 103.373 55.7431 99.9534 56.8246C103.373 57.9074 107.616 59.7552 110.247 61.7127L108.611 57.8502Z" fill="#A89372"/>
<path d="M126.222 76.3943H108.611L110.247 72.5349C107.616 74.492 103.372 76.3392 99.9534 77.4223C103.372 78.5038 107.616 80.3523 110.247 82.3084L108.611 78.4477H126.222L124.585 82.3084C127.217 80.3523 131.462 78.5038 134.881 77.4223C131.462 76.3392 127.217 74.492 124.585 72.5349L126.222 76.3943Z" fill="#A89372"/>
<path d="M126.222 96.9924H108.611L110.247 93.1333C107.616 95.0904 103.372 96.9356 99.9534 98.0184C103.372 99.1002 107.616 100.948 110.247 102.904L108.611 99.0461H126.222L124.585 102.904C127.217 100.948 131.462 99.1002 134.881 98.0184C131.462 96.9356 127.217 95.0904 124.585 93.1333L126.222 96.9924Z" fill="#A89372"/>
<path d="M126.222 117.588H108.611L110.247 113.73C107.616 115.686 103.372 117.532 99.9534 118.613C103.372 119.696 107.616 121.544 110.247 123.501L108.611 119.641H126.222L124.585 123.501C127.217 121.544 131.462 119.696 134.881 118.613C131.462 117.532 127.217 115.686 124.585 113.73L126.222 117.588Z" fill="#A89372"/>
<path d="M126.222 138.184H108.611L110.247 134.328C107.616 136.284 103.372 138.131 99.9534 139.21C103.372 140.293 107.616 142.14 110.247 144.097L108.611 140.24H126.222L124.585 144.097C127.217 142.14 131.462 140.293 134.881 139.21C131.462 138.131 127.217 136.284 124.585 134.328L126.222 138.184Z" fill="#A89372"/>
</g>
<mask id="mask1_10_558" style="mask-type:luminance" maskUnits="userSpaceOnUse" x="98" y="47" width="20" height="106">
<path d="M117.002 47.3505H98.2095L98.2095 152.798H117.002V47.3505Z" fill="white"/>
</mask>
<g mask="url(#mask1_10_558)">
<path d="M117.415 57.8502V55.7969H108.611L110.247 51.9385C107.616 53.8946 103.373 55.7431 99.9531 56.8246C103.373 57.9074 107.616 59.7552 110.247 61.7127L108.611 57.8502H117.415Z" fill="#272829"/>
<path d="M117.415 78.4477V76.3943H108.611L110.247 72.5349C107.616 74.492 103.373 76.3392 99.9531 77.4223C103.373 78.5038 107.616 80.3523 110.247 82.3084L108.611 78.4477H117.415Z" fill="#272829"/>
<path d="M117.415 99.0461V96.9927H108.611L110.247 93.1333C107.616 95.0904 103.373 96.9353 99.9531 98.0181C103.373 99.0998 107.616 100.948 110.247 102.904L108.611 99.0461H117.415Z" fill="#272829"/>
<path d="M117.415 119.641V117.588H108.611L110.247 113.73C107.616 115.686 103.373 117.532 99.9531 118.613C103.373 119.696 107.616 121.543 110.247 123.501L108.611 119.641H117.415Z" fill="#272829"/>
<path d="M117.415 140.24V138.184H108.611L110.247 134.328C107.616 136.284 103.373 138.13 99.9531 139.21C103.373 140.292 107.616 142.14 110.247 144.097L108.611 140.24H117.415Z" fill="#272829"/>
</g>
</svg>
