<svg width="160" height="160" viewBox="0 0 160 160" fill="none" xmlns="http://www.w3.org/2000/svg">
<path d="M95.8778 74.7625C93.2953 76.7419 90.6466 78.2575 87.9528 79.2744L100.653 85.2009C105.14 84.3228 109.528 83.16 113.752 81.7053L95.8778 74.7625Z" fill="#A89372"/>
<path d="M80 81.7706L69.4856 86.6772C72.9802 87.0161 76.489 87.1864 80 87.1875C83.5172 87.1875 87.0306 87.0141 90.5144 86.6772L80 81.7706Z" fill="#A89372"/>
<path d="M64.1222 74.7625L46.2481 81.7053C50.4716 83.16 54.8597 84.3231 59.3469 85.2009L72.0469 79.2744C69.3534 78.2575 66.7047 76.7419 64.1222 74.7625Z" fill="#A89372"/>
<path d="M48.3216 57.4731C47.3169 57.4888 46.3697 57.6069 45.5659 57.8203C44.7572 58.0353 44.1784 58.3394 43.7378 58.64L62.1875 67.25V61.6769L53.4259 58.2738C52.1466 57.8184 50.7184 57.5622 49.3422 57.4919C49.0023 57.4744 48.6619 57.4679 48.3216 57.4731Z" fill="#A89372"/>
<path d="M111.678 57.4731C111.338 57.4679 110.998 57.474 110.658 57.4916C109.282 57.5619 107.853 57.8181 106.574 58.2734L97.8125 61.6766V67.25L116.263 58.6406C115.822 58.3397 115.243 58.0356 114.434 57.8206C113.63 57.6072 112.683 57.4888 111.678 57.4731Z" fill="#A89372"/>
<path d="M37.1959 12.8125L33.6022 27.1875H47.1875V12.8125H37.1959Z" fill="#A89372"/>
<path d="M62.1875 44.9928C42.8941 47.0203 25.1475 52.3297 13.9825 60.5013C16.2331 63.2081 18.7419 65.7156 21.4722 68.0175C26.2791 65.3041 31.5641 63.015 37.1875 61.1438V60C37.1875 57.9881 38.1094 56.1125 39.4275 54.8572C40.7456 53.6016 42.3812 52.8463 44.1216 52.3841C45.8622 51.9216 47.7394 51.7409 49.6422 51.8403C51.5793 51.9427 53.4915 52.325 55.3191 52.9753L55.3566 52.9888L62.1875 55.6419V44.9928Z" fill="#A89372"/>
<path d="M97.8125 44.9928V55.6422L104.644 52.9891L104.681 52.9753C106.509 52.325 108.421 51.9427 110.358 51.8403C112.261 51.7409 114.138 51.9216 115.878 52.3841C117.619 52.8466 119.254 53.6016 120.573 54.8572C121.891 56.1128 122.812 57.9884 122.812 60V61.1438C128.436 63.015 133.721 65.3041 138.528 68.0175C141.258 65.7156 143.767 63.2081 146.018 60.5013C134.853 52.3294 117.106 47.0203 97.8125 44.9928Z" fill="#A89372"/>
<path d="M70.7081 34.6856C70.6894 34.695 70.6697 34.7034 70.6512 34.7125C68.4487 35.8138 67.8125 36.9491 67.8125 37.5C67.8125 38.0509 68.4487 39.1863 70.6512 40.2875C72.8537 41.3888 76.2378 42.1875 80 42.1875C83.7622 42.1875 87.1462 41.3888 89.3487 40.2875C91.5512 39.1863 92.1875 38.0509 92.1875 37.5C92.1875 36.9491 91.5512 35.8138 89.3487 34.7125C89.3386 34.7073 89.3279 34.7024 89.3173 34.6976C89.3087 34.6936 89.3001 34.6897 89.2919 34.6856L86.1656 37.8125H73.8344L70.7081 34.6856Z" fill="#272829"/>
<path d="M67.8125 45.1491V70.4328C72.0638 73.6309 76.0825 75.1563 80 75.1563C83.9175 75.1563 87.9362 73.6309 92.1875 70.4328V45.1491C92.1487 45.1694 92.11 45.1901 92.0712 45.2108C92.0027 45.2474 91.9342 45.284 91.8647 45.3188C88.6384 46.9319 84.5219 47.8125 80 47.8125C75.4781 47.8125 71.3616 46.9319 68.1353 45.3188C68.062 45.2821 67.9898 45.2435 67.9175 45.2049C67.8825 45.1862 67.8476 45.1675 67.8125 45.1491Z" fill="#272829"/>
<path d="M12.8125 67.5678V80.9616C24.7094 98.3163 52.2131 107.656 80 107.656C107.787 107.656 135.291 98.3166 147.188 80.9613V67.5675C130.884 84.5313 105.391 92.8125 80 92.8125C54.6094 92.8125 29.1163 84.5309 12.8125 67.5678Z" fill="#272829"/>
<path d="M67.8125 112.723V129.206C69.8372 132.584 74.7441 134.688 80 134.688C85.2559 134.688 90.1628 132.584 92.1875 129.206V112.723C88.1356 113.094 84.0689 113.28 80 113.281C75.9272 113.281 71.8509 113.092 67.8125 112.723Z" fill="#272829"/>
<path d="M72.8125 139.304V145C72.8125 151.25 87.1875 151.25 87.1875 145V139.304C84.8744 139.988 82.4166 140.312 80 140.312C77.5834 140.312 75.1256 139.989 72.8125 139.304Z" fill="#272829"/>
<path d="M112.812 12.8125V27.1875H126.398L122.804 12.8125H112.812Z" fill="#A89372"/>
<path d="M97.8125 17.1875V22.8125H107.188V17.1875H97.8125Z" fill="#272829"/>
<path d="M52.8125 17.1875V22.8125H62.1875V17.1875H52.8125Z" fill="#272829"/>
<path d="M80 8.38L67.8125 16.505V23.8347L76.1653 32.1875H83.8347L92.1875 23.8347V16.505L80 8.38Z" fill="#272829"/>
</svg>
