<svg width="32" height="32" viewBox="0 0 32 32" fill="none" xmlns="http://www.w3.org/2000/svg">
<path d="M10.4001 2.66675H21.6001C25.8667 2.66675 29.3334 6.13341 29.3334 10.4001V21.6001C29.3334 23.6511 28.5187 25.6181 27.0684 27.0684C25.6181 28.5187 23.6511 29.3334 21.6001 29.3334H10.4001C6.13341 29.3334 2.66675 25.8667 2.66675 21.6001V10.4001C2.66675 8.34907 3.48151 6.38207 4.93179 4.93179C6.38207 3.48151 8.34907 2.66675 10.4001 2.66675ZM10.1334 5.33341C8.86037 5.33341 7.63948 5.83913 6.7393 6.7393C5.83913 7.63948 5.33341 8.86037 5.33341 10.1334V21.8667C5.33341 24.5201 7.48008 26.6667 10.1334 26.6667H21.8667C23.1398 26.6667 24.3607 26.161 25.2609 25.2609C26.161 24.3607 26.6667 23.1398 26.6667 21.8667V10.1334C26.6667 7.48008 24.5201 5.33341 21.8667 5.33341H10.1334ZM23.0001 7.33341C23.4421 7.33341 23.866 7.50901 24.1786 7.82157C24.4912 8.13413 24.6667 8.55805 24.6667 9.00008C24.6667 9.44211 24.4912 9.86603 24.1786 10.1786C23.866 10.4912 23.4421 10.6667 23.0001 10.6667C22.5581 10.6667 22.1341 10.4912 21.8216 10.1786C21.509 9.86603 21.3334 9.44211 21.3334 9.00008C21.3334 8.55805 21.509 8.13413 21.8216 7.82157C22.1341 7.50901 22.5581 7.33341 23.0001 7.33341ZM16.0001 9.33341C17.7682 9.33341 19.4639 10.0358 20.7141 11.286C21.9644 12.5363 22.6667 14.232 22.6667 16.0001C22.6667 17.7682 21.9644 19.4639 20.7141 20.7141C19.4639 21.9644 17.7682 22.6667 16.0001 22.6667C14.232 22.6667 12.5363 21.9644 11.286 20.7141C10.0358 19.4639 9.33341 17.7682 9.33341 16.0001C9.33341 14.232 10.0358 12.5363 11.286 11.286C12.5363 10.0358 14.232 9.33341 16.0001 9.33341ZM16.0001 12.0001C14.9392 12.0001 13.9218 12.4215 13.1717 13.1717C12.4215 13.9218 12.0001 14.9392 12.0001 16.0001C12.0001 17.0609 12.4215 18.0784 13.1717 18.8285C13.9218 19.5787 14.9392 20.0001 16.0001 20.0001C17.0609 20.0001 18.0784 19.5787 18.8285 18.8285C19.5787 18.0784 20.0001 17.0609 20.0001 16.0001C20.0001 14.9392 19.5787 13.9218 18.8285 13.1717C18.0784 12.4215 17.0609 12.0001 16.0001 12.0001Z" fill="white"/>
</svg>
