<svg width="223" height="100" viewBox="0 0 223 100" fill="none" xmlns="http://www.w3.org/2000/svg">
<g clip-path="url(#clip0_73_2)">
<path d="M66.4422 83.3867V36.8556H50.9933V42.6467H47.1422V36.8556H40.0178V42.6467H36.3089V36.8556H31.1089V23.7311L37.8489 15.3067L38.06 15.0444V0H29.7533V7.23778H25.8956V0H14.6933V7.23778H8.12889V9.15556H16.6267V1.91778H23.96V9.15556H29.4622L28.2378 13.7511H8.12889V15.6689H27.4689L24.3089 22.4378H15.66V24.3556H29.1733V83.3867H24.58V70.8333L24.3689 70.5711L19.7356 64.78L18.9778 63.8333L18.22 64.78L13.5844 70.5711L13.3756 70.8333V83.3867H9.09778V23.0622L8.88889 22.8L2.14667 14.3756V1.91778H8.12889V0H0.211111V15.0444L0.42 15.3067L7.16222 23.7311V42.6467H4.76889V36.8556H0V83.7067V100H222.222V83.3867H66.4422ZM20.7778 96.8222C20.0733 97.4311 19.1222 97.7356 17.9289 97.7356C17.0822 97.7356 16.3578 97.5911 15.7511 97.3022C15.1467 97.0111 14.6956 96.5956 14.3978 96.0511L15.7133 94.5756C15.88 94.98 16.1467 95.3 16.5156 95.5356C16.8822 95.7644 17.2956 95.88 17.7556 95.88C18.3089 95.88 18.7489 95.7489 19.0711 95.4889C19.3933 95.2311 19.5533 94.88 19.5533 94.4422C19.5533 93.9222 19.0178 93.4067 17.9444 92.8911C17.5956 92.7267 17.3222 92.5911 17.12 92.4867C16.1533 91.9889 15.4822 91.5 15.1089 91.0267C14.7356 90.5467 14.5489 89.9778 14.5489 89.32C14.5489 88.4156 14.9111 87.6756 15.6311 87.0956C16.3578 86.5111 17.2956 86.22 18.4511 86.22C19.12 86.22 19.6978 86.3378 20.1822 86.5711C20.6711 86.8022 21.1022 87.1622 21.4733 87.6578L20.0756 88.9822C19.9089 88.6622 19.6867 88.4267 19.4111 88.2711C19.1378 88.1111 18.8089 88.0311 18.42 88.0311C17.9511 88.0311 17.5733 88.1489 17.2867 88.3844C17 88.6133 16.8556 88.9133 16.8556 89.2822C16.8556 89.8622 17.4244 90.3911 18.5644 90.8689C18.7911 90.9644 18.9644 91.04 19.0844 91.0933C20.0222 91.5178 20.7156 91.9978 21.1644 92.5311C21.6178 93.0667 21.8444 93.6756 21.8444 94.36C21.8444 95.3867 21.4889 96.2089 20.7778 96.8222ZM47.7978 88.4578H43.6467V90.7133H47.7978V92.7044H43.6467V95.4533H47.7978V97.4444H41.2822V86.4822H47.7978V88.4578ZM63.7178 55.0756L60.24 52.6467L59.9911 52.4711H50.3778V62.7756H56.6978L56.9644 62.5533L58.7156 61.1178V68.3556L56.98 66.8778L56.7067 66.6467H56.3489L51.3467 66.6444H50.3778V76.4622L50.6156 76.7333L54.2222 80.8267H41.8L45.4044 76.7333L45.6422 76.4622V51.9533L44.1111 52.5956L39.7511 55.06V44.6444L44.0444 47.5444L44.3156 47.7756H60.0422L60.3133 47.5444L63.7178 44.6467V55.0756ZM76.5311 89.3356C76.0533 88.9111 75.5622 88.6 75.0578 88.4067C74.5533 88.2067 74.0156 88.1067 73.44 88.1067C72.26 88.1067 71.32 88.4556 70.62 89.1556C69.92 89.8533 69.5689 90.7933 69.5689 91.9711C69.5689 93.1489 69.8956 94.04 70.5444 94.7178C71.1956 95.3933 72.0822 95.7289 73.2067 95.7289C73.8467 95.7289 74.44 95.6244 74.9911 95.4156C75.54 95.2 76.0489 94.88 76.5178 94.4556L76.5022 96.86C75.9978 97.1556 75.4689 97.3756 74.9156 97.5178C74.3644 97.6644 73.7867 97.7356 73.1756 97.7356C71.4111 97.7356 69.9622 97.1933 68.8289 96.1111C67.7 95.0222 67.1356 93.6422 67.1356 91.9711C67.1356 90.3 67.7022 88.9289 68.8378 87.8444C69.9711 86.76 71.4311 86.22 73.2222 86.22C73.82 86.22 74.4 86.2822 74.96 86.4067C75.52 86.5311 76.0711 86.7244 76.6156 86.9844L76.5311 89.3356ZM105.742 93.3044C105.742 94.7911 105.347 95.9022 104.556 96.6356C103.764 97.3689 102.573 97.7356 100.98 97.7356C99.3867 97.7356 98.1578 97.3689 97.3667 96.6356C96.5756 95.9022 96.18 94.7911 96.18 93.3044V86.4822H98.5311V92.9356C98.5311 93.84 98.7333 94.5222 99.1356 94.98C99.54 95.4356 100.142 95.6622 100.942 95.6622C101.742 95.6622 102.358 95.4333 102.771 94.9733C103.187 94.5133 103.391 93.8356 103.391 92.9356V86.4822H105.742V93.3044ZM130.971 97.4444L128.06 92.3222V97.4444H125.693V86.4822H129.08C130.427 86.4822 131.433 86.7422 132.104 87.26C132.773 87.7733 133.109 88.5511 133.109 89.5889C133.109 90.3422 132.88 90.9867 132.422 91.52C131.962 92.0556 131.371 92.3667 130.644 92.4578L133.698 97.4444H130.971ZM154.987 97.4444H152.622V86.4822H154.987V97.4444ZM181.871 88.4733H179.149V97.4444H176.776V88.4733H174.069V86.4822H181.871V88.4733ZM205.54 92.4422V97.4444H203.173V92.4422L199.424 86.4822H202.198L203.84 89.4844C203.92 89.6333 204.002 89.8244 204.089 90.0533C204.173 90.2822 204.262 90.5467 204.353 90.8467C204.424 90.5933 204.502 90.3533 204.587 90.1289C204.678 89.9044 204.778 89.6844 204.889 89.4689L206.516 86.4822H209.273L205.54 92.4422Z" fill="white"/>
<path d="M221.931 79.6644C221.807 79.6244 221.631 79.6044 221.405 79.6044C220.971 79.5844 220.609 79.46 220.32 79.2356C220.051 78.9911 219.836 78.6844 219.671 78.3156C219.505 77.9467 219.351 77.5889 219.207 77.2422L214.005 64.5444C213.633 63.6244 213.229 62.94 212.796 62.4889C212.362 62.02 211.847 61.7022 211.249 61.5378C210.649 61.3756 209.927 61.2933 209.08 61.2933C208.751 61.2933 208.462 61.3133 208.213 61.3556C207.967 61.3756 207.842 61.56 207.842 61.9067C207.842 62.2133 207.893 62.3978 207.998 62.4578C208.1 62.5 208.307 62.5511 208.616 62.6111C208.967 62.6733 209.287 62.7644 209.576 62.8889C209.865 62.9911 210.071 63.1733 210.196 63.44C210.32 63.6867 210.278 64.0533 210.071 64.5444L204.653 77.2422C204.489 77.6311 204.313 78.0089 204.127 78.3778C203.962 78.7444 203.736 79.0422 203.445 79.2667C203.156 79.4911 202.733 79.6044 202.176 79.6044C201.969 79.6044 201.793 79.6244 201.649 79.6644C201.505 79.7067 201.422 79.9 201.402 80.2489C201.402 80.4111 201.442 80.5644 201.527 80.7089C201.609 80.8511 201.753 80.9222 201.96 80.9222C202.413 80.9022 202.785 80.8822 203.073 80.8622C203.362 80.8622 203.642 80.8511 203.909 80.8311H206.605C207.1 80.8511 207.678 80.8822 208.338 80.9222C208.525 80.9222 208.658 80.8511 208.74 80.7089C208.845 80.5644 208.896 80.4111 208.896 80.2489C208.873 79.9 208.791 79.7067 208.647 79.6644C208.525 79.6244 208.349 79.6044 208.12 79.6044C207.316 79.6044 206.738 79.5533 206.387 79.4511C206.058 79.3489 205.891 79.1333 205.891 78.8067C205.911 78.4578 206.036 77.9378 206.262 77.2422C206.285 77.2222 206.305 77.16 206.325 77.0578C206.367 76.9556 206.449 76.7311 206.573 76.3844C206.718 76.0356 206.945 75.4733 207.253 74.6956H214.902L215.956 77.2422C216.245 78.08 216.336 78.6844 216.233 79.0511C216.151 79.42 215.605 79.6044 214.591 79.6044C214.387 79.6044 214.211 79.6244 214.067 79.6644C213.922 79.7067 213.838 79.9 213.818 80.2489C213.818 80.4111 213.86 80.5644 213.942 80.7089C214.025 80.8511 214.169 80.9222 214.376 80.9222C215.718 80.8622 216.998 80.8311 218.216 80.8311H219.887C220.382 80.8511 220.96 80.8822 221.62 80.9222C221.807 80.9222 221.94 80.8511 222.022 80.7089C222.127 80.5644 222.178 80.4111 222.178 80.2489C222.158 79.9 222.076 79.7067 221.931 79.6644ZM207.842 73.3778L211.125 65.4956H211.218L214.345 73.3778H207.842Z" fill="white"/>
<path d="M189.696 78.56C189.653 78.8467 189.736 79.0933 189.942 79.2978C190.169 79.4822 190.633 79.5844 191.336 79.6044H194.989C195.711 79.5844 196.26 79.4711 196.631 79.2667C197.022 79.0422 197.333 78.6733 197.56 78.1622C197.807 77.6511 198.064 76.9467 198.333 76.0467C198.396 75.8422 198.52 75.7089 198.704 75.6467C198.911 75.5867 199.129 75.5756 199.356 75.6156C199.52 75.6378 199.676 75.7089 199.82 75.8311C199.964 75.9533 200.027 76.1178 200.004 76.3222L199.387 80.1867C199.324 80.4733 199.22 80.6578 199.076 80.7378C198.953 80.8 198.756 80.8311 198.489 80.8311H185.731C185.133 80.8511 184.504 80.8822 183.842 80.9222C183.658 80.9222 183.513 80.8511 183.409 80.7089C183.327 80.5644 183.284 80.4111 183.284 80.2489C183.327 79.9 183.42 79.7067 183.564 79.6644C183.709 79.6244 183.884 79.6044 184.091 79.6044C184.442 79.6044 184.731 79.5622 184.958 79.4822C185.184 79.4 185.402 79.2267 185.607 78.96C185.836 78.6933 186.093 78.2956 186.382 77.7644L193.318 65.0356C193.689 64.2578 193.884 63.7156 193.907 63.4089C193.927 63.0822 193.782 62.8889 193.473 62.8267C193.162 62.7444 192.709 62.7044 192.109 62.7044H188.736C188.033 62.7244 187.487 62.8467 187.093 63.0711C186.722 63.2778 186.422 63.6356 186.196 64.1467C185.969 64.6578 185.711 65.3622 185.422 66.2622C185.36 66.4667 185.227 66.6 185.02 66.66C184.833 66.7022 184.627 66.7111 184.4 66.6911C184.236 66.6511 184.08 66.58 183.936 66.4778C183.791 66.3533 183.729 66.1911 183.749 65.9867L184.369 62.1222C184.431 61.8356 184.524 61.6622 184.649 61.6C184.793 61.5178 184.998 61.4778 185.267 61.4778H195.887C197.104 61.4778 198.376 61.4467 199.696 61.3844C199.902 61.3844 200.047 61.4578 200.129 61.6C200.211 61.7422 200.253 61.8956 200.253 62.06C200.233 62.4067 200.149 62.6022 200.004 62.6422C199.882 62.6622 199.707 62.6844 199.48 62.7044C198.716 62.7444 198.138 63.0111 197.744 63.5022C197.353 63.9933 197.013 64.5044 196.724 65.0356L189.942 77.7644C189.84 78.0089 189.758 78.2756 189.696 78.56Z" fill="white"/>
<path d="M180.847 76.3222L180.229 80.1867C180.167 80.4733 180.062 80.6578 179.918 80.7378C179.796 80.8 179.598 80.8311 179.331 80.8311H167.287C166.707 80.8511 166.078 80.8822 165.398 80.9222C165.211 80.9222 165.078 80.8511 164.993 80.7089C164.911 80.5644 164.871 80.4111 164.871 80.2489C164.891 79.9 164.973 79.7067 165.118 79.6644C165.262 79.6244 165.438 79.6044 165.644 79.6044C166.304 79.6044 166.769 79.4911 167.038 79.2667C167.307 79.02 167.471 78.7244 167.533 78.3778C167.616 78.0089 167.658 77.6311 167.658 77.2422V65.0667C167.658 64.6778 167.616 64.3089 167.533 63.9622C167.471 63.5933 167.307 63.2978 167.038 63.0711C166.769 62.8267 166.304 62.7044 165.644 62.7044C165.438 62.7044 165.262 62.6844 165.118 62.6422C164.973 62.6022 164.891 62.4067 164.871 62.06C164.871 61.8956 164.911 61.7422 164.993 61.6C165.078 61.4578 165.211 61.3844 165.398 61.3844C166.078 61.4067 166.707 61.4267 167.287 61.4467C167.864 61.4667 168.462 61.4778 169.082 61.4778H178.804C179.031 61.4778 179.216 61.5289 179.36 61.6311C179.527 61.7333 179.609 61.9267 179.609 62.2133L179.702 66.5067C179.702 66.7111 179.598 66.8644 179.391 66.9667C179.207 67.0689 179.031 67.12 178.867 67.12C178.638 67.12 178.431 67.08 178.247 66.9978C178.06 66.8956 177.947 66.7533 177.907 66.5689C177.762 65.6489 177.587 64.9133 177.38 64.36C177.193 63.7889 176.904 63.38 176.513 63.1333C176.14 62.8667 175.593 62.7244 174.871 62.7044H170.722V70.4956H176.327C176.491 70.5156 176.604 70.5978 176.667 70.74C176.749 70.8822 176.791 71.0356 176.791 71.2C176.791 71.3422 176.749 71.4867 176.667 71.6289C176.604 71.7511 176.491 71.8133 176.327 71.8133H170.722V77.6111C170.742 77.8756 170.784 78.1733 170.847 78.5C170.909 78.8067 171.084 79.0711 171.373 79.2978C171.682 79.5222 172.189 79.6244 172.889 79.6044H175.738C176.46 79.5844 177.009 79.4711 177.38 79.2667C177.771 79.0422 178.082 78.6733 178.309 78.1622C178.536 77.6511 178.782 76.9467 179.051 76.0467C179.133 75.8422 179.269 75.7089 179.453 75.6467C179.66 75.5867 179.878 75.5756 180.104 75.6156C180.269 75.6378 180.433 75.7089 180.6 75.8311C180.784 75.9533 180.869 76.1178 180.847 76.3222Z" fill="white"/>
<path d="M162.787 76.3222L162.167 80.1867C162.107 80.4733 162.002 80.6578 161.858 80.7378C161.733 80.8 161.538 80.8311 161.269 80.8311H149.287C148.709 80.8511 148.08 80.8822 147.398 80.9222C147.213 80.9222 147.078 80.8511 146.996 80.7089C146.913 80.5644 146.871 80.4111 146.871 80.2489C146.893 79.9 146.976 79.7067 147.12 79.6644C147.264 79.6244 147.44 79.6044 147.647 79.6044C148.307 79.6044 148.771 79.4911 149.04 79.2667C149.309 79.02 149.473 78.7244 149.536 78.3778C149.618 78.0089 149.658 77.6311 149.658 77.2422V65.0667C149.658 64.6778 149.618 64.3089 149.536 63.9622C149.473 63.5933 149.309 63.2978 149.04 63.0711C148.771 62.8267 148.307 62.7044 147.647 62.7044C147.44 62.7044 147.264 62.6844 147.12 62.6422C146.976 62.6022 146.893 62.4067 146.871 62.06C146.871 61.8956 146.913 61.7422 146.996 61.6C147.078 61.4578 147.213 61.3844 147.398 61.3844C148.08 61.4067 148.709 61.4267 149.287 61.4467C149.864 61.4667 150.464 61.4778 151.082 61.4778C152.342 61.4778 153.633 61.4467 154.953 61.3844C155.16 61.3844 155.304 61.4578 155.387 61.6C155.469 61.7422 155.511 61.8956 155.511 62.06C155.491 62.4067 155.407 62.6022 155.262 62.6422C155.118 62.6844 154.942 62.7044 154.736 62.7044C154.098 62.7044 153.633 62.8267 153.342 63.0711C153.076 63.2978 152.909 63.5933 152.849 63.9622C152.787 64.3089 152.744 64.6778 152.724 65.0667V77.7022C152.744 77.9689 152.787 78.2533 152.849 78.56C152.909 78.8667 153.084 79.1222 153.373 79.3289C153.684 79.5333 154.189 79.6244 154.891 79.6044H157.678C158.4 79.5844 158.947 79.4711 159.32 79.2667C159.711 79.0422 160.02 78.6733 160.249 78.1622C160.476 77.6511 160.722 76.9467 160.991 76.0467C161.073 75.8422 161.209 75.7089 161.393 75.6467C161.6 75.5867 161.818 75.5756 162.044 75.6156C162.209 75.6378 162.373 75.7089 162.54 75.8311C162.724 75.9533 162.807 76.1178 162.787 76.3222Z" fill="white"/>
<path d="M146.4 79.6644C146.276 79.6244 146.1 79.6044 145.873 79.6044C145.44 79.5844 145.078 79.46 144.789 79.2356C144.52 78.9911 144.304 78.6844 144.14 78.3156C143.973 77.9467 143.82 77.5889 143.676 77.2422L138.473 64.5444C138.102 63.6244 137.698 62.94 137.264 62.4889C136.831 62.02 136.316 61.7022 135.718 61.5378C135.118 61.3756 134.396 61.2933 133.549 61.2933C133.22 61.2933 132.931 61.3133 132.682 61.3556C132.436 61.3756 132.311 61.56 132.311 61.9067C132.311 62.2133 132.362 62.3978 132.467 62.4578C132.569 62.5 132.776 62.5511 133.084 62.6111C133.436 62.6733 133.756 62.7644 134.044 62.8889C134.333 62.9911 134.54 63.1733 134.664 63.44C134.789 63.6867 134.747 64.0533 134.54 64.5444L129.122 77.2422C128.958 77.6311 128.782 78.0089 128.596 78.3778C128.431 78.7444 128.204 79.0422 127.916 79.2667C127.624 79.4911 127.202 79.6044 126.644 79.6044C126.438 79.6044 126.262 79.6244 126.118 79.6644C125.973 79.7067 125.891 79.9 125.871 80.2489C125.871 80.4111 125.913 80.5644 125.996 80.7089C126.078 80.8511 126.222 80.9222 126.429 80.9222C126.882 80.9022 127.253 80.8822 127.542 80.8622C127.831 80.8622 128.111 80.8511 128.38 80.8311H131.073C131.569 80.8511 132.147 80.8822 132.807 80.9222C132.993 80.9222 133.127 80.8511 133.209 80.7089C133.313 80.5644 133.364 80.4111 133.364 80.2489C133.342 79.9 133.26 79.7067 133.116 79.6644C132.993 79.6244 132.818 79.6044 132.589 79.6044C131.784 79.6044 131.207 79.5533 130.856 79.4511C130.527 79.3489 130.36 79.1333 130.36 78.8067C130.382 78.4578 130.504 77.9378 130.731 77.2422C130.753 77.2222 130.773 77.16 130.793 77.0578C130.836 76.9556 130.918 76.7311 131.042 76.3844C131.187 76.0356 131.413 75.4733 131.722 74.6956H139.371L140.424 77.2422C140.713 78.08 140.804 78.6844 140.702 79.0511C140.62 79.42 140.073 79.6044 139.06 79.6044C138.856 79.6044 138.68 79.6244 138.536 79.6644C138.391 79.7067 138.307 79.9 138.287 80.2489C138.287 80.4111 138.329 80.5644 138.411 80.7089C138.493 80.8511 138.638 80.9222 138.844 80.9222C140.187 80.8622 141.467 80.8311 142.684 80.8311H144.356C144.851 80.8511 145.429 80.8822 146.089 80.9222C146.276 80.9222 146.409 80.8511 146.491 80.7089C146.596 80.5644 146.647 80.4111 146.647 80.2489C146.627 79.9 146.544 79.7067 146.4 79.6644ZM132.311 73.3778L135.593 65.4956H135.687L138.813 73.3778H132.311Z" fill="white"/>
<path d="M126.651 66.5378C126.651 66.7422 126.56 66.8956 126.373 66.9978C126.209 67.1 126.042 67.1511 125.878 67.1511C125.671 67.1511 125.456 67.1111 125.229 67.0289C125 66.9267 124.867 66.7844 124.824 66.6C124.68 65.68 124.504 64.9333 124.3 64.36C124.113 63.7667 123.824 63.3378 123.431 63.0711C123.06 62.7867 122.513 62.6333 121.791 62.6111H119.684V77.2422C119.707 77.6311 119.747 78.0089 119.809 78.3778C119.871 78.7244 120.036 79.02 120.304 79.2667C120.593 79.4911 121.058 79.6044 121.698 79.6044C121.904 79.6044 122.08 79.6244 122.224 79.6644C122.369 79.7067 122.451 79.9 122.471 80.2489C122.471 80.4111 122.431 80.5644 122.349 80.7089C122.267 80.8511 122.122 80.9222 121.916 80.9222C121.253 80.8822 120.624 80.8511 120.027 80.8311H118.262C117.022 80.8311 115.733 80.8622 114.391 80.9222C114.184 80.9222 114.04 80.8511 113.958 80.7089C113.876 80.5644 113.833 80.4111 113.833 80.2489C113.853 79.9 113.938 79.7067 114.082 79.6644C114.227 79.6244 114.402 79.6044 114.607 79.6044C115.269 79.6044 115.733 79.4911 116 79.2667C116.269 79.02 116.433 78.7244 116.496 78.3778C116.58 78.0089 116.62 77.6311 116.62 77.2422V62.6111H114.484C113.782 62.6333 113.236 62.7867 112.842 63.0711C112.451 63.3378 112.162 63.7667 111.976 64.36C111.789 64.9333 111.624 65.68 111.48 66.6C111.46 66.7844 111.324 66.9267 111.078 67.0289C110.851 67.1111 110.624 67.1511 110.398 67.1511C110.251 67.1511 110.087 67.1 109.902 66.9978C109.736 66.8956 109.653 66.7422 109.653 66.5378L109.747 62.2133C109.747 61.9267 109.829 61.7333 109.993 61.6311C110.16 61.5289 110.356 61.4778 110.582 61.4778H125.722C125.951 61.4778 126.136 61.5289 126.28 61.6311C126.447 61.7333 126.529 61.9267 126.529 62.2133L126.651 66.5378Z" fill="white"/>
<path d="M108.656 79.6956C108.491 79.6556 108.324 79.6244 108.16 79.6044C107.769 79.5622 107.427 79.4711 107.138 79.3289C106.871 79.1844 106.591 79 106.302 78.7756C105.249 77.6911 104.32 76.5378 103.516 75.3089C102.711 74.0622 101.916 72.8267 101.131 71.5978C102.722 71.1889 103.949 70.5044 104.816 69.5444C105.704 68.5822 106.147 67.56 106.147 66.4778C106.147 65.6578 105.911 64.8711 105.436 64.1156C104.96 63.3578 104.198 62.7356 103.144 62.2444C102.111 61.7533 100.76 61.4978 99.0889 61.4778H93.7622C93.1422 61.4778 92.5334 61.4667 91.9356 61.4467C91.3578 61.4267 90.7378 61.4067 90.0778 61.3844C89.8711 61.3844 89.7267 61.4578 89.6445 61.6C89.5622 61.7422 89.52 61.8956 89.52 62.06C89.5422 62.4067 89.6245 62.6022 89.7689 62.6422C89.9134 62.6844 90.0889 62.7044 90.2956 62.7044C90.9556 62.7044 91.42 62.8267 91.6889 63.0711C91.9556 63.2978 92.1222 63.5933 92.1845 63.9622C92.2667 64.3289 92.3067 64.7089 92.3067 65.0956V77.2422C92.3067 77.6311 92.2667 78.0089 92.1845 78.3778C92.1222 78.7244 91.9556 79.02 91.6889 79.2667C91.42 79.4911 90.9556 79.6044 90.2956 79.6044C90.0889 79.6044 89.9134 79.6244 89.7689 79.6644C89.6245 79.7067 89.5422 79.9 89.52 80.2489C89.52 80.4111 89.5622 80.5644 89.6445 80.7089C89.7267 80.8511 89.8711 80.9222 90.0778 80.9222C90.7378 80.8822 91.3578 80.8511 91.9356 80.8311H93.7311C94.9911 80.8311 96.28 80.8622 97.6022 80.9222C97.8089 80.9222 97.9534 80.8511 98.0356 80.7089C98.1178 80.5644 98.16 80.4111 98.16 80.2489C98.1378 79.9 98.0556 79.7067 97.9111 79.6644C97.7667 79.6244 97.5911 79.6044 97.3845 79.6044C96.7445 79.6044 96.28 79.4911 95.9911 79.2667C95.7245 79.02 95.5578 78.7244 95.4956 78.3778C95.4356 78.0089 95.3934 77.6311 95.3734 77.2422V72.2422H96.2711C97.0334 72.2422 97.5511 72.3444 97.8178 72.5489C98.1067 72.7333 98.3867 73.04 98.6556 73.4689C99.1289 74.2267 99.6156 75.0022 100.109 75.8C100.604 76.5978 101.142 77.3844 101.72 78.1622C102.278 78.9178 102.844 79.5111 103.422 79.9422C104.022 80.3711 104.744 80.6667 105.591 80.8311H106.582C106.829 80.8511 107.076 80.8622 107.324 80.8622C107.593 80.8822 107.944 80.9022 108.378 80.9222C108.584 80.9222 108.729 80.8511 108.811 80.7089C108.893 80.5644 108.933 80.4111 108.933 80.2489C108.913 79.9 108.82 79.7156 108.656 79.6956ZM98.0978 71.0467H95.3734V65.1578C95.3734 64.1356 95.5067 63.46 95.7756 63.1333C96.0645 62.7867 96.6534 62.6111 97.54 62.6111C98.8822 62.6111 99.9245 62.8156 100.667 63.2267C101.431 63.6356 101.958 64.1556 102.247 64.7889C102.556 65.4244 102.711 66.0778 102.711 66.7533C102.711 67.1622 102.66 67.6111 102.556 68.1022C102.473 68.5933 102.278 69.0622 101.967 69.5133C101.658 69.9622 101.193 70.3311 100.573 70.6178C99.9756 70.9044 99.1511 71.0467 98.0978 71.0467Z" fill="white"/>
<path d="M86.0956 67.1511C85.6423 65.9444 84.9801 64.8711 84.1134 63.9311C83.2467 62.9911 82.1934 62.2444 80.9556 61.6911C79.7378 61.14 78.3556 60.8644 76.8067 60.8644C75.6712 60.8644 74.5156 61.1 73.3378 61.5689C72.1823 62.02 71.1201 62.6933 70.149 63.5933C69.1801 64.4933 68.3956 65.5978 67.7956 66.9067C67.2178 68.2156 66.929 69.7178 66.929 71.4156C66.929 72.7222 67.1556 73.98 67.6112 75.1867C68.0645 76.3733 68.7245 77.4356 69.5934 78.3778C70.4601 79.3178 71.5023 80.0644 72.7201 80.6156C73.9378 81.1689 75.3001 81.4444 76.8067 81.4444C77.9423 81.4444 79.0867 81.2089 80.2445 80.7378C81.4201 80.2689 82.5045 79.5844 83.4956 78.6844C84.4845 77.7844 85.2801 76.68 85.8778 75.3711C86.4778 74.0622 86.7756 72.56 86.7756 70.8622C86.7756 69.5733 86.549 68.3378 86.0956 67.1511ZM82.4112 75.4333C81.9778 76.8222 81.2956 77.9467 80.3667 78.8067C79.4378 79.6644 78.2423 80.0956 76.7756 80.0956C75.309 80.0956 74.2067 79.6867 73.2778 78.8667C72.349 78.0489 71.6556 76.9756 71.2023 75.6467C70.769 74.2978 70.5512 72.8556 70.5512 71.3222C70.5512 69.6867 70.769 68.1844 71.2023 66.8133C71.6356 65.4244 72.3067 64.3089 73.2156 63.4711C74.1445 62.6111 75.3312 62.1822 76.7756 62.1822C78.2201 62.1822 79.3756 62.5911 80.3045 63.4089C81.2334 64.2067 81.9267 65.2711 82.3801 66.6C82.8556 67.9089 83.0912 69.3289 83.0912 70.8622C83.0912 72.4978 82.8645 74.0222 82.4112 75.4333Z" fill="white"/>
<path fill-rule="evenodd" clip-rule="evenodd" d="M130.773 89.7622C130.773 90.2756 130.62 90.6378 130.311 90.8467C130.005 91.0511 129.373 91.1533 128.416 91.1533H128.06V88.2711H128.416C129.327 88.2711 129.947 88.3867 130.276 88.6156C130.607 88.84 130.773 89.2222 130.773 89.7622Z" fill="white"/>
</g>
<defs>
<clipPath id="clip0_73_2">
<rect width="222.222" height="100" fill="white"/>
</clipPath>
</defs>
</svg>
