<svg width="267" height="158" viewBox="0 0 267 158" fill="none" xmlns="http://www.w3.org/2000/svg">
<path d="M277.767 -17.9259H-9.76709V173.926H277.767V-17.9259Z" fill="white"/>
<path d="M228.631 115.75C228.631 142.461 206.996 164.115 180.308 164.115C153.62 164.115 131.984 142.461 131.984 115.75C131.984 89.0395 153.62 67.3864 180.308 67.3864C206.996 67.3864 228.631 89.0395 228.631 115.75Z" fill="#B29F82"/>
<path d="M55.6376 78.962C55.1361 78.0963 54.6013 77.2414 54.7332 76.1717C54.3793 74.592 53.5738 73.2229 52.7281 71.873C52.0637 70.753 51.4369 69.6099 50.6437 68.5716C50.6061 68.5064 50.5659 68.442 50.5268 68.3771C50.3489 67.353 49.9785 66.3999 49.4157 65.5177C49.341 65.4456 49.267 65.3739 49.1926 65.3017C49.1907 65.2369 49.1811 65.1755 49.1838 65.1091C48.8035 64.2995 48.9077 63.2915 48.0842 62.6576C46.9981 61.8208 45.9922 60.8972 45.4589 59.5784C45.0506 58.5677 41.7876 58.5858 41.6868 57.7098C41.5948 56.9067 41.0013 56.2759 40.9162 55.4904C40.8376 54.7683 41.2099 54.4487 41.9747 54.4659C42.5107 54.4786 42.6587 54.1356 42.6782 53.7001C42.7054 53.1195 42.7319 52.5409 42.8695 51.9745C42.8872 51.4443 42.9336 50.9124 42.8182 50.3856C42.7411 50.1573 42.5996 49.9647 42.4754 49.7625C42.0809 48.7338 41.8187 47.6452 41.1102 46.7604C40.0506 45.5506 38.6784 45 36.9931 45.1082C37.3366 45.0702 37.7388 45.1838 38.1417 44.9224H37.1116C36.2842 44.8449 35.5025 44.9838 34.7664 45.4251C34.8558 45.437 34.9367 45.4474 35.0214 45.4585C34.7231 45.607 34.4137 45.7294 34.1105 45.8652C33.6493 46.1545 33.2759 46.5367 32.9473 46.9653C32.5797 47.6514 32.5202 48.4495 32.1622 49.139C31.4981 50.2103 31.4299 51.4657 31.1113 52.6399C30.8916 53.4495 31.3494 53.9034 32.1533 53.7043C32.5877 53.5968 32.608 53.7434 32.6368 54.0726C32.7004 54.8086 32.3193 55.4363 32.176 56.1205C32.0675 56.6385 31.7588 56.8495 31.2505 56.7624C30.1276 56.5705 29.2895 57.0632 28.5841 57.8655C28.1535 58.3552 27.6141 58.6729 27.069 59.0209C26.0254 59.6878 24.9999 60.4003 24.0836 61.2456C23.9851 61.5146 23.9023 61.7889 23.8417 62.069C23.5388 63.1016 23.7328 64.2312 23.2313 65.2254C22.608 65.8873 22.6766 66.7111 22.6985 67.5234C22.7199 67.7164 22.7111 67.9067 22.6927 68.097C22.4715 68.3322 22.1905 68.5298 22.1575 68.8636C22.0965 69.4849 21.7691 69.9349 21.352 70.349C21.1715 70.4503 21.1128 70.6248 21.076 70.8121C20.3365 72.1301 19.6054 73.4524 18.8823 74.7792C18.8551 75.1717 18.8792 75.565 18.8647 75.9579C18.8424 76.555 18.9329 77.1839 18.4199 77.6543C17.8805 78.1489 17.9147 78.6934 18.2463 79.2931C18.4732 79.704 18.819 80.1008 18.5963 80.6361C18.5971 80.9898 18.5982 81.3444 18.599 81.6985C18.535 81.7523 18.4801 81.8125 18.4142 81.8651C18.0281 82.408 17.6957 82.9552 18.262 83.5844C18.2858 83.5787 18.3088 83.5722 18.3322 83.566C18.7604 85.0387 18.4767 86.6552 19.2718 88.0642C19.4413 88.365 19.2507 88.9321 19 89.0319C18.1692 90.1112 17.8119 91.3326 17.9285 92.6966C17.8851 92.9691 17.8966 93.4218 17.5198 93.4422C16.5583 93.494 16.702 94.2503 16.5678 94.825C16.4927 95.147 16.5632 95.4938 16.5767 95.8135C16.4348 97.8448 16.0062 99.8189 15.2912 101.735C14.7272 102.339 14.7246 103.128 15.2812 103.723H15.2793C15.6098 104.207 15.9656 104.365 16.3769 103.809C16.5468 103.781 16.7174 103.754 16.8872 103.727C17.6904 102.427 17.8476 101.01 17.3591 99.4751C17.3235 99.3996 17.3147 99.1628 17.5708 99.159C17.774 99.5975 17.7893 100.058 17.6678 100.502C17.3714 101.582 17.8759 102.745 17.3082 103.798C17.2265 103.95 17.3262 104.156 17.4569 104.301C17.7379 104.974 17.4492 105.645 17.45 106.317C17.5359 107.894 16.9474 109.377 16.8006 110.924C16.7676 111.27 16.6894 111.532 17.1333 111.588C17.5102 111.635 17.5654 111.389 17.6313 111.088C17.7939 110.344 17.7026 109.559 17.9921 108.838C18.2329 108.689 18.2551 108.438 18.2769 108.197C18.4207 106.614 18.8566 105.079 19.0483 103.504C19.3059 101.389 21.1485 96.5268 21.9792 94.6328C22.2503 95.1228 25.547 95.4597 25.3008 96.1684C24.9631 97.1395 24.8381 98.0286 25.9453 98.6068C26.0281 98.6506 26.0841 98.7346 26.109 98.8213C26.5288 100.287 27.0195 101.745 26.6288 103.305C26.5959 103.42 26.571 103.537 26.5464 103.653C26.4433 103.831 26.426 104.025 26.4421 104.226C26.4004 104.48 26.3578 104.734 26.2922 104.982C26.2646 105.077 26.2439 105.174 26.2363 105.273C26.2079 105.885 26.1703 106.498 26.28 107.107C26.7032 108.242 26.5031 109.743 26.8857 110.944H26.8788V113.432C26.9083 113.429 26.9379 113.426 26.9674 113.423V111.253C27.2614 112.45 27.0874 113.673 26.8225 114.864C26.5863 115.925 26.469 116.949 26.6572 118.012C26.8286 118.427 27.1123 118.731 27.5382 118.881C27.9642 119.031 28.1716 119.337 28.1961 119.772C28.4737 122.616 27.9423 125.269 26.6028 127.731C26.0791 129.442 26.5947 130.774 28.1486 131.727C29.4149 131.968 30.4952 131.692 31.2535 130.564C31.3233 130.484 31.3804 130.397 31.4211 130.298C31.4491 130.178 31.4851 130.059 31.5223 129.941C31.6557 129.747 31.7101 129.537 31.7025 129.314C31.7523 129.112 31.7899 128.907 31.7811 128.692C31.6457 127.958 31.8386 127.312 32.2542 126.7C32.9995 124.011 33.144 121.294 32.6874 118.549C32.6713 116.416 32.8917 114.3 33.1513 112.188C33.2325 111.525 33.3541 110.869 33.1954 110.203C33.078 109.451 33.5285 108.775 33.5001 108.045C33.4476 106.699 33.6152 105.368 33.711 104.032C33.7237 103.853 34.0484 98.8869 34.6951 98.0804C34.8332 98.8029 35.2905 102.792 35.2752 103.389C35.2115 105.869 36.2804 108.379 35.6578 110.882C35.5574 111.285 35.6306 111.73 35.7172 112.15C36.326 113.827 35.3519 115.631 35.4458 117.365C35.5474 117.54 35.6267 117.672 35.6984 117.782C35.8223 118.303 36.3908 118.693 36.2359 119.295C36.1788 119.342 36.1225 119.389 36.0657 119.437C35.8782 119.854 35.6758 120.275 35.5551 120.71C35.2495 121.812 35.1533 122.912 36.2336 123.7C36.5718 123.947 36.5779 124.218 36.5223 124.575C36.336 125.758 36.2375 126.944 36.5902 128.118C36.663 128.209 36.7075 128.307 36.747 128.405L36.729 128.541C36.7623 128.761 36.8083 128.977 36.8792 129.184C36.8858 129.317 36.893 129.449 36.9111 129.579L37.0602 129.57C37.0797 129.602 37.0943 129.637 37.1166 129.668C37.1085 129.635 37.1089 129.601 37.1054 129.567L40.5627 129.365C40.3596 128.242 40.2426 127.195 40.557 126.106C40.6778 125.632 40.7487 125.149 40.8499 124.671C41.7708 123.694 42.5019 122.578 43.044 121.323C42.7729 120.619 42.3999 119.937 42.707 119.137C43.1762 117.911 43.136 116.629 43.0754 115.349C43.0509 115.05 42.9263 114.765 42.9868 114.452C43.2073 113.32 43.0444 112.224 42.6602 111.148C42.6491 111.117 42.6472 111.086 42.6376 111.056C42.7507 110.415 42.9385 109.768 42.7307 109.143C42.7353 109.13 42.7373 109.118 42.7415 109.106C42.7821 109.015 42.8147 108.922 42.835 108.824C42.8726 108.525 42.9792 108.243 43.0455 107.951C43.0635 105.981 43.3281 104.02 43.2433 102.047C43.2303 101.742 43.1774 101.439 43.3921 101.176C44.2252 99.8849 43.8502 98.4533 43.7091 96.8867C43.6873 96.6446 43.8376 96.3714 43.7682 96.1619C43.1295 92.2611 46.3092 98.519 46.1965 81.3256C46.1846 79.5295 45.8453 77.6585 45.8768 75.8896C45.8994 74.638 46.6945 73.1592 46.1566 72.0392C46.1206 71.9755 46.0719 71.9306 46.0255 71.8822C46.0343 71.8734 46.0435 71.8646 46.0523 71.8561C46.5438 72.1992 46.6692 72.8549 47.1818 73.1792C47.1956 73.1822 47.2044 73.1911 47.2174 73.1945C47.2569 74.493 47.7312 75.7082 47.9619 76.9702C48.0463 77.4329 48.2733 77.8051 48.79 77.9359C49.1853 78.0361 49.3348 78.3549 49.4314 78.7348C49.6155 79.4589 49.6803 80.2884 50.0905 80.8617C50.6632 81.6621 51.269 82.4245 51.6497 83.3404C51.3 85.4707 51.272 87.5987 51.5669 89.7241C51.8739 90.3741 52.1576 90.3557 52.4191 89.6677C52.5663 89.2414 52.3413 88.7533 52.633 88.3289C53.0647 88.5549 53.0072 88.9709 52.9616 89.2951C52.4111 90.3802 52.3758 91.4569 52.8558 92.5251C53.1537 92.9691 55.2059 91.5574 55.5099 90.3415C55.6399 90.0307 55.7813 88.2219 55.5095 87.7419C55.3983 87.5796 55.2872 87.4173 55.176 87.2549C56.0857 86.7323 55.3849 86.0275 55.3416 85.4262C55.2944 84.7666 54.9475 84.0763 55.278 83.4636C55.5597 82.9402 55.5153 81.9077 55.5103 81.9042C55.5835 81.8754 55.7706 79.3691 55.6376 78.962ZM24.5214 76.9748C24.5536 77.0143 24.5697 77.0569 24.5931 77.0983C24.2895 77.878 24.5831 78.6899 24.5762 79.4784C24.5686 80.3253 24.6506 81.1134 23.7788 81.5393C23.7861 79.9343 24.0146 78.3626 24.4639 76.8247C24.4815 76.875 24.4973 76.9264 24.5214 76.9748Z" fill="#030303"/>
<path d="M56.9802 101.482C57.1987 102.54 57.0331 103.578 57.1377 104.622C57.237 105.611 57.64 106.294 58.4562 106.787C58.7406 106.805 58.8848 107.047 59.0592 107.208C59.4928 107.609 59.8896 107.714 60.4831 107.466C61.1402 107.191 61.5887 106.933 61.481 106.107C61.402 105.503 61.4599 104.879 61.4649 104.264C61.4661 104.075 61.44 103.822 61.7195 103.829C61.9917 103.835 61.9618 104.087 61.9683 104.277C61.9748 104.472 62.0239 104.694 61.9518 104.859C61.5098 105.87 61.6865 106.937 61.6313 107.982C61.6037 108.507 60.6 109.25 60.291 110.228C59.3763 113.126 62.5292 116.842 62.8236 116.829C63.031 116.836 63.2472 116.561 63.437 116.799C63.6019 117.005 63.4761 117.226 63.3423 117.413C63.146 117.688 63.6191 117.952 63.8177 118.323C63.8806 118.413 63.9128 118.521 63.9442 118.629C63.8637 118.861 63.9668 119.616 64.18 119.945C70.1216 129.11 60.6824 123.244 60.1173 123.847C59.0872 124.271 59.07 124.314 59.76 125.308C60.0579 125.737 60.3918 126.14 60.7181 126.548C60.952 126.84 61.1126 127.143 60.9604 127.528C61.1977 128.059 61.662 128.407 62.1262 128.653C63.2028 129.224 63.8599 127.476 64.8613 128.118C65.1266 128.288 69.0945 129.213 68.7633 128.913C68.5218 128.694 68.3458 128.413 68.5367 128.106C68.748 127.766 69.0761 127.909 69.3537 128.039C69.7781 128.238 70.1626 128.532 70.6541 128.564C71.0812 128.591 71.373 128.315 71.6938 128.104C72.2218 128.119 72.7297 128.038 73.2005 127.783C72.7451 127.448 72.6626 127.038 72.9475 126.549C73.4336 125.713 73.4635 124.843 73.0633 123.979C72.7359 123.274 72.7922 122.599 72.9678 121.863C73.3619 120.207 73.5341 118.51 73.7591 116.826C73.8285 116.308 73.9408 115.926 74.4258 115.679C74.7977 115.49 75.1772 115.278 75.4579 114.969C76.47 113.856 77.8275 113.609 79.2069 113.387C79.2165 114.372 78.942 115.252 78.4724 116.089C78.2822 116.427 78.1588 116.829 78.1438 117.209C78.1162 117.914 78.1503 118.49 77.1677 118.641C76.5907 118.73 76.7426 120.008 77.3602 120.373C78.4938 121.044 78.5138 121.221 77.8317 122.3C77.2444 123.23 76.9024 124.263 76.8073 125.367C76.7176 126.413 76.6333 126.466 75.5959 126.526C75.0369 126.558 74.3472 126.334 74.0432 127.098C76.4067 126.668 86.5831 127.307 86.9765 127.024C87.1574 126.894 90.4119 127.006 91.217 126.851C91.4689 126.802 91.6832 126.553 91.9849 126.589C91.8615 126.536 91.7258 126.42 91.6161 126.44C90.9544 126.566 90.525 126.216 90.1317 125.769C89.7985 125.766 89.4657 125.763 89.1322 125.76C89.0179 125.754 88.9037 125.748 88.7891 125.743C87.9012 125.268 86.9439 125.197 85.962 125.244C85.6043 125.262 85.2482 125.286 84.9319 125.016C84.3419 124.516 83.7289 124.041 83.1208 123.562C82.3667 122.969 82.3709 122.478 83.153 121.507C83.6135 120.935 83.9861 120.351 84.2265 119.664C84.3591 119.284 84.6386 118.88 84.9837 118.814C85.6688 118.685 85.6745 118.249 85.604 117.775C85.4966 117.051 85.7247 116.472 86.0529 115.822C86.5455 114.848 86.6084 113.691 87.116 112.697C87.6945 111.564 87.969 110.314 88.4644 109.149C88.9965 107.567 88.6603 106.81 87.3652 106.017C86.1698 105.285 84.8821 105.063 83.541 104.945C83.3232 104.926 83.0917 104.967 82.9176 104.782C82.854 104.698 82.7735 104.637 82.6769 104.597C81.5367 104.402 80.3892 104.519 79.2452 104.516C78.8592 104.546 78.4862 104.45 78.1131 104.376C78.023 104.302 77.9763 104.233 77.946 104.167C77.9602 104.042 77.9747 103.918 77.9889 103.793C78.0825 103.636 78.2251 103.484 78.2431 103.318C78.3907 102.842 78.5421 102.369 78.6571 101.885C78.8078 101.251 79.7743 97.3029 79.795 97.2991C79.8912 97.2542 79.9415 97.1786 79.9618 97.0831C81.3285 97.5251 82.688 97.9917 84.0643 98.4022C86.345 99.0826 88.6077 99.1551 90.8053 98.0615C91.5808 97.0915 92.3568 96.1211 93.1657 95.1089C93.354 95.3361 93.5272 95.9554 93.9191 95.6338C94.2607 95.3537 94.7399 94.9255 94.6172 94.3745C94.5102 93.8937 94.6828 93.789 95.0477 93.5346C95.6818 93.0914 95.4813 92.2411 95.6876 91.5796C95.5906 91.5528 95.4936 91.5255 95.397 91.4983C95.4714 91.3686 95.4978 91.2281 95.4733 91.0758C95.4671 91.044 95.4522 91.0167 95.4422 90.9868C96.2592 90.4201 97.2042 90.5325 98.1251 90.5148C98.4701 90.5083 98.8715 90.6683 99.1062 90.3199C99.1108 90.3218 99.1158 90.3226 99.1204 90.3245C99.4957 90.4174 99.4554 90.7263 99.4516 90.9975C99.4432 91.59 99.544 92.1636 99.7031 92.7311C99.9304 93.2123 99.9427 93.7395 100.035 94.2498C100.076 94.383 100.137 94.4977 100.286 94.5353C100.644 94.4889 100.807 94.7824 101.04 94.9597C101.426 95.2532 101.334 94.9056 101.353 94.7149C100.882 93.51 100.264 92.3631 99.9603 91.0919C99.7687 90.2908 99.8994 90.318 100.647 90.1242C101.649 89.8645 102.823 89.8315 103.512 88.8534C103.922 88.2736 104.307 88.259 104.733 88.7878C104.933 89.0364 105.147 89.0326 105.208 88.7563C105.301 88.34 105.555 88.3389 105.88 88.3185C107.712 88.2049 109.544 88.1025 111.377 88.2847C111.666 88.3135 111.905 88.2399 111.911 87.9175C111.918 87.5358 111.621 87.4813 111.323 87.4993C109.599 87.6025 107.874 87.6839 106.146 87.662C105.059 87.6482 105.059 87.6624 105.057 86.5792C105.057 86.4115 105.06 86.2438 105.055 86.0761C105.047 85.8302 105.12 85.5171 104.836 85.4081C104.51 85.2823 104.343 85.5616 104.188 85.7983C103.643 86.6379 102.824 86.6859 101.926 86.6648C100.336 86.6283 98.7435 86.6717 97.1517 86.6812C96.3777 86.6686 95.6032 86.6559 94.8288 86.6433C93.9632 86.6506 93.0971 86.6525 92.231 86.6678C91.5582 86.6801 90.9019 86.5965 90.2639 87.0415C89.7418 87.4053 87.8808 86.6981 87.5638 86.1207C87.3073 85.6541 87.7589 85.3479 87.8996 84.9864C88.2527 84.0786 88.2857 84.0955 87.3434 84.1388C86.7875 84.1645 86.2243 84.1196 85.7052 84.3955C85.6128 84.4446 85.4418 84.4892 85.3854 84.442C84.2905 83.5226 83.3969 84.9093 82.3422 84.7082C81.9335 84.6304 81.9412 85.1518 81.9212 85.4783C81.8959 85.8893 82.1382 86.0455 82.5017 85.9783C83.0495 85.8774 83.5659 86.2826 84.1352 86.0255C84.3465 85.9303 84.5501 86.1652 84.5639 86.4219C84.5803 86.7261 84.3292 86.6617 84.1475 86.6885C83.5655 86.7733 82.9115 86.4276 82.407 86.9782C82.2586 86.9721 82.1348 87.0155 82.0569 87.1524C81.8078 86.8274 81.4987 86.6191 81.0697 86.6444C81.0636 86.5623 81.0824 86.4671 81.0471 86.4008C80.4368 85.2646 80.4261 85.2431 81.5793 84.7528C82.0086 84.5701 82.1792 84.12 82.5849 83.9408C82.9667 83.693 83.0047 83.3676 82.7543 83.018C82.2705 82.3442 82.0171 81.6187 82.0313 80.7726C82.0416 80.1775 81.6107 79.9806 81.1131 80.1959C80.8213 80.3221 80.7167 80.3862 80.4414 80.1218C78.6345 78.3848 76.4914 78.2275 74.1965 78.8886C74.0926 78.9185 73.9757 78.9055 73.8649 78.912C72.7048 79.5505 71.6141 80.3191 71.3032 81.6732C71.0011 82.9862 70.7672 84.3552 71.3128 85.6825C71.4186 85.9403 71.4086 86.0704 71.2652 86.1187C71.1901 86.0846 71.1123 86.0608 71.0398 86.0155C69.5304 85.6414 68.2082 86.2795 66.8924 86.839C66.1199 87.1678 65.2239 87.3312 64.7087 88.1171C64.6976 88.1397 64.6918 88.1639 64.6826 88.1865C64.6757 88.1865 64.6688 88.1827 64.6615 88.1831C64.3725 87.9824 64.2904 88.2617 64.2095 88.4144C64.0684 88.6788 64.2287 88.8618 64.458 88.9923C64.4664 89.1228 64.4748 89.2528 64.4833 89.3837C64.4545 89.4539 64.42 89.5222 64.3705 89.587C64.2118 90.3034 63.835 90.9216 63.4834 91.5505C62.5706 92.8355 61.5976 94.0775 60.7346 95.399C60.5575 95.9818 59.9272 96.4995 60.4447 97.1809C60.4382 97.1817 60.4313 97.1805 60.4248 97.1813C60.2143 97.4269 60.1212 97.776 59.7263 97.8524C59.0178 97.9886 58.7276 98.5035 58.6218 99.1627C58.6195 99.1954 58.6302 99.2192 58.631 99.2495C57.709 99.3995 56.7724 100.473 56.9802 101.482ZM82.2065 87.1705H82.2348C82.2264 87.1743 82.2172 87.1755 82.2091 87.1804C82.208 87.177 82.2076 87.1735 82.2065 87.1705ZM84.4837 91.2385C84.4672 91.2293 84.4515 91.217 84.435 91.2059C84.4381 91.2017 84.4416 91.1971 84.4446 91.1928C84.4462 91.1928 84.4481 91.1928 84.4496 91.1932C84.45 91.1936 84.4504 91.1936 84.4508 91.194C84.4611 91.2128 84.473 91.2216 84.4837 91.2385ZM84.4412 91.1871C84.4427 91.1882 84.4442 91.1886 84.4454 91.1902C84.4439 91.1909 84.4419 91.1925 84.4419 91.1925C84.4419 91.1905 84.4412 91.189 84.4412 91.1871ZM95.1742 90.5049C95.1328 90.4377 95.0953 90.3694 95.0688 90.2942C94.9377 89.4746 94.9611 89.4669 95.7137 89.6231C97.0931 89.909 98.4751 89.7501 99.8392 89.5214C99.9542 89.5019 100.068 89.4896 100.179 89.4796C99.8292 89.5283 99.4539 89.5959 99.0736 89.6534C98.8436 89.6887 98.5445 89.6235 98.4843 89.9788C98.4889 89.9861 98.4955 89.9888 98.5001 89.9961H98.4989C97.8855 89.9976 97.2694 89.9669 96.6591 90.0114C96.1837 90.0459 95.5718 89.7789 95.3161 90.4968C95.31 90.5141 95.2494 90.5121 95.1742 90.5049ZM89.6547 92.771C90.1033 92.0738 90.8881 91.9867 91.4881 91.6134C91.4283 91.7396 91.3949 91.8674 91.4421 92.0005C91.1043 91.7431 90.8348 91.9633 90.5637 92.1414C90.2689 92.3347 90.0512 92.639 89.6547 92.771ZM84.4013 92.0516C84.6543 92.0159 84.9012 91.9399 85.16 91.9207C85.6703 91.882 86.0866 91.9959 86.3439 92.4602C86.0525 92.2872 85.7711 92.4487 85.4901 92.5462C85.1822 92.6532 84.9043 92.8696 84.5593 92.8059C84.3373 92.6056 84.7644 92.1916 84.4013 92.0516ZM81.4087 90.8421C81.4087 90.8398 81.409 90.8379 81.4094 90.8356C81.4106 90.836 81.4113 90.836 81.4125 90.8364C81.4113 90.8383 81.4098 90.8402 81.4087 90.8421Z" fill="#030303"/>
<path d="M277.454 133.011C277.359 132.533 277.207 132.052 276.936 131.56C276.482 131.974 276.14 132.396 275.85 132.823C275.708 132.806 275.565 132.79 275.423 132.773C275.39 132.046 275.296 131.319 275.128 130.592C274.905 129.674 274.595 128.756 273.997 127.839C273.4 128.756 273.09 129.674 272.866 130.592C272.724 131.209 272.637 131.828 272.592 132.445C272.01 132.379 271.429 132.313 270.849 132.247C270.775 132.041 270.693 131.835 270.598 131.633C270.308 131.021 269.926 130.426 269.434 129.85C268.932 129.275 268.346 128.715 267.483 128.204C267.197 128.916 267.187 129.579 267.26 130.229C267.335 130.799 267.498 131.354 267.731 131.898C267.013 131.818 266.295 131.738 265.58 131.66C265.56 131.455 265.533 131.25 265.499 131.045C265.48 130.929 265.455 130.811 265.431 130.694C266.252 129.562 266.988 128.406 267.624 127.223C268.263 126.013 268.822 124.782 269.117 123.48C267.729 124.487 266.604 125.565 265.557 126.665C265.165 127.082 264.792 127.505 264.429 127.93C264.14 127.401 263.786 126.876 263.294 126.359C262.828 127.19 262.647 128.004 262.554 128.812C262.501 129.328 262.499 129.84 262.534 130.351C262.376 130.571 262.22 130.792 262.069 131.014C262.039 130.717 261.976 130.419 261.867 130.119C261.674 129.624 261.396 129.128 260.83 128.624C260.269 129.049 259.943 129.478 259.697 129.91C259.755 129.625 259.799 129.339 259.822 129.053C259.878 128.348 259.839 127.641 259.686 126.931C259.521 126.22 259.27 125.507 258.731 124.784C258.076 125.47 257.708 126.164 257.427 126.862C257.157 127.559 257 128.26 256.94 128.964C256.914 129.264 256.911 129.565 256.923 129.866C256.825 129.695 256.72 129.524 256.607 129.354C256.165 128.708 255.638 128.072 254.828 127.471C254.466 128.216 254.386 128.927 254.391 129.627C254.398 129.919 254.428 130.208 254.473 130.495C253.797 130.427 253.124 130.36 252.451 130.293C252.404 129.995 252.351 129.697 252.291 129.4C252.335 129.119 252.354 128.834 252.345 128.546C252.315 127.967 252.201 127.377 251.805 126.751C251.741 126.791 251.689 126.832 251.629 126.872C251.425 126.237 251.193 125.605 250.927 124.975C250.418 123.802 249.824 122.636 248.946 121.496C248.642 122.742 248.622 123.962 248.689 125.175C248.768 126.387 248.957 127.589 249.243 128.782C249.298 129.01 249.36 129.238 249.422 129.465C249.361 129.603 249.307 129.741 249.258 129.88C249.248 129.913 249.24 129.945 249.229 129.978C248.74 129.931 248.253 129.884 247.765 129.838C247.775 129.215 247.701 128.581 247.361 127.908C246.546 128.435 246.013 129.001 245.563 129.579C245.551 129.595 245.542 129.61 245.531 129.626C245.317 129.606 245.104 129.586 244.891 129.566C244.888 129.56 244.886 129.554 244.882 129.549C244.935 129.449 244.99 129.35 245.039 129.249C245.392 128.517 245.654 127.768 245.806 126.999C245.949 126.228 246.007 125.443 245.79 124.607C244.861 125.237 244.208 125.915 243.638 126.609C243.468 126.821 243.311 127.035 243.16 127.251C242.764 126.895 242.301 126.552 241.696 126.236C241.639 126.367 241.6 126.495 241.563 126.622C241.594 125.996 241.552 125.369 241.416 124.738C241.252 124.027 241 123.314 240.462 122.591C239.807 123.277 239.439 123.972 239.158 124.668C238.888 125.366 238.731 126.067 238.671 126.771C238.654 126.968 238.647 127.166 238.646 127.364C238.562 127.21 238.472 127.058 238.372 126.906C237.991 126.348 237.525 125.798 236.775 125.277C236.346 125.919 236.201 126.531 236.142 127.135C236.097 127.697 236.153 128.248 236.289 128.792C235.483 128.722 234.677 128.652 233.873 128.584C234.113 128.211 234.31 127.828 234.465 127.437C234.763 126.651 234.91 125.839 234.71 124.994C233.767 125.626 233.058 126.268 232.377 126.907C232.071 127.201 231.778 127.494 231.492 127.787C231.402 127.657 231.307 127.527 231.205 127.398C230.803 126.907 230.318 126.428 229.607 125.981C230.021 125.337 230.409 124.686 230.764 124.027C231.402 122.817 231.961 121.586 232.257 120.283C230.869 121.291 229.743 122.369 228.697 123.469C228.499 123.679 228.308 123.893 228.117 124.105C228.079 124.005 228.044 123.904 227.992 123.801C227.164 124.217 226.611 124.682 226.142 125.163C226.031 125.28 225.928 125.398 225.83 125.517C225.751 125.397 225.665 125.278 225.562 125.161C225.246 124.815 224.844 124.478 224.158 124.168C223.664 124.592 223.454 124.988 223.329 125.377C223.215 125.764 223.212 126.141 223.308 126.507C223.401 126.875 223.595 127.233 223.9 127.58C223.965 127.651 224.037 127.722 224.112 127.793C223.734 127.763 223.356 127.734 222.979 127.705C223.033 127.152 222.997 126.608 222.87 126.071C222.734 125.491 222.502 124.92 222.158 124.358C221.802 123.797 221.361 123.244 220.634 122.715C220.177 123.346 220.005 123.951 219.918 124.55C219.844 125.148 219.88 125.737 220.014 126.316C220.106 126.72 220.249 127.119 220.443 127.514C220.358 127.508 220.272 127.501 220.187 127.495C219.946 127.126 219.68 126.762 219.385 126.403C218.797 125.705 218.126 125.023 217.18 124.393C216.984 125.238 217.063 126.031 217.224 126.809C217.26 126.97 217.303 127.129 217.347 127.288C216.534 127.228 215.722 127.171 214.912 127.114C215.153 126.458 215.299 125.799 215.351 125.137C215.408 124.433 215.368 123.727 215.216 123.016C215.051 122.305 214.8 121.592 214.261 120.869C213.606 121.555 213.238 122.25 212.957 122.947C212.718 123.564 212.573 124.184 212.5 124.807C212.245 123.913 211.936 123.025 211.562 122.142C211.054 120.969 210.46 119.803 209.581 118.663C209.277 119.909 209.258 121.13 209.325 122.342C209.403 123.554 209.593 124.755 209.879 125.948C209.946 126.228 210.019 126.506 210.097 126.785C209.915 126.773 209.732 126.76 209.55 126.748C209.544 126.736 209.54 126.724 209.533 126.712C209.277 126.207 208.928 125.721 208.47 125.254C208.002 124.789 207.451 124.341 206.624 123.943C206.308 124.554 206.267 125.114 206.309 125.658C206.338 125.962 206.405 126.259 206.5 126.55C206.458 126.548 206.415 126.545 206.373 126.542C206.059 125.873 205.689 125.213 205.257 124.563C205.617 124.106 205.938 123.636 206.208 123.149C206.588 122.443 206.892 121.711 206.944 120.895C205.843 121.362 204.995 121.914 204.224 122.49C204.095 122.588 203.973 122.688 203.85 122.788C203.56 122.482 203.252 122.179 202.896 121.883C202.804 122.345 202.776 122.796 202.787 123.241C202.426 122.883 202.01 122.533 201.478 122.203C201.17 122.915 201.14 123.583 201.194 124.236C201.231 124.605 201.307 124.967 201.411 125.325C201.204 125.611 201.017 125.904 200.845 126.202C200.564 126.185 200.285 126.169 200.005 126.153C199.664 125.442 199.244 124.744 198.726 124.063C198.588 123.884 198.444 123.707 198.294 123.531C198.382 123.374 198.474 123.218 198.559 123.059C199.197 121.85 199.756 120.619 200.053 119.316C198.812 120.216 197.787 121.173 196.835 122.151C196.75 122.085 196.674 122.018 196.584 121.953C196.534 122.143 196.503 122.33 196.478 122.517C195.919 123.114 195.391 123.719 194.888 124.332C194.819 124.211 194.748 124.09 194.668 123.97C194.288 123.411 193.822 122.861 193.072 122.341C192.832 122.699 192.687 123.047 192.59 123.391C192.435 123.112 192.274 122.835 192.1 122.56C191.549 121.689 190.908 120.839 190.161 120.014C189.403 119.191 188.564 118.387 187.457 117.646C187.448 118.648 187.708 119.586 188.049 120.506C188.296 121.149 188.597 121.779 188.942 122.398C188.337 123.138 187.865 123.894 187.443 124.655C187.298 124.922 187.163 125.189 187.034 125.457C186.946 125.452 186.858 125.448 186.77 125.444C186.762 125.415 186.753 125.386 186.744 125.356C186.838 124.977 186.903 124.596 186.935 124.214C186.995 123.511 186.959 122.804 186.809 122.093C186.649 121.382 186.401 120.668 185.866 119.945C185.371 120.46 185.039 120.979 184.783 121.501C184.338 120.907 183.817 120.323 183.137 119.762C182.874 120.671 182.892 121.541 182.994 122.398C183.108 123.253 183.331 124.093 183.65 124.92C183.699 125.048 183.755 125.176 183.81 125.304C182.941 125.264 182.078 125.226 181.215 125.188C181.234 125.051 181.253 124.914 181.265 124.776C181.325 124.072 181.288 123.366 181.139 122.655C180.978 121.944 180.731 121.23 180.196 120.507C179.537 121.192 179.166 121.885 178.881 122.581C178.818 122.742 178.763 122.904 178.711 123.065C178.653 122.387 178.542 121.71 178.367 121.033C178.12 120.117 177.786 119.203 177.164 118.29C176.591 119.214 176.305 120.135 176.107 121.055C175.92 121.975 175.845 122.894 175.868 123.812C175.877 124.197 175.908 124.583 175.954 124.968C175.769 124.96 175.584 124.953 175.399 124.945C175.416 124.841 175.436 124.736 175.448 124.632C175.519 123.945 175.479 123.266 175.338 122.595C175.198 121.925 174.962 121.261 174.613 120.606C174.254 119.952 173.808 119.305 173.076 118.679C172.621 119.395 172.453 120.09 172.37 120.778C172.344 121.021 172.338 121.263 172.34 121.504C172.273 121.428 172.209 121.351 172.139 121.276C171.383 120.472 170.548 119.687 169.443 118.965C169.434 119.951 169.693 120.873 170.033 121.776C170.104 121.959 170.182 122.14 170.262 122.32C170.209 122.242 170.159 122.164 170.1 122.087C169.69 121.568 169.171 121.059 168.289 120.582C167.879 120.984 167.627 121.372 167.459 121.753C167.282 121.475 167.053 121.197 166.715 120.916C166.26 121.24 165.959 121.566 165.731 121.895C165.345 121.531 164.853 121.179 164.066 120.86C163.457 121.372 163.203 121.846 163.056 122.307C162.922 122.768 162.927 123.213 163.055 123.645C163.141 123.947 163.294 124.243 163.509 124.532C163.427 124.529 163.346 124.528 163.264 124.525C163.192 124.29 163.113 124.058 163.029 123.826C162.794 123.204 162.508 122.593 162.182 121.992C162.614 121.625 163.012 121.24 163.365 120.833C163.87 120.237 164.307 119.608 164.521 118.869C163.378 119.151 162.458 119.543 161.607 119.969C161.431 120.058 161.263 120.15 161.096 120.243C160.685 119.659 160.236 119.084 159.735 118.521C158.978 117.685 158.14 116.867 157.032 116.111C157.022 117.124 157.28 118.075 157.619 119.006C157.912 119.785 158.283 120.544 158.715 121.29C158.682 121.333 158.645 121.375 158.613 121.418C158.33 121.806 158.104 122.203 157.925 122.604C157.849 122.682 157.779 122.763 157.706 122.842C157.565 122.556 157.369 122.275 157.106 122.002C156.703 121.6 156.194 121.211 155.329 120.86C154.721 121.372 154.466 121.846 154.319 122.307C154.186 122.768 154.19 123.213 154.318 123.645C154.381 123.866 154.479 124.084 154.61 124.298C154.169 124.288 153.727 124.278 153.287 124.268C153.311 124.203 153.339 124.138 153.362 124.074C153.571 123.431 153.667 122.789 153.662 122.146C153.658 121.504 153.557 120.862 153.343 120.22C153.117 119.577 152.805 118.935 152.205 118.294C151.61 118.937 151.302 119.58 151.082 120.222C151.018 120.418 150.968 120.613 150.925 120.808C150.869 120.725 150.816 120.641 150.753 120.559C150.343 120.04 149.823 119.532 148.942 119.054C148.319 119.664 148.058 120.242 147.907 120.81C147.808 121.218 147.785 121.619 147.826 122.015C147.517 121.631 147.086 121.247 146.332 120.864C146.314 120.873 146.299 120.882 146.281 120.892C146.398 120.219 146.436 119.532 146.245 118.801C145.315 119.392 144.66 120.036 144.088 120.695C144.055 120.734 144.026 120.773 143.994 120.812C143.658 120.282 143.273 119.763 142.83 119.255C142.688 119.097 142.541 118.94 142.389 118.784C142.348 118.619 142.298 118.452 142.231 118.283C142.155 118.331 142.093 118.381 142.022 118.43C141.593 118.027 141.115 117.634 140.533 117.263C140.381 118.082 140.484 118.85 140.666 119.602C140.535 119.746 140.409 119.891 140.29 120.037C139.802 120.649 139.424 121.277 139.139 121.921C139.05 122.124 138.973 122.328 138.903 122.533C138.823 122.177 138.684 121.826 138.473 121.487C138.118 120.916 137.582 120.376 136.859 119.926C136.784 119.88 136.706 119.836 136.627 119.792C136.561 119.319 136.429 118.839 136.153 118.342C135.77 118.624 135.456 118.914 135.185 119.209C134.85 119.121 134.494 119.056 134.117 119.029C134.287 119.374 134.44 119.676 134.587 119.962C134.545 120.023 134.499 120.082 134.458 120.143C134.056 120.761 133.764 121.392 133.569 122.033C133.372 122.675 133.275 123.327 133.289 123.992C133.289 123.994 133.289 123.994 133.289 123.995C133.154 123.995 133.02 123.994 132.885 123.994C133.038 123.665 133.113 123.335 133.11 123.006C133.11 122.59 132.993 122.173 132.745 121.756C132.485 121.34 132.123 120.924 131.426 120.507C130.729 120.924 130.368 121.34 130.107 121.756C129.86 122.173 129.742 122.59 129.743 123.006C129.74 123.332 129.813 123.657 129.961 123.982C129.179 123.98 128.399 123.979 127.623 123.978C127.842 123.54 128.036 123.099 128.204 122.654C128.543 121.763 128.787 120.858 128.922 119.938C129.044 119.016 129.083 118.082 128.841 117.109C127.918 117.918 127.277 118.766 126.719 119.627C126.173 120.487 125.737 121.364 125.395 122.254C125.393 122.142 125.388 122.03 125.375 121.918C125.311 121.365 125.118 120.817 124.784 120.276C124.435 119.735 123.974 119.199 123.146 118.679C122.446 119.265 122.113 119.835 121.892 120.4C121.869 120.462 121.854 120.524 121.835 120.586C121.561 120.179 121.217 119.777 120.72 119.384C120.22 120.001 120.006 120.602 119.878 121.196C119.762 121.79 119.758 122.378 119.851 122.959C119.906 123.307 120.002 123.652 120.131 123.995C119.108 124 118.091 124.008 117.079 124.015C117.511 123.275 117.867 122.519 118.128 121.74C118.399 120.899 118.589 120.039 118.509 119.119C117.467 119.788 116.696 120.517 116.006 121.265C115.327 122.015 114.754 122.79 114.272 123.584C114.18 123.736 114.093 123.89 114.008 124.044C111.538 124.071 109.102 124.105 106.696 124.146C107.381 123.621 108.006 123.074 108.568 122.504C109.251 121.812 109.851 121.089 110.354 120.332C110.847 119.57 111.266 118.781 111.439 117.903C110.242 118.406 109.292 119 108.417 119.622C107.812 120.059 107.257 120.514 106.741 120.984C106.767 120.926 106.795 120.869 106.817 120.811C107.005 120.291 107.115 119.749 106.969 119.125C106.358 119.319 105.866 119.55 105.429 119.798C105.384 119.572 105.338 119.346 105.285 119.121C105.004 117.995 104.637 116.87 103.982 115.751C103.695 116.357 103.493 116.962 103.338 117.567C103.137 117.186 102.905 116.806 102.612 116.429C102.094 117.337 101.863 118.236 101.719 119.131C101.586 120.027 101.567 120.919 101.643 121.807C101.714 122.619 101.872 123.427 102.119 124.232C100.635 124.263 99.1638 124.297 97.7058 124.333C97.7529 123.719 97.6981 123.116 97.5471 122.521C97.3914 121.908 97.1407 121.304 96.778 120.71C96.4038 120.117 95.9442 119.532 95.2 118.973C94.7626 119.641 94.6096 120.283 94.5429 120.917C94.4869 121.549 94.5433 122.172 94.6947 122.785C94.8289 123.328 95.0467 123.865 95.3461 124.394C93.6102 124.441 91.8934 124.49 90.195 124.544C90.1091 124.191 90.0114 123.842 89.8929 123.493C89.5989 122.629 89.2101 121.775 88.7102 120.936C88.1995 120.099 87.6034 119.272 86.7258 118.48C86.4325 119.419 86.4214 120.321 86.4954 121.214C86.5069 121.335 86.5261 121.456 86.5418 121.577C86.1209 121.144 85.6186 120.724 84.8615 120.345C84.7852 120.47 84.7269 120.591 84.6744 120.712C84.539 120.295 84.3535 119.875 84.0652 119.45C83.372 120.123 82.9657 120.81 82.6459 121.502C82.3373 122.195 82.1414 122.893 82.0421 123.596C81.9838 124.007 81.9643 124.419 81.9765 124.832C81.8864 124.836 81.7952 124.839 81.7047 124.843C81.7875 124.48 81.8447 124.117 81.8473 123.752C81.8431 122.756 81.5583 121.753 80.8015 120.86C80.4733 121.592 80.1934 122.273 79.899 122.934C79.5685 122.739 79.184 122.557 78.6814 122.402C78.3433 122.895 78.2746 123.328 78.2873 123.743C78.3111 124.155 78.4391 124.544 78.6618 124.911C78.6722 124.929 78.6864 124.947 78.6979 124.965C78.3973 124.977 78.0998 124.99 77.8012 125.003C77.8828 124.697 77.9476 124.39 77.989 124.081C78.0852 123.378 78.0845 122.669 77.9714 121.955C77.8468 121.241 77.6355 120.522 77.1371 119.788C76.4444 120.461 76.0376 121.148 75.7179 121.84C75.4096 122.532 75.2137 123.231 75.1144 123.934C75.0585 124.33 75.0378 124.726 75.0474 125.124C74.9197 125.13 74.7913 125.136 74.664 125.141C74.792 124.562 74.8434 123.984 74.8158 123.406C74.784 122.733 74.6555 122.062 74.4136 121.392C74.1606 120.723 73.8205 120.055 73.1926 119.392C72.6255 120.075 72.3457 120.753 72.1528 121.43C71.9822 122.068 71.9148 122.703 71.9313 123.338C71.9021 123.314 71.8768 123.291 71.8469 123.268C71.4145 122.947 70.9011 122.644 70.1183 122.402C69.7805 122.895 69.7119 123.328 69.7241 123.743C69.7479 124.155 69.876 124.544 70.0987 124.911C70.1869 125.06 70.2954 125.203 70.4154 125.344C70.2337 125.353 70.0504 125.363 69.8691 125.371C69.8211 125.013 69.7261 124.661 69.5804 124.318C69.3711 123.823 69.0678 123.342 68.6545 122.878C68.2309 122.416 67.7229 121.967 66.9358 121.562C66.6828 121.96 66.5651 122.338 66.5095 122.706C66.3504 122.461 66.1537 122.216 65.8911 121.969C65.2635 122.476 64.9235 122.99 64.6704 123.505C64.4289 124.021 64.3001 124.538 64.2683 125.059C64.2556 125.261 64.2629 125.464 64.2817 125.667C63.7331 125.698 63.1852 125.728 62.642 125.759C62.6957 125.48 62.7302 125.2 62.7405 124.92C62.7635 124.307 62.6903 123.693 62.5032 123.078C62.3054 122.462 62.0205 121.846 61.4478 121.225C60.8255 121.828 60.4905 122.436 60.2428 123.045C60.0066 123.653 59.8832 124.264 59.8564 124.876C59.841 125.223 59.8621 125.571 59.9143 125.919C59.2 125.962 58.4908 126.006 57.7865 126.049C57.9368 125.823 58.0614 125.592 58.1588 125.357C58.3501 124.899 58.4474 124.426 58.4356 123.935C58.4126 123.443 58.3052 122.938 57.9192 122.39C57.1474 122.758 56.6544 123.168 56.2449 123.594C55.847 124.02 55.5587 124.463 55.3639 124.922C55.1853 125.341 55.0929 125.774 55.0875 126.22C53.6046 126.317 52.1451 126.415 50.709 126.514C50.7442 126.428 50.7795 126.343 50.8086 126.256C50.9708 125.768 51.0387 125.268 50.9957 124.754C50.9417 124.239 50.8025 123.713 50.3808 123.152C49.6313 123.567 49.1636 124.017 48.7809 124.478C48.4091 124.94 48.148 125.416 47.9824 125.904C47.8907 126.172 47.8321 126.444 47.8026 126.72C46.7475 126.796 45.7074 126.873 44.6792 126.951C44.7792 126.718 44.8686 126.483 44.9383 126.246C45.1201 125.632 45.2063 125.007 45.1814 124.37C45.145 123.731 45.0234 123.084 44.6186 122.405C43.8472 122.954 43.3592 123.535 42.9563 124.124C42.5652 124.716 42.2846 125.319 42.1002 125.933C41.9767 126.339 41.9024 126.751 41.8702 127.168C40.4724 127.278 39.0983 127.389 37.7527 127.501C37.7312 127.232 37.6902 126.963 37.6223 126.691C37.4636 126.101 37.2182 125.507 36.6861 124.902C36.5082 125.051 36.3541 125.203 36.2142 125.354C35.8906 124.956 35.5333 124.567 35.1296 124.19C34.4817 123.596 33.7537 123.023 32.7599 122.517C32.6856 123.049 32.7389 123.548 32.8504 124.033C32.7208 123.832 32.5774 123.631 32.416 123.431C31.8763 124.273 31.624 125.107 31.4584 125.939C31.3269 126.649 31.282 127.357 31.3054 128.063C31.2506 128.068 31.1954 128.073 31.1413 128.078C31.06 127.459 30.922 126.841 30.72 126.225C30.4401 125.405 30.0732 124.586 29.4184 123.775C28.8786 124.617 28.6263 125.451 28.4611 126.283C28.4546 126.316 28.4515 126.35 28.4458 126.383C28.3764 126.265 28.3124 126.147 28.2303 126.028C28.0333 126.254 27.8692 126.48 27.7185 126.707C27.3018 126.407 26.8068 126.124 26.0688 125.896C25.7311 126.389 25.6628 126.822 25.6751 127.237C25.6989 127.649 25.8269 128.038 26.0497 128.405C26.0784 128.454 26.1133 128.5 26.1451 128.548C25.5969 128.601 25.0548 128.654 24.5184 128.707C24.832 128.185 25.0824 127.649 25.2522 127.092C25.4409 126.438 25.5482 125.763 25.3887 125.024C24.4376 125.494 23.754 126.029 23.1513 126.583C23.0965 126.634 23.0474 126.687 22.9945 126.739C23.1019 126.229 23.1375 125.702 23.0152 125.137C22.0641 125.607 21.3809 126.141 20.7782 126.696C20.1859 127.253 19.6986 127.835 19.3014 128.439C19.209 128.579 19.1232 128.721 19.0407 128.864C18.9476 128.667 18.8448 128.471 18.7222 128.276C18.6635 128.185 18.5972 128.096 18.532 128.006C18.4852 127.552 18.4005 127.099 18.2644 126.646C18.0413 125.942 17.7311 125.239 17.1338 124.535C16.5357 125.239 16.2264 125.942 16.0028 126.646C15.9729 126.745 15.9507 126.844 15.925 126.943C15.7778 126.846 15.6218 126.75 15.4477 126.658C15.0502 127.23 14.9332 127.764 14.901 128.286C14.8941 128.455 14.9029 128.622 14.9187 128.787C14.8734 128.685 14.8293 128.583 14.7768 128.481C14.472 127.91 14.081 127.342 13.4032 126.791C12.8898 127.405 12.664 128.004 12.5241 128.599C12.4708 128.846 12.4409 129.092 12.4252 129.337C12.1633 128.94 11.8336 128.546 11.3586 128.159C10.8453 128.773 10.6194 129.372 10.4791 129.967C10.478 129.974 10.4772 129.98 10.4757 129.987C10.338 129.627 10.1544 129.272 9.91901 128.925C9.82777 128.696 9.71505 128.465 9.55059 128.228C9.50879 128.256 9.47621 128.284 9.43595 128.311C9.05948 127.892 8.60556 127.482 7.93694 127.103C7.54551 127.702 7.4351 128.263 7.40865 128.814C7.39523 129.311 7.47689 129.795 7.63331 130.27C7.5758 130.372 7.51945 130.474 7.4696 130.577C7.4627 130.534 7.45888 130.49 7.45159 130.447C7.29211 129.584 7.04559 128.719 6.51193 127.846C5.85137 128.686 5.47834 129.535 5.19234 130.385C5.13752 130.556 5.09036 130.726 5.04397 130.897C5.00027 130.356 4.8841 129.816 4.67478 129.278C4.42635 128.669 4.09128 128.061 3.46866 127.459C2.89629 128.08 2.61182 128.697 2.414 129.312C2.24147 129.882 2.1694 130.45 2.17821 131.017C1.95049 130.566 1.64762 130.116 1.18565 129.668C0.664262 130.234 0.38631 130.797 0.190397 131.357C-0.0687647 130.901 -0.419934 130.463 -0.878074 130.048C-1.34694 129.634 -1.89825 129.238 -2.72174 128.898C-3.02883 129.474 -3.06372 129.992 -3.01656 130.494C-2.95867 130.993 -2.79382 131.47 -2.53772 131.927C-3.05221 132.001 -3.53987 132.072 -4.0007 132.14C-4.01564 132.123 -4.02906 132.105 -4.0444 132.088C-4.62829 131.437 -5.2946 130.802 -6.23502 130.221C-6.42709 131.011 -6.35541 131.75 -6.20167 132.471C-6.51144 132.519 -6.79859 132.563 -7.06887 132.606C-7.31155 132.116 -7.63397 131.626 -8.16917 131.142C-8.73465 131.735 -9.01261 132.323 -9.20352 132.909C-9.20773 132.924 -9.21043 132.938 -9.21502 132.953C-9.58038 133.014 -9.76709 133.047 -9.76709 133.047V173.926H277.767V133.047C277.663 133.035 277.559 133.023 277.454 133.011ZM241.432 127.695C241.437 127.831 241.446 127.966 241.462 128.1C241.516 128.502 241.624 128.894 241.773 129.278C241.502 129.254 241.233 129.23 240.962 129.206C240.997 129.124 241.036 129.043 241.069 128.962C241.232 128.541 241.349 128.119 241.432 127.695ZM229.136 126.697C229.043 127.041 229.005 127.377 229.001 127.709C229.003 127.868 229.014 128.026 229.032 128.183C228.727 128.158 228.421 128.133 228.115 128.108C228.252 127.928 228.39 127.749 228.522 127.567C228.732 127.279 228.937 126.988 229.136 126.697ZM196.978 125.978C196.907 125.975 196.835 125.971 196.764 125.966C196.81 125.9 196.858 125.835 196.903 125.769C196.927 125.839 196.953 125.909 196.978 125.978ZM189.66 124.925C189.706 124.519 189.733 124.11 189.743 123.699C190.198 124.37 190.71 125.028 191.286 125.67C190.71 125.641 190.135 125.611 189.561 125.582C189.597 125.364 189.633 125.145 189.66 124.925ZM171.385 124.407C171.47 124.54 171.561 124.671 171.651 124.803C171.423 124.795 171.194 124.787 170.967 124.779C170.995 124.408 170.969 124.042 170.881 123.682C170.859 123.591 170.829 123.501 170.8 123.411C170.983 123.746 171.175 124.078 171.385 124.407ZM160.436 123.762C160.588 123.946 160.743 124.131 160.905 124.313C160.951 124.363 160.999 124.412 161.045 124.462C160.737 124.453 160.428 124.444 160.121 124.435C160.242 124.213 160.347 123.988 160.436 123.762ZM148.767 124.179C148.594 124.176 148.421 124.172 148.249 124.169C148.317 123.981 148.355 123.794 148.368 123.607C148.461 123.762 148.561 123.916 148.678 124.07C148.707 124.106 148.737 124.142 148.767 124.179ZM140.928 124.061C141.326 123.533 141.648 122.994 141.895 122.441C142.067 122.721 142.255 122.997 142.456 123.271C142.339 123.536 142.241 123.805 142.152 124.076C141.744 124.071 141.335 124.065 140.928 124.061ZM136.243 122.831C136.403 123.066 136.573 123.302 136.757 123.541C136.881 123.7 137.012 123.86 137.15 124.023C136.652 124.018 136.156 124.014 135.66 124.01C135.895 123.622 136.092 123.229 136.243 122.831ZM84.9082 123.794C85.0685 124.103 85.2694 124.406 85.5132 124.701C85.2464 124.711 84.9788 124.72 84.7127 124.73C84.7986 124.418 84.8638 124.107 84.9082 123.794ZM67.1222 125.404C67.1436 125.44 67.1639 125.475 67.1862 125.509C67.1613 125.511 67.1356 125.512 67.1106 125.513C67.1164 125.477 67.1179 125.441 67.1222 125.404ZM33.8698 126.4C33.9388 126.51 34.0059 126.62 34.0799 126.728C34.3157 127.075 34.5806 127.414 34.872 127.746C34.6301 127.768 34.3862 127.788 34.1462 127.809C34.088 127.339 33.9963 126.869 33.8698 126.4Z" fill="#030303"/>
</svg>
