<svg width="170" height="160" viewBox="0 0 170 160" fill="none" xmlns="http://www.w3.org/2000/svg">
<path d="M157.039 79.0298C156.539 40.7348 126.006 9.57375 87.9821 8.01855L88.3102 0.185484L84.0299 0L83.6874 7.96147C44.8788 8.6606 13.4752 40.1783 12.9615 79.0298H0.81958V83.3102H13.0329C14.745 121.063 45.635 151.339 83.6446 152.039L84.0299 160L88.3102 159.786L87.925 151.981C125.193 150.498 155.284 120.535 156.967 83.3102H169.181V79.0298H157.039ZM85.0001 147.772C47.6325 147.772 17.2276 117.368 17.2276 80C17.2276 42.6182 47.6325 12.2276 85.0001 12.2276C122.368 12.2276 152.773 42.6182 152.773 80C152.773 117.368 122.368 147.772 85.0001 147.772Z" fill="#030303"/>
<path d="M114.215 97.8402H112.264L111.607 97.1825C117.305 90.5536 116.552 80.5618 109.923 74.8632C107.049 72.392 103.383 71.0323 99.5931 71.0352C90.8783 71.1136 83.8328 78.1591 83.7543 86.8725H77.6377L86.9946 96.6232L97.1233 86.8725H88.6225C88.6225 80.8158 93.535 75.9062 99.5903 75.9062C105.647 75.9062 110.558 80.8158 110.558 86.8725C110.558 92.9306 105.647 97.8402 99.5903 97.8402C98.065 97.8374 96.5541 97.5221 95.1558 96.9157L91.5489 100.521C97.3773 103.968 104.755 103.312 109.885 98.8889L110.541 99.5467V101.471L122.748 113.629L126.38 110.024L114.215 97.8402Z" fill="#B29F82"/>
<path d="M77.6377 86.7551C77.6434 83.853 78.3154 80.9908 79.6038 78.3898C78.7292 78.2172 77.8403 78.1273 76.9486 78.1201H75.1465C70.1542 80.423 64.4014 80.423 59.4091 78.1201H57.607C49.5956 78.1216 43.1037 84.6163 43.1023 92.6277V97.1178C43.1037 99.9785 45.4223 102.297 48.283 102.297H85.7433C80.6696 98.7472 77.6448 92.9473 77.6377 86.7551ZM67.2778 74.6673C74.9083 74.6673 81.0948 68.4836 81.0948 60.8531C81.0962 53.2227 74.9111 47.0376 67.2806 47.0361C59.6502 47.0347 53.4622 53.2198 53.4622 60.8503V60.8531C53.4622 68.4822 59.6488 74.6673 67.2778 74.6673Z" fill="#B29F82"/>
</svg>
