<svg width="204" height="274" viewBox="0 0 204 274" fill="none" xmlns="http://www.w3.org/2000/svg">
<g filter="url(#filter0_d_6_154)">
<path d="M118.105 19.9162C117.427 19.5328 116.151 18.4526 116.477 17.1981C116.884 15.63 117.834 9.14844 111.32 7.47579C106.109 6.13767 93.3155 5.94252 87.5704 6.01222C85.9419 6.39553 82.6305 7.97757 82.4134 11.2392C82.1962 14.5009 80.5134 17.3375 79.6992 18.348C75.6278 18.2086 67.268 18.5571 66.3995 21.0661C65.5309 23.5751 76.5326 23.6448 82.142 23.366L79.6992 26.5022C79.0206 27.3037 77.9078 29.0112 78.8849 29.4294C79.862 29.8475 81.1015 30.0914 81.5991 30.1611V31.4156C81.4182 31.799 81.2734 32.6074 82.142 32.7747C83.2276 32.9837 82.6848 33.611 82.142 33.611C81.7077 33.611 81.7801 34.3776 81.8705 34.7609C82.4134 34.8655 83.4991 35.1164 83.4991 35.2836C83.4991 35.4927 83.6348 36.0154 83.2276 36.2245C82.8205 36.4336 83.4991 40.1971 87.1633 39.5698C90.8275 38.9426 95.1702 40.8243 94.6274 41.4516C94.1931 41.9534 91.9131 41.6606 90.8275 41.4516L91.6417 45.7377C87.5252 48.8391 79.2106 56.1082 78.8849 60.3735C78.8849 60.3735 75.6731 66.3323 74.2707 66.6459L70.8779 68.6322L70.4708 69.364C69.9732 69.364 68.9509 69.5731 68.8423 70.4094C68.7337 71.2457 68.5256 73.5456 68.4352 74.591C67.6661 75.1834 66.1823 76.7864 66.3995 78.459C66.6709 80.5499 67.6209 85.986 65.0424 88.8086H63.5495C63.2329 89.5404 62.491 91.0458 62.0567 91.213C61.5139 91.4221 65.0424 91.7357 65.1781 90.7949C65.2867 90.0422 67.0328 87.4147 67.8923 86.1951H68.4352V87.345L68.7066 87.5541V89.3313L68.4352 90.0631H69.2494L68.8423 94.6629C69.3851 94.7326 70.4165 94.9765 70.1994 95.3947C69.928 95.9174 69.6565 95.7083 69.6565 96.1264C69.6565 96.5446 73.185 97.59 73.7279 96.1264C73.7279 96.1264 74.3612 95.778 74.4064 96.3355C76.0802 96.5795 79.3192 97.7991 78.8849 100.726L77.3921 103.131H76.035C74.7231 104.141 72.235 106.434 72.7779 107.521C73.3207 108.609 73.6374 110.902 73.7279 111.912V119.125L74.9493 120.275L72.2351 128.325C74.904 128.36 80.5406 128.137 81.7348 126.966C82.9291 125.795 83.861 146.341 84.1776 156.76C87.2085 169.026 90.8275 196.59 90.1489 198.786C89.4703 200.981 92.3203 200.876 91.6417 208.09C91.6417 208.822 93.9488 210.181 93.6774 210.703C93.6774 210.703 95.6262 210.494 95.7131 210.703C96.075 211.574 95.8452 213.064 95.7131 214.571C95.7131 218.648 104.263 228.162 80.9206 235.584C80.9206 235.584 70.2446 236.56 69.6565 237.257C69.0685 237.954 67.9194 239.64 68.028 240.811C68.028 240.811 66.9822 241.403 66.6709 241.961C65.7667 243.581 68.7066 245.297 71.0137 244.993C68.7066 246.038 69.9003 247.532 69.2494 249.174C68.7499 250.435 66.9423 248.129 68.028 252.415C68.6371 254.82 79.8349 255.238 79.8349 255.238C79.8349 255.238 86.6928 256.18 91.0989 255.969C104.263 252.415 104.534 252.415 106.163 252.833C107.462 253.369 108.47 254.088 109.148 254.61C112.27 254.61 116.884 253.983 120.005 253.774C125.027 253.438 125.027 252.101 125.027 252.101C125.027 252.101 126.112 244.929 125.434 244.574C125.027 244.362 124.597 244.27 124.077 244.052C123.534 243.32 115.798 216.558 126.655 213.317C128.012 205.581 128.284 203.281 125.841 194.918C123.262 184.359 121.634 193.245 119.462 167.841C124.891 155.087 121.046 146.097 121.634 144.111C124.484 136.061 125.347 135.802 127.469 130.416C129.234 128.325 129.234 125.816 129.234 125.816L134.526 126.234L133.712 121.53C133.712 121.53 132.251 115.912 130.455 112.539C129.448 110.647 127.223 108.933 127.469 107.835C127.716 106.737 128.493 106.283 129.234 105.326C137.105 106.999 139.548 96.1264 139.548 96.1264C139.548 96.1264 141.448 75.3228 139.955 71.5593C140.537 71.5384 140.9 71.7129 141.448 71.5593C143.042 71.1123 140.713 69.5974 140.362 68.3186C142.126 65.9141 140.769 61.1052 139.548 56.8191C138.386 52.742 133.712 52.3238 133.712 52.3238C133.712 52.3238 133.729 51.8775 133.712 51.592C129.641 50.6512 129.641 47.724 128.012 44.6923C123.67 41.1379 115.527 36.5381 115.527 36.5381C115.527 36.5381 114.698 36.5687 114.17 36.5381C111.456 30.6838 116.477 25.7704 117.698 22.9478C117.883 21.7661 118.784 20.2995 118.105 19.9162Z" fill="#272829"/>
</g>
<path d="M59.8595 267.63C65.1753 269.719 71.9823 271.383 79.7267 272.487C87.471 273.59 95.9338 274.103 104.426 273.983C112.919 273.863 121.201 273.113 128.6 271.794C135.998 270.476 142.303 268.627 147.002 266.396C151.701 264.166 154.66 261.618 155.64 258.959C156.62 256.301 155.592 253.607 152.641 251.097C149.689 248.588 144.897 246.333 138.654 244.516C132.411 242.699 124.894 241.373 116.714 240.643L102 257L59.8595 267.63Z" fill="url(#paint0_linear_6_154)" fill-opacity="0.5"/>
<defs>
<filter id="filter0_d_6_154" x="50" y="0" width="104" height="274" filterUnits="userSpaceOnUse" color-interpolation-filters="sRGB">
<feFlood flood-opacity="0" result="BackgroundImageFix"/>
<feColorMatrix in="SourceAlpha" type="matrix" values="0 0 0 0 0 0 0 0 0 0 0 0 0 0 0 0 0 0 127 0" result="hardAlpha"/>
<feOffset dy="6"/>
<feGaussianBlur stdDeviation="6"/>
<feComposite in2="hardAlpha" operator="out"/>
<feColorMatrix type="matrix" values="0 0 0 0 0 0 0 0 0 0 0 0 0 0 0 0 0 0 0.16 0"/>
<feBlend mode="normal" in2="BackgroundImageFix" result="effect1_dropShadow_6_154"/>
<feBlend mode="normal" in="SourceGraphic" in2="effect1_dropShadow_6_154" result="shape"/>
</filter>
<linearGradient id="paint0_linear_6_154" x1="104.237" y1="240" x2="104.237" y2="274" gradientUnits="userSpaceOnUse">
<stop offset="0.126561" stop-color="#262626" stop-opacity="0"/>
<stop offset="0.512328" stop-color="#262626" stop-opacity="0.5"/>
<stop offset="0.840921" stop-color="#262626" stop-opacity="0"/>
</linearGradient>
</defs>
</svg>
