<svg width="121" height="160" viewBox="0 0 121 160" fill="none" xmlns="http://www.w3.org/2000/svg">
<g clip-path="url(#clip0_10_1191)">
<path d="M7.813 0C3.87054 0 0.668052 3.20756 0.668052 7.17186L0.667181 107.331C0.667181 111.289 3.87056 114.501 7.81218 114.501H112.944C116.888 114.501 120.087 111.288 120.087 107.331V7.17186C120.087 3.21092 116.887 0.00335773 112.944 0.00335773H7.81218L7.813 0ZM7.74585 118.248C3.67488 118.248 0.377441 122.253 0.377441 127.184V151.05C0.377441 155.995 3.67404 160 7.74585 160H112.714C116.787 160 120.074 155.995 120.074 151.05V127.184C120.074 122.253 116.787 118.248 112.714 118.248H7.74585Z" fill="black"/>
<path d="M9.40883 2.77759C5.93922 2.77759 3.13647 5.58536 3.13647 9.05245V104.74C3.13625 106.404 3.79697 108 4.97323 109.176C6.1495 110.353 7.745 111.014 9.40883 111.015H111.066C114.539 111.015 117.34 108.204 117.34 104.74V9.05245C117.34 5.58452 114.539 2.77759 111.066 2.77759H9.40883ZM12.986 6.66713H107.371C110.84 6.66713 113.642 9.47658 113.642 12.9411V101.162C113.642 104.627 110.84 107.438 107.371 107.438H12.986C9.52392 107.438 6.71362 104.627 6.71362 101.162V12.9411C6.71362 11.2775 7.37439 9.6819 8.55063 8.50534C9.72687 7.32879 11.3223 6.66757 12.986 6.66713ZM9.52053 121.225C6.05848 121.225 3.25325 124.032 3.25325 127.496V150.544C3.25347 151.366 3.41574 152.181 3.73082 152.941C4.0459 153.701 4.50763 154.392 5.0896 154.974C5.67157 155.555 6.36238 156.017 7.12264 156.331C7.88291 156.646 8.69772 156.808 9.52053 156.808H111.344C113.005 156.807 114.598 156.147 115.772 154.972C116.947 153.798 117.607 152.205 117.607 150.544V127.496C117.607 124.032 114.801 121.225 111.344 121.225H9.52053ZM10.0278 124.284H110.41C112.494 124.284 114.165 125.969 114.165 128.045V150.288C114.166 150.782 114.07 151.27 113.881 151.726C113.693 152.182 113.416 152.597 113.068 152.946C112.719 153.294 112.304 153.571 111.848 153.759C111.392 153.947 110.904 154.044 110.41 154.043H10.0278C7.95077 154.043 6.26511 152.365 6.26511 150.288V128.045C6.26556 127.048 6.66218 126.091 7.36778 125.386C8.07338 124.681 9.03018 124.284 10.0278 124.284ZM60.4946 12.0761L50.1572 45.1495L14.8279 45.3367L43.396 65.0625L32.8654 98.1342L60.3039 78.4085L88.684 98.3241L77.9686 65.0625L105.406 45.3367H71.1965L60.4946 12.0761ZM60.3048 23.5373L67.4439 49.2801H93.3799L72.7067 64.3133L81.7314 88.5561L59.9285 72.9567L40.3808 87.9883L48.0885 63.3743L28.1695 49.0927L53.3488 49.2801L60.3048 23.5373Z" fill="#FFD530"/>
<path d="M65.4616 130.091L65.5188 148.979L69.6376 148.924V141.369H71.4165L71.4703 148.924L75.3673 148.979V141.369L73.4188 139.536L75.3673 137.764V132.724L72.6142 130.093L65.4616 130.091ZM69.6351 133.698H71.414V137.764L69.6351 137.817V133.698ZM55.4442 130.037L52.9254 148.863H57.1609L57.3894 145.434H59.7378L60.0804 148.863H64.2572L61.5687 130.037H55.4442ZM58.4771 134.096L59.4505 141.828H57.7321L58.4771 134.096ZM28.7179 145.372L28.6625 148.923H32.8401V145.372H28.7179ZM47.5484 145.319L47.6038 148.863H51.726V145.319H47.5484ZM86.1231 130.09L84.6347 139.135L83.086 130.152H78.1684L78.1146 148.924H81.9504V136.957L83.7772 148.924H85.4343L87.2678 136.957V148.924H91.1641L91.049 130.091L86.1231 130.09ZM37.8761 130.09L35.3279 132.64V138.505L38.0324 141.212H41.1946V145.256H39.4769V142.855H35.2422V146.231L37.9332 148.923H42.6249L45.373 146.17V140.393L42.5686 137.593H39.5383V133.642H41.0812L41.1383 136.098H45.2025V132.723L42.3401 130.091L37.8761 130.09ZM92.5625 130.064L96.0196 140.907L96.1077 148.89H100.342V140.907L103.867 130.064H99.747L98.2251 136.646L96.7368 130.064H92.5625ZM22.0197 130.037V145.319H20.3618V130.091L16.0674 130.044V146.286L18.8155 148.924H23.6785L26.3124 146.171V130.038L22.0197 130.037ZM60.3777 32.6375L55.1763 51.8794L36.35 51.7409L51.2439 62.41L45.4839 80.8096L60.0947 69.5735L76.3853 81.2363L69.6409 63.1147L85.0984 51.8794H65.7069L60.3777 32.6375Z" fill="white"/>
</g>
<defs>
<clipPath id="clip0_10_1191">
<rect width="119.709" height="160" fill="white" transform="translate(0.378174)"/>
</clipPath>
</defs>
</svg>
