<svg width="236" height="160" viewBox="0 0 236 160" fill="none" xmlns="http://www.w3.org/2000/svg">
<path d="M97.9702 91.7282H99.488V87.8286H97.9702V91.7282Z" fill="#AEBFD4"/>
<path d="M135.968 91.7282H137.417V87.8286H135.968V91.7282Z" fill="#AEBFD4"/>
<path d="M115.973 93.1542H117.07V87.8286H115.973V93.1542Z" fill="#AEBFD4"/>
<path d="M113.637 93.1542H114.735V87.8286H113.637V93.1542Z" fill="#AEBFD4"/>
<path d="M111.366 93.1542H112.464V87.8286H111.366V93.1542Z" fill="#AEBFD4"/>
<path d="M120.515 93.1542H121.612V87.8286H120.515V93.1542Z" fill="#AEBFD4"/>
<path d="M118.244 93.1542H119.341V87.8286H118.244V93.1542Z" fill="#AEBFD4"/>
<path d="M125.187 93.1542H126.284V87.8286H125.187V93.1542Z" fill="#AEBFD4"/>
<path d="M122.851 93.1542H123.948V87.8286H122.851V93.1542Z" fill="#AEBFD4"/>
<path d="M109.095 93.1542H110.193V87.8286H109.095V93.1542Z" fill="#AEBFD4"/>
<path d="M156.338 58.7309L152.037 58.1765L145.729 66.3006L150.733 66.832L156.338 58.7309Z" fill="#AEBFD4"/>
<path d="M163.372 59.637L159.109 59.0864L153.845 67.1608L158.807 67.6923L163.372 59.637Z" fill="#AEBFD4"/>
<path d="M76.5646 67.6923L81.527 67.1608L76.2625 59.0864L71.9998 59.637L76.5646 67.6923Z" fill="#AEBFD4"/>
<path d="M104.366 69.0991L104.061 70.3187H131.319L131.01 69.0991H104.366Z" fill="#AEBFD4"/>
<path d="M117.686 40.074L109.787 42.0008L111.183 42.6699L117.686 41.0298L124.189 42.6699L125.588 42.0046L117.686 40.074Z" fill="#AEBFD4"/>
<path d="M117.686 42.2263L112.819 43.4497L114.471 44.2373L117.686 43.423L120.905 44.2411L122.557 43.4497L117.686 42.2263Z" fill="#AEBFD4"/>
<path d="M117.686 44.4324L115.855 44.8988L117.69 45.7743L119.521 44.8988L117.686 44.4324Z" fill="#AEBFD4"/>
<path d="M71.9998 52.5487L77.0807 51.268L75.3871 50.4995L67.8135 52.2581L69.8894 55.9207L73.8655 55.4122L71.9998 52.5487Z" fill="#AEBFD4"/>
<path d="M165.483 55.9207L167.559 52.2581L159.989 50.4995L158.295 51.268L163.372 52.5487L161.507 55.4122L165.483 55.9207Z" fill="#AEBFD4"/>
<path d="M128.544 44.9561C128.016 45.2148 127.462 45.4868 126.904 45.7608L148.457 51.2248L150.248 50.4132L128.544 44.9561Z" fill="#AEBFD4"/>
<path d="M125.535 46.4319C124.833 46.777 124.16 47.1092 123.564 47.4031L144.37 53.074L146.975 51.894L125.535 46.4319Z" fill="#AEBFD4"/>
<path d="M131.579 43.4651C131.241 43.6309 130.742 43.8754 130.141 44.1702L151.911 49.6579L153.676 48.8584L131.579 43.4651Z" fill="#AEBFD4"/>
<path d="M105.246 44.1685C104.654 43.8779 104.163 43.6369 103.807 43.4636L81.6995 48.8592L83.4641 49.6587L105.246 44.1685Z" fill="#AEBFD4"/>
<path d="M108.476 45.7591C107.915 45.4826 107.363 45.2106 106.84 44.9534L85.1274 50.4128L86.919 51.2243L108.476 45.7591Z" fill="#AEBFD4"/>
<path d="M88.3972 51.8912L91.0019 53.0712L111.807 47.4004C111.182 47.0916 110.515 46.7621 109.838 46.4287L88.3972 51.8912Z" fill="#AEBFD4"/>
<path d="M152.973 53.6804L151.868 54.1812L158.865 55.0759L152.973 53.6804Z" fill="#AEBFD4"/>
<path d="M154.828 52.8393L159.572 54.0512L160.333 52.9502L156.636 52.0173L154.828 52.8393Z" fill="#AEBFD4"/>
<path d="M82.3949 53.6765L76.5073 55.0758L83.5113 54.1812L82.3949 53.6765Z" fill="#AEBFD4"/>
<path d="M80.5483 52.8393L75.8153 54.0742L75.0354 52.9502L78.74 52.0173L80.5483 52.8393Z" fill="#AEBFD4"/>
<path d="M97.8364 74.6883H86.4321L84.3982 71.561L79.2332 72.3907L81.7832 76.8905H97.1444L97.5038 75.7474L97.8364 74.6883Z" fill="#AEBFD4"/>
<path d="M153.589 76.8905L156.139 72.3907L154.006 72.0466L150.974 71.561L148.936 74.6883H137.54L138.232 76.8905H153.589Z" fill="#AEBFD4"/>
<path d="M132.42 74.6885H102.959L102.401 76.8906H132.975L132.688 75.7475L132.42 74.6885Z" fill="#AEBFD4"/>
<path d="M99.2088 70.3186L99.5797 69.1296L87.5598 71.0565L89.1235 73.3121H98.2684L98.8495 71.4656H95.3704L96.5174 70.3186H99.2088Z" fill="#AEBFD4"/>
<path d="M131.606 71.4656H103.77L103.502 72.5284L103.303 73.3121H132.072L131.916 72.6966L131.874 72.5284L131.606 71.4656Z" fill="#AEBFD4"/>
<path d="M147.812 71.0527L135.796 69.1296L136.171 70.3186H138.855H138.862L140.009 71.4656H136.53L137.107 73.3121H146.249L147.808 71.0565H147.816L147.812 71.0527Z" fill="#AEBFD4"/>
<path d="M92.8204 65.9603L96.8385 65.5321L89.3108 57.408L85.9312 57.84L92.8204 65.9603Z" fill="#AEBFD4"/>
<path d="M83.3354 58.1765L79.0344 58.7309L84.6391 66.832L89.6436 66.3006L83.3354 58.1765Z" fill="#AEBFD4"/>
<path d="M138.541 65.5321L142.551 65.9603L149.441 57.84L146.069 57.408L138.541 65.5321Z" fill="#AEBFD4"/>
<path d="M156.093 90.5847H154.456V86.6137H156.093V90.5847ZM152.818 90.5847H151.181V86.6137H152.818V90.5847ZM149.304 90.5847H147.668V86.6137H149.304V90.5847ZM145.741 90.5847H144.104V86.6137H145.741V90.5847ZM142.278 90.5847H140.641V86.6137H142.278V90.5847ZM132.289 90.5847H130.562V86.6137H132.289V90.5847ZM127.385 84.3901L128.559 87.0391V93.1511H134.482V86.6136H138.904V92.6843H157.854L157.855 84.4638L127.384 84.3899L127.385 84.3901Z" fill="#355E93"/>
<path d="M117.854 18.0684C77.2373 18.0684 44.3088 39.8685 44.3088 66.7596C44.3088 93.6514 77.2366 115.451 117.854 115.451C158.471 115.451 191.399 93.651 191.399 66.7596C191.399 39.8674 158.471 18.0684 117.854 18.0684ZM117.854 20.3613C137.054 20.3613 155.074 25.2908 168.595 34.2419C181.823 42.9999 189.109 54.5488 189.109 66.7609C189.109 78.9727 181.823 90.5208 168.595 99.28C155.075 108.231 137.055 113.161 117.854 113.161C98.6544 113.161 80.6349 108.231 67.1137 99.28C53.885 90.5212 46.5997 78.9727 46.5997 66.7609C46.5997 54.5488 53.885 43.0003 67.1137 34.2419C80.6338 25.2908 98.6533 20.3613 117.854 20.3613Z" fill="#355E93"/>
<path d="M104.798 90.5848H103.06V86.6138H104.798V90.5848ZM94.7319 90.5848H93.1319V86.6138H94.7319V90.5848ZM91.2972 90.5848H89.6972V86.6138H91.2972V90.5848ZM87.863 90.5848H86.263V86.6138H87.863V90.5848ZM84.3796 90.5848H82.7798V86.6138H84.3796V90.5848ZM80.8578 90.5848H79.2578V86.6138H80.8578V90.5848ZM77.4403 84.464L77.4392 92.6845H96.5078V86.6138H100.96V93.1513H106.833V87.1089L108.022 84.3901L77.4403 84.464Z" fill="#355E93"/>
<path d="M147.709 54.8043L159.868 49.2952L170.339 51.7252L167.357 57.3142L147.709 54.8043ZM160.994 69.0756L135.67 66.3802L145.161 56.1331L166.478 58.8804L160.994 69.0756ZM155.854 78.4151L137.508 78.4205L134.148 67.7039L159.523 71.7702L155.854 78.4151ZM100.835 78.4205L103.57 67.5709H131.808L134.542 78.4205H100.835ZM79.5225 78.4151L75.8534 71.7701L101.229 67.7039L97.8684 78.4204L79.5225 78.4151ZM68.8977 58.8805L90.215 56.1332L99.7066 66.3803L74.3823 69.0757L68.8977 58.8805ZM65.0371 51.7252L75.5078 49.2952L87.6672 54.8043L68.0191 57.3141L65.0371 51.7252ZM104.446 42.4809C104.442 42.4885 104.439 42.4962 104.436 42.504C104.446 42.4809 115.028 47.7142 115.028 47.7142L90.912 54.2899L78.4089 48.6267C87.0877 46.5781 95.7669 44.5293 104.446 42.4809ZM117.688 39.2925L128.471 41.8966L117.688 47.044L106.904 41.8966L117.688 39.2925ZM142.933 55.7938L132.674 65.8555H102.701L92.4423 55.7938L117.688 48.2986L142.933 55.7938ZM156.966 48.6266L144.463 54.2898L120.347 47.714C120.347 47.714 130.93 42.4809 130.939 42.5039C130.936 42.496 130.933 42.4884 130.93 42.4807C139.608 44.5293 148.287 46.5782 156.966 48.6266ZM117.688 38.4292L63.0552 50.6766L77.4794 79.6611H157.899L172.323 50.6766L117.691 38.4292H117.688Z" fill="#355E93"/>
<path d="M108.377 94.4155V95.811H126.999V94.4155H108.377Z" fill="#355E93"/>
<path d="M173.358 51.1799L173.083 51.7228L158.922 80.1706L158.608 80.8091H157.897H77.4781H76.7708L76.4535 80.1706L62.1207 51.3711L62.0213 51.1799L60.8208 52.9309V59.2849L76.3771 92.7181V83.3897L109.741 83.3132L108.346 86.5629H127.068L125.672 83.3132L159.006 83.3897V92.7181L174.558 59.2849V52.9309L173.358 51.1799Z" fill="#355E93"/>
<path d="M117.69 49.4939L95.053 56.2149L99.9313 60.9977L115.224 56.4443V56.8763L116.264 57.5415H119.112L120.152 56.8763V56.4443L135.444 60.9977L140.322 56.2149L117.69 49.4939Z" fill="#355E93"/>
<path d="M20.4981 129.462C20.6993 129.462 21.43 129.431 22.6894 129.368C22.7146 129.443 22.7273 129.532 22.7273 129.632C22.7273 129.821 22.702 129.915 22.6519 129.915C22.5259 129.915 22.2991 129.96 21.9717 130.048C21.6441 130.136 21.4678 130.225 21.4426 130.313C21.3293 130.753 21.2728 131.339 21.2728 132.07V136.283C21.2728 137.706 21.5748 138.84 22.1796 139.684C22.7841 140.528 23.6406 140.949 24.749 140.949C26.9027 140.949 27.9796 139.532 27.9796 136.699V131.975C27.9796 131.207 27.9354 130.653 27.8475 130.313C27.8096 130.212 27.5923 130.114 27.1956 130.02C26.7989 129.925 26.5183 129.878 26.3548 129.878C26.3044 129.878 26.2792 129.806 26.2792 129.661C26.2792 129.516 26.3044 129.418 26.3548 129.368C26.5184 129.381 26.8462 129.403 27.3373 129.434C27.8284 129.466 28.2442 129.481 28.5843 129.481C28.9115 129.481 29.3239 129.463 29.8219 129.424C30.319 129.387 30.6119 129.368 30.7003 129.368C30.7255 129.444 30.7381 129.538 30.7381 129.651C30.7381 129.802 30.7128 129.878 30.6625 129.878C30.5364 129.878 30.2625 129.928 29.8406 130.029C29.4185 130.13 29.1949 130.225 29.1699 130.313C29.0691 130.703 29.0189 131.289 29.0189 132.07V136.661C29.0189 138.613 28.6095 139.971 27.7907 140.732C26.972 141.495 25.8071 141.876 24.2956 141.876C22.7966 141.876 21.644 141.434 20.8382 140.553C20.0319 139.671 19.6289 138.248 19.6289 136.283V131.994C19.6289 131.213 19.5846 130.653 19.4967 130.313C19.459 130.212 19.2794 130.121 18.9583 130.039C18.6369 129.957 18.3942 129.916 18.2309 129.916C18.1805 129.916 18.1553 129.834 18.1553 129.67C18.1553 129.519 18.1805 129.418 18.2309 129.368C19.6791 129.431 20.4348 129.462 20.4981 129.462Z" fill="#355E93"/>
<path d="M30.6263 141.807C30.4059 141.587 30.2959 141.325 30.2959 141.023C30.2959 140.721 30.4059 140.466 30.6263 140.258C30.8468 140.05 31.1083 139.946 31.4105 139.946C31.7128 139.946 31.9678 140.05 32.1757 140.258C32.3835 140.466 32.4875 140.721 32.4875 141.023C32.4875 141.325 32.3835 141.587 32.1757 141.807C31.9678 142.027 31.7128 142.138 31.4105 142.138C31.1083 142.138 30.8468 142.027 30.6263 141.807Z" fill="#355E93"/>
<path d="M34.6896 132.616C34.6896 131.647 35.0609 130.85 35.8044 130.226C36.5474 129.603 37.4102 129.291 38.3927 129.291C38.6695 129.291 38.931 129.307 39.1767 129.339C39.4222 129.37 39.6236 129.404 39.7813 129.442C39.9385 129.48 40.1653 129.54 40.4614 129.622C40.7573 129.704 41.0186 129.769 41.2454 129.82C41.3966 130.488 41.4722 131.388 41.4722 132.521C41.4722 132.61 41.409 132.654 41.2831 132.654C40.9809 132.654 40.8172 132.591 40.7922 132.465C40.7289 131.911 40.4614 131.373 39.9891 130.85C39.5168 130.327 38.9405 130.065 38.2605 130.065C37.5046 130.065 36.9724 130.255 36.6638 130.633C36.3551 131.01 36.2009 131.476 36.2009 132.03C36.2009 132.27 36.2449 132.5 36.3332 132.72C36.4212 132.941 36.5095 133.123 36.5978 133.268C36.6859 133.413 36.8462 133.58 37.0794 133.769C37.3124 133.958 37.4826 134.09 37.5896 134.165C37.6966 134.241 37.9109 134.38 38.2319 134.581C38.5532 134.782 38.7576 134.909 38.8461 134.959C38.9088 134.996 39.1295 135.132 39.5073 135.365C39.8851 135.598 40.1431 135.762 40.282 135.857C40.4205 135.951 40.6378 136.121 40.9337 136.367C41.2296 136.612 41.4439 136.829 41.5761 137.018C41.7082 137.207 41.834 137.443 41.9541 137.727C42.0736 138.01 42.1335 138.303 42.1335 138.605C42.1335 139.613 41.7398 140.441 40.9526 141.09C40.1653 141.739 39.243 142.063 38.1849 142.063C37.8825 142.063 37.5614 142.041 37.2211 141.997C36.8811 141.952 36.5978 141.908 36.3712 141.864C36.1444 141.82 35.8578 141.758 35.5115 141.676C35.1649 141.593 34.9226 141.54 34.7841 141.515C34.4692 139.966 34.3118 138.964 34.3118 138.511C34.3118 138.436 34.4124 138.398 34.614 138.398C34.8406 138.398 34.998 138.454 35.0863 138.568C35.5143 140.381 36.5601 141.288 38.2226 141.288C38.8523 141.288 39.3875 141.099 39.8284 140.721C40.2693 140.343 40.4898 139.808 40.4898 139.115C40.4898 138.863 40.4519 138.63 40.3763 138.416C40.3009 138.203 40.2219 138.026 40.1404 137.887C40.0582 137.749 39.9135 137.601 39.7058 137.443C39.4978 137.286 39.3373 137.17 39.224 137.094C39.1105 137.018 38.9027 136.899 38.6005 136.735C38.2983 136.571 38.0903 136.458 37.977 136.395C37.6116 136.181 37.3565 136.03 37.212 135.941C37.0667 135.854 36.8276 135.699 36.4938 135.478C36.1599 135.258 35.9176 135.063 35.7664 134.893C35.6153 134.723 35.4388 134.515 35.2375 134.269C35.0357 134.023 34.894 133.762 34.8125 133.485C34.7303 133.209 34.6896 132.918 34.6896 132.616Z" fill="#355E93"/>
<path d="M43.7735 141.807C43.553 141.587 43.4429 141.325 43.4429 141.023C43.4429 140.721 43.553 140.466 43.7735 140.258C43.9937 140.05 44.2555 139.946 44.5575 139.946C44.8599 139.946 45.1149 140.05 45.3227 140.258C45.5307 140.466 45.6347 140.721 45.6347 141.023C45.6347 141.325 45.5307 141.587 45.3227 141.807C45.1149 142.027 44.86 142.138 44.5575 142.138C44.2555 142.138 43.9938 142.027 43.7735 141.807Z" fill="#355E93"/>
<path d="M53.1287 131.768V139.249C53.1287 139.778 53.2229 140.257 53.4121 140.685C53.4623 140.811 53.7992 140.906 54.4227 140.968C55.0462 141.032 55.5282 141.063 55.8682 141.063C58.765 141.063 60.2135 139.192 60.2135 135.452C60.2135 134.016 59.8323 132.794 59.0705 131.786C58.3081 130.779 57.1968 130.275 55.7359 130.275H55.6412C54.2809 130.275 53.5253 130.375 53.3741 130.577C53.2102 130.804 53.1287 131.2 53.1287 131.768ZM52.2974 129.481C52.7759 129.481 53.3837 129.475 54.1205 129.462C54.8573 129.45 55.3453 129.443 55.5848 129.443C57.6377 129.443 59.2373 130.048 60.3836 131.257C61.5297 132.466 62.1032 133.89 62.1032 135.527C62.1032 137.354 61.5236 138.878 60.3647 140.099C59.206 141.321 57.6064 141.932 55.5659 141.932C55.4149 141.932 54.9643 141.919 54.2151 141.894C53.4656 141.869 52.839 141.863 52.3353 141.876L50.0493 141.932C50.0114 141.894 49.9925 141.8 49.9925 141.649C49.9925 141.472 50.0114 141.384 50.0493 141.384C50.2128 141.384 50.4555 141.34 50.7765 141.252C51.0978 141.164 51.2897 141.063 51.3528 140.949C51.4409 140.798 51.485 140.207 51.485 139.173V132.032C51.485 131.289 51.4409 130.747 51.3528 130.407C51.3151 130.306 51.129 130.212 50.7954 130.124C50.4616 130.035 50.2128 129.992 50.0492 129.992C49.9986 129.992 49.9736 129.916 49.9736 129.765C49.9736 129.601 49.9986 129.494 50.0492 129.443C50.7039 129.469 51.4534 129.481 52.2974 129.481Z" fill="#355E93"/>
<path d="M66.7391 134.337C66.084 134.337 65.5832 134.617 65.2373 135.178C64.8906 135.738 64.7174 136.201 64.7174 136.566C64.7174 136.655 64.7551 136.699 64.8309 136.699H68.5147C68.5778 136.699 68.6095 136.636 68.6095 136.51C68.6095 136.106 68.4395 135.643 68.0991 135.121C67.7594 134.598 67.306 134.337 66.7391 134.337ZM66.9282 133.637C67.5071 133.637 68.0174 133.748 68.4582 133.968C68.8991 134.189 69.2359 134.472 69.469 134.818C69.702 135.165 69.872 135.518 69.979 135.877C70.0862 136.236 70.1401 136.592 70.1401 136.944C70.1401 137.196 70.1018 137.35 70.0264 137.407C69.9512 137.464 69.806 137.492 69.5922 137.492H64.8309C64.7299 137.492 64.6799 137.523 64.6799 137.586C64.6799 138.38 64.9189 139.111 65.3975 139.778C65.8762 140.446 66.5693 140.779 67.4761 140.779C67.7403 140.779 67.9923 140.754 68.2316 140.704C68.4709 140.654 68.6759 140.594 68.8456 140.524C69.0157 140.455 69.1603 140.386 69.2804 140.316C69.4 140.247 69.504 140.181 69.5923 140.118L69.7241 140.024C69.7999 140.024 69.8378 140.106 69.8378 140.269C69.8378 140.37 69.7999 140.484 69.7241 140.609C69.4723 140.962 69.101 141.28 68.6097 141.563C68.1185 141.847 67.5829 141.988 67.0037 141.988C65.9581 141.988 65.0608 141.595 64.3115 140.808C63.5618 140.021 63.1875 139.06 63.1875 137.926C63.1875 136.604 63.5429 135.559 64.2549 134.79C64.966 134.022 65.8574 133.637 66.9282 133.637Z" fill="#355E93"/>
<path d="M74.607 134.562C74.2166 134.562 73.8952 134.666 73.6435 134.874C73.3913 135.082 73.2655 135.381 73.2655 135.771V140.022C73.2655 140.363 73.4479 140.649 73.8134 140.882C74.1789 141.114 74.5752 141.231 75.0035 141.231C75.7466 141.231 76.3386 140.898 76.7797 140.23C77.2204 139.563 77.4411 138.813 77.4411 137.982C77.4411 136.923 77.1605 136.089 76.6005 135.478C76.0395 134.868 75.3751 134.562 74.607 134.562ZM75.2114 133.636C76.4207 133.636 77.3655 134.043 78.0455 134.855C78.7256 135.667 79.0659 136.533 79.0659 137.453C79.0659 138.662 78.6435 139.726 77.8001 140.646C76.956 141.565 75.9987 142.025 74.9283 142.025C74.7394 142.025 74.5723 142.018 74.4278 142.006C74.2829 141.993 74.1536 141.971 74.0401 141.94C73.9269 141.908 73.8386 141.88 73.7759 141.855C73.7128 141.83 73.6307 141.795 73.5301 141.751C73.4291 141.707 73.3665 141.678 73.3411 141.666C73.2907 141.729 73.2655 141.811 73.2655 141.911V143.536C73.2655 144.266 73.3156 144.827 73.4169 145.218C73.4418 145.306 73.6059 145.391 73.9079 145.473C74.2103 145.554 74.4243 145.596 74.5505 145.596C74.588 145.596 74.6132 145.674 74.6259 145.832C74.6384 145.989 74.6322 146.093 74.607 146.144C73.3473 146.08 72.6732 146.049 72.5855 146.049C72.5097 146.049 71.8231 146.08 70.5259 146.144C70.4759 146.093 70.4507 145.989 70.4507 145.832C70.4507 145.674 70.4759 145.596 70.5259 145.596C70.6773 145.596 70.901 145.554 71.1968 145.473C71.4927 145.391 71.6532 145.306 71.6786 145.218C71.7665 144.853 71.8108 144.411 71.8108 143.895V136.092C71.8108 135.601 71.7225 135.261 71.5463 135.072C71.4201 134.921 71.2657 134.817 71.0833 134.76C70.901 134.703 70.7496 134.675 70.6299 134.675C70.5103 134.675 70.4507 134.663 70.4507 134.637C70.4507 134.335 70.4884 134.178 70.5642 134.165C71.8987 133.964 72.7677 133.8 73.1711 133.674C73.1838 133.674 73.2152 133.668 73.2656 133.655C73.3035 133.655 73.3221 133.69 73.3221 133.759C73.3221 133.828 73.3156 133.913 73.3035 134.014C73.2908 134.115 73.2846 134.172 73.2846 134.184V134.297C73.4605 134.172 73.7537 134.03 74.1629 133.872C74.5723 133.715 74.9217 133.636 75.2114 133.636Z" fill="#355E93"/>
<path d="M82.0391 140.656C82.2532 140.839 82.5303 140.93 82.8706 140.93C83.2109 140.93 83.5381 140.826 83.853 140.619C84.1678 140.411 84.3253 140.2 84.3253 139.985V138.04C84.2244 138.09 83.9789 138.178 83.5886 138.304C83.1982 138.43 82.8924 138.541 82.6722 138.635C82.4517 138.729 82.2376 138.887 82.03 139.107C81.822 139.328 81.7182 139.583 81.7182 139.873C81.7182 140.212 81.825 140.474 82.0391 140.656ZM83.8153 133.637C84.5081 133.637 85.0054 133.805 85.3078 134.138C85.6099 134.472 85.7612 135.011 85.7612 135.754V140.118C85.7612 140.383 85.8305 140.603 85.9688 140.779C86.1077 140.956 86.2964 141.044 86.5358 141.044C86.712 141.044 86.9326 140.956 87.1971 140.779C87.2474 140.779 87.2729 140.83 87.2729 140.931C87.2729 141.094 87.2412 141.227 87.1781 141.327C86.6616 141.768 86.2208 141.988 85.8557 141.988C85.566 141.988 85.2891 141.869 85.0246 141.63C84.7599 141.39 84.5772 141.138 84.4763 140.874C84.4637 140.874 84.4166 140.915 84.3348 140.997C84.2527 141.079 84.1426 141.173 84.0041 141.28C83.8654 141.387 83.7048 141.497 83.5224 141.61C83.3397 141.724 83.1255 141.819 82.8801 141.894C82.6344 141.97 82.3854 142.008 82.1339 142.008C81.5543 142.008 81.0756 141.853 80.6978 141.545C80.3201 141.236 80.1309 140.773 80.1309 140.156C80.1309 139.879 80.2001 139.617 80.3388 139.372C80.4773 139.126 80.6412 138.925 80.8302 138.767C81.0191 138.61 81.2771 138.45 81.6047 138.285C81.9323 138.122 82.2121 137.999 82.4455 137.917C82.6783 137.835 82.984 137.731 83.3619 137.605C83.7395 137.48 84.004 137.385 84.1551 137.322C84.2687 137.284 84.3253 137.19 84.3253 137.038V135.621C84.3253 135.219 84.1991 134.907 83.9475 134.686C83.6953 134.466 83.3932 134.355 83.0406 134.355C82.6626 134.355 82.348 134.485 82.096 134.743C81.844 135.001 81.7182 135.338 81.7182 135.754C81.7182 136.195 81.4598 136.415 80.9433 136.415C80.5908 136.415 80.345 136.295 80.2066 136.056C80.2066 135.515 80.6033 134.976 81.3967 134.441C82.1904 133.906 82.9964 133.637 83.8153 133.637Z" fill="#355E93"/>
<path d="M92.981 133.618C93.7241 133.618 94.2151 133.801 94.4548 134.166C94.4548 134.607 94.3852 134.928 94.2469 135.129C94.1082 135.331 93.9383 135.432 93.7368 135.432C93.51 135.432 93.3021 135.325 93.1133 135.11C92.9244 134.897 92.6661 134.789 92.3388 134.789C91.9483 134.789 91.6082 134.972 91.3186 135.337C91.0285 135.703 90.884 136.087 90.884 136.49V139.323C90.884 140.054 90.9341 140.615 91.0351 141.005C91.0603 141.094 91.227 141.179 91.5359 141.26C91.8443 141.342 92.0616 141.383 92.1872 141.383C92.2255 141.383 92.2503 141.459 92.263 141.61C92.2757 141.761 92.2696 141.868 92.2444 141.931C90.9845 141.868 90.3044 141.837 90.2038 141.837C90.1282 141.837 89.4416 141.868 88.1444 141.931C88.094 141.881 88.0686 141.777 88.0686 141.619C88.0686 141.462 88.094 141.383 88.1444 141.383C88.2958 141.383 88.5191 141.342 88.8149 141.26C89.1108 141.179 89.2713 141.094 89.2971 141.005C89.385 140.64 89.4293 140.199 89.4293 139.683V136.112C89.4293 135.62 89.341 135.28 89.1644 135.092C89.0386 134.94 88.8842 134.836 88.7018 134.78C88.519 134.723 88.368 134.694 88.2484 134.694C88.1283 134.694 88.0686 134.682 88.0686 134.657C88.0686 134.355 88.1065 134.198 88.1823 134.185C89.5172 133.983 90.3862 133.819 90.7896 133.694C90.8017 133.694 90.8331 133.687 90.884 133.674C90.9341 133.674 90.9658 133.728 90.9785 133.835C90.9906 133.942 90.9906 134.021 90.9785 134.072L90.8648 135.016C91.0916 134.676 91.4036 134.358 91.8004 134.062C92.1969 133.766 92.5903 133.618 92.981 133.618Z" fill="#355E93"/>
<path d="M96.3413 134.811H95.2455C95.1826 134.811 95.1509 134.678 95.1509 134.414C95.1509 134.338 95.1572 134.294 95.1699 134.282C95.5351 134.118 95.9319 133.784 96.36 133.28C96.4985 133.117 96.6342 132.931 96.7664 132.723C96.8984 132.515 97.0089 132.336 97.0972 132.184C97.1851 132.033 97.2295 131.952 97.2295 131.939C97.6072 131.939 97.7961 131.971 97.7961 132.033V133.904C98.1237 133.904 98.621 133.907 99.2885 133.913C99.9561 133.92 100.309 133.922 100.346 133.922C100.447 133.922 100.498 133.979 100.498 134.093C100.498 134.319 100.435 134.559 100.309 134.811H97.796V139.44C97.796 139.943 97.9252 140.346 98.1832 140.649C98.4414 140.951 98.7785 141.102 99.194 141.102C99.5719 141.102 99.9622 140.982 100.365 140.743C100.403 140.718 100.46 140.771 100.536 140.904C100.611 141.036 100.642 141.109 100.63 141.121C100.441 141.322 100.151 141.521 99.761 141.716C99.3703 141.911 98.9674 142.009 98.5519 142.009C97.9217 142.009 97.396 141.801 96.9741 141.386C96.5518 140.97 96.3412 140.378 96.3412 139.609L96.3413 134.811Z" fill="#355E93"/>
<path d="M106.943 133.599C107.446 133.599 107.865 133.735 108.199 134.005C108.533 134.276 108.763 134.588 108.889 134.94C109.833 134.046 110.809 133.599 111.817 133.599C113.404 133.599 114.198 134.808 114.198 137.226V139.323C114.198 140.054 114.248 140.615 114.349 141.005C114.374 141.094 114.538 141.179 114.84 141.26C115.142 141.342 115.356 141.383 115.482 141.383C115.52 141.383 115.545 141.459 115.558 141.61C115.57 141.761 115.564 141.868 115.539 141.931C114.279 141.868 113.605 141.837 113.518 141.837C113.442 141.837 112.755 141.868 111.458 141.931C111.408 141.881 111.383 141.777 111.383 141.619C111.383 141.462 111.408 141.383 111.458 141.383C111.609 141.383 111.833 141.342 112.129 141.26C112.425 141.179 112.585 141.094 112.611 141.005C112.699 140.64 112.743 140.237 112.743 139.796V137.661C112.743 135.721 112.107 134.751 110.835 134.751C110.369 134.751 109.966 134.887 109.626 135.157C109.285 135.428 109.116 135.652 109.116 135.829L109.134 135.904V135.999C109.184 136.314 109.21 136.767 109.21 137.359V139.494C109.21 140.111 109.26 140.615 109.361 141.005C109.386 141.094 109.55 141.179 109.852 141.26C110.155 141.342 110.369 141.383 110.495 141.383C110.532 141.383 110.558 141.459 110.57 141.61C110.582 141.761 110.576 141.868 110.551 141.931C109.292 141.868 108.618 141.837 108.53 141.837C108.454 141.837 107.768 141.868 106.47 141.931C106.42 141.881 106.395 141.777 106.395 141.619C106.395 141.462 106.42 141.383 106.47 141.383C106.621 141.383 106.845 141.342 107.141 141.26C107.437 141.179 107.597 141.094 107.623 141.005C107.711 140.64 107.755 140.199 107.755 139.683V137.756C107.755 135.753 107.15 134.752 105.941 134.752C105.563 134.752 105.182 134.893 104.798 135.177C104.414 135.46 104.222 135.734 104.222 135.999V139.324C104.222 140.054 104.272 140.615 104.373 141.005C104.399 141.094 104.562 141.179 104.864 141.261C105.167 141.342 105.381 141.383 105.507 141.383C105.545 141.383 105.57 141.459 105.582 141.61C105.595 141.761 105.589 141.868 105.563 141.931C104.304 141.868 103.63 141.837 103.542 141.837C103.467 141.837 102.78 141.868 101.483 141.931C101.432 141.881 101.407 141.777 101.407 141.619C101.407 141.462 101.432 141.383 101.483 141.383C101.634 141.383 101.857 141.342 102.153 141.261C102.449 141.179 102.61 141.094 102.635 141.005C102.723 140.64 102.767 140.199 102.767 139.683V136.112C102.767 135.62 102.679 135.281 102.503 135.092C102.377 134.94 102.222 134.836 102.04 134.78C101.857 134.724 101.706 134.694 101.587 134.694C101.467 134.694 101.407 134.682 101.407 134.657C101.407 134.355 101.445 134.198 101.52 134.185C102.856 133.984 103.724 133.819 104.128 133.694C104.14 133.694 104.171 133.687 104.222 133.674C104.272 133.674 104.304 133.729 104.316 133.835C104.329 133.942 104.329 134.021 104.316 134.072C104.266 134.424 104.241 134.676 104.241 134.827C104.241 134.878 104.253 134.903 104.279 134.903C104.291 134.903 104.31 134.89 104.336 134.865C104.625 134.563 105.019 134.276 105.516 134.005C106.014 133.735 106.489 133.599 106.943 133.599Z" fill="#355E93"/>
<path d="M119.391 134.337C118.736 134.337 118.236 134.617 117.889 135.178C117.542 135.738 117.37 136.201 117.37 136.566C117.37 136.655 117.407 136.699 117.483 136.699H121.167C121.23 136.699 121.261 136.636 121.261 136.51C121.261 136.106 121.091 135.643 120.752 135.121C120.411 134.598 119.958 134.337 119.391 134.337ZM119.58 133.637C120.159 133.637 120.669 133.748 121.111 133.968C121.551 134.189 121.888 134.472 122.121 134.818C122.354 135.165 122.524 135.518 122.631 135.877C122.738 136.236 122.792 136.592 122.792 136.944C122.792 137.196 122.754 137.35 122.678 137.407C122.603 137.464 122.458 137.492 122.244 137.492H117.483C117.382 137.492 117.332 137.523 117.332 137.586C117.332 138.38 117.571 139.111 118.05 139.778C118.528 140.446 119.221 140.779 120.128 140.779C120.392 140.779 120.644 140.754 120.883 140.704C121.123 140.654 121.328 140.594 121.497 140.524C121.667 140.455 121.812 140.386 121.932 140.316C122.052 140.247 122.156 140.181 122.244 140.118L122.376 140.024C122.452 140.024 122.49 140.106 122.49 140.269C122.49 140.37 122.452 140.484 122.376 140.609C122.124 140.962 121.753 141.28 121.261 141.563C120.77 141.847 120.235 141.988 119.656 141.988C118.61 141.988 117.712 141.595 116.963 140.808C116.213 140.021 115.839 139.06 115.839 137.926C115.839 136.604 116.195 135.559 116.907 134.79C117.618 134.022 118.509 133.637 119.58 133.637Z" fill="#355E93"/>
<path d="M128.926 133.599C129.807 133.599 130.425 133.914 130.777 134.544C131.13 135.174 131.306 136.194 131.306 137.604V139.323C131.306 140.054 131.356 140.615 131.457 141.005C131.483 141.094 131.646 141.179 131.948 141.26C132.251 141.342 132.465 141.383 132.591 141.383C132.629 141.383 132.654 141.459 132.667 141.61C132.679 141.761 132.673 141.868 132.648 141.931C131.388 141.868 130.714 141.837 130.626 141.837C130.601 141.837 129.939 141.868 128.642 141.931C128.592 141.881 128.567 141.777 128.567 141.619C128.567 141.462 128.592 141.383 128.642 141.383C128.793 141.383 129.005 141.342 129.275 141.26C129.546 141.179 129.694 141.094 129.719 141.005C129.807 140.64 129.852 140.199 129.852 139.683V137.793C129.852 136.622 129.7 135.823 129.398 135.394C129.096 134.966 128.604 134.751 127.924 134.751C127.521 134.751 127.134 134.9 126.763 135.195C126.391 135.492 126.205 135.759 126.205 135.999V139.323C126.205 140.054 126.255 140.615 126.356 141.005C126.381 141.094 126.545 141.179 126.847 141.26C127.15 141.342 127.364 141.383 127.49 141.383C127.528 141.383 127.553 141.459 127.565 141.61C127.578 141.761 127.572 141.868 127.547 141.931C126.287 141.868 125.613 141.837 125.525 141.837C125.449 141.837 124.763 141.868 123.466 141.931C123.416 141.881 123.39 141.777 123.39 141.619C123.39 141.462 123.416 141.383 123.466 141.383C123.617 141.383 123.84 141.342 124.136 141.26C124.433 141.179 124.593 141.094 124.618 141.005C124.706 140.64 124.751 140.199 124.751 139.683V136.112C124.751 135.62 124.662 135.281 124.486 135.092C124.36 134.94 124.205 134.836 124.023 134.78C123.84 134.723 123.689 134.694 123.569 134.694C123.45 134.694 123.39 134.682 123.39 134.657C123.39 134.355 123.428 134.198 123.503 134.185C124.838 133.983 125.708 133.819 126.111 133.694C126.123 133.694 126.155 133.687 126.205 133.674C126.255 133.674 126.287 133.728 126.3 133.835C126.312 133.942 126.312 134.021 126.3 134.072C126.249 134.424 126.224 134.676 126.224 134.827C126.224 134.878 126.237 134.903 126.262 134.903C126.274 134.903 126.293 134.89 126.318 134.865C126.608 134.563 127.002 134.276 127.499 134.005C127.997 133.735 128.472 133.599 128.926 133.599Z" fill="#355E93"/>
<path d="M133.888 134.811H132.792C132.729 134.811 132.698 134.678 132.698 134.414C132.698 134.338 132.704 134.294 132.717 134.282C133.083 134.118 133.479 133.784 133.907 133.28C134.046 133.117 134.181 132.931 134.314 132.723C134.446 132.515 134.556 132.336 134.644 132.184C134.732 132.033 134.776 131.952 134.776 131.939C135.154 131.939 135.343 131.971 135.343 132.033V133.904C135.671 133.904 136.168 133.907 136.836 133.913C137.503 133.92 137.856 133.922 137.894 133.922C137.995 133.922 138.045 133.979 138.045 134.093C138.045 134.319 137.982 134.559 137.856 134.811H135.343V139.44C135.343 139.943 135.472 140.346 135.731 140.649C135.989 140.951 136.326 141.102 136.741 141.102C137.119 141.102 137.509 140.982 137.913 140.743C137.95 140.718 138.007 140.771 138.083 140.904C138.158 141.036 138.19 141.109 138.177 141.121C137.988 141.322 137.698 141.521 137.308 141.716C136.918 141.911 136.515 142.009 136.099 142.009C135.469 142.009 134.943 141.801 134.521 141.386C134.099 140.97 133.888 140.378 133.888 139.609V134.811Z" fill="#355E93"/>
<path d="M146.397 134.432C145.767 134.432 145.194 134.927 144.678 135.915C144.161 136.904 143.903 137.896 143.903 138.891C143.903 139.622 144.02 140.188 144.253 140.591C144.486 140.995 144.779 141.196 145.131 141.196C145.761 141.196 146.318 140.702 146.803 139.713C147.288 138.724 147.53 137.726 147.53 136.718C147.53 135.975 147.43 135.408 147.228 135.018C147.026 134.627 146.75 134.432 146.397 134.432ZM146.624 133.657C147.367 133.657 147.943 133.916 148.353 134.432C148.762 134.949 148.966 135.66 148.966 136.567C148.966 137.864 148.51 139.09 147.597 140.242C146.683 141.394 145.748 141.971 144.791 141.971C144.035 141.971 143.459 141.725 143.062 141.234C142.666 140.743 142.468 140.043 142.468 139.137C142.468 137.827 142.921 136.586 143.828 135.414C144.734 134.243 145.667 133.657 146.624 133.657Z" fill="#355E93"/>
<path d="M156.032 128.667C156.838 128.667 157.355 128.881 157.581 129.309C157.581 130.128 157.355 130.537 156.901 130.537C156.725 130.537 156.557 130.443 156.401 130.254C156.243 130.065 156.079 129.874 155.909 129.678C155.739 129.483 155.553 129.385 155.352 129.385C154.948 129.385 154.52 129.798 154.067 130.623C153.614 131.448 153.261 132.597 153.009 134.071V134.109C153.009 134.159 153.028 134.184 153.065 134.184H155.239C155.301 134.184 155.333 134.26 155.333 134.411C155.333 134.612 155.263 134.827 155.125 135.053H152.915C152.851 135.053 152.813 135.104 152.801 135.204L151.762 140.853C151.46 142.604 150.928 143.939 150.166 144.858C149.403 145.778 148.575 146.238 147.681 146.238C147.241 146.238 146.894 146.159 146.642 146.002C146.39 145.844 146.226 145.665 146.151 145.463C146.138 145.174 146.208 144.915 146.358 144.689C146.51 144.462 146.699 144.348 146.926 144.348C147.039 144.348 147.146 144.408 147.247 144.528C147.347 144.648 147.436 144.78 147.511 144.925C147.587 145.069 147.697 145.202 147.842 145.322C147.987 145.441 148.147 145.501 148.323 145.501C148.562 145.501 148.802 145.353 149.042 145.057C149.281 144.761 149.485 144.389 149.656 143.942C149.826 143.495 149.97 143.07 150.09 142.667C150.21 142.264 150.295 141.905 150.345 141.59L151.479 135.185V135.148C151.479 135.085 151.46 135.053 151.422 135.053H150.194C150.169 135.053 150.156 135.034 150.156 134.996C150.156 134.883 150.257 134.719 150.458 134.505C150.659 134.291 150.861 134.184 151.063 134.184H151.611C151.661 134.184 151.699 134.127 151.724 134.014C151.976 132.465 152.518 131.186 153.349 130.179C154.181 129.171 155.074 128.667 156.032 128.667Z" fill="#355E93"/>
<path d="M163.437 131.768V139.249C163.437 139.778 163.531 140.257 163.72 140.685C163.771 140.811 164.108 140.906 164.731 140.968C165.355 141.032 165.837 141.063 166.177 141.063C169.074 141.063 170.522 139.192 170.522 135.452C170.522 134.016 170.141 132.794 169.379 131.786C168.617 130.779 167.505 130.275 166.044 130.275H165.95C164.589 130.275 163.834 130.375 163.683 130.577C163.519 130.804 163.437 131.2 163.437 131.768ZM162.606 129.481C163.084 129.481 163.692 129.475 164.429 129.462C165.166 129.45 165.654 129.443 165.893 129.443C167.946 129.443 169.546 130.048 170.692 131.257C171.838 132.466 172.412 133.89 172.412 135.527C172.412 137.354 171.832 138.878 170.673 140.099C169.515 141.321 167.915 141.932 165.874 141.932C165.723 141.932 165.272 141.919 164.523 141.894C163.774 141.869 163.147 141.863 162.643 141.876L160.358 141.932C160.319 141.894 160.301 141.8 160.301 141.649C160.301 141.472 160.319 141.384 160.358 141.384C160.521 141.384 160.763 141.34 161.085 141.252C161.406 141.164 161.598 141.063 161.661 140.949C161.749 140.798 161.793 140.207 161.793 139.173V132.032C161.793 131.289 161.749 130.747 161.661 130.407C161.623 130.306 161.437 130.212 161.104 130.124C160.77 130.035 160.521 129.992 160.358 129.992C160.307 129.992 160.282 129.916 160.282 129.765C160.282 129.601 160.307 129.494 160.358 129.443C161.012 129.469 161.762 129.481 162.606 129.481Z" fill="#355E93"/>
<path d="M177.051 134.337C176.396 134.337 175.895 134.617 175.549 135.178C175.203 135.738 175.029 136.201 175.029 136.566C175.029 136.655 175.068 136.699 175.143 136.699H178.827C178.89 136.699 178.922 136.636 178.922 136.51C178.922 136.106 178.751 135.643 178.411 135.121C178.071 134.598 177.618 134.337 177.051 134.337ZM177.24 133.637C177.819 133.637 178.329 133.748 178.77 133.968C179.211 134.189 179.548 134.472 179.781 134.818C180.014 135.165 180.184 135.518 180.291 135.877C180.398 136.236 180.452 136.592 180.452 136.944C180.452 137.196 180.414 137.35 180.338 137.407C180.263 137.464 180.118 137.492 179.904 137.492H175.143C175.042 137.492 174.992 137.523 174.992 137.586C174.992 138.38 175.231 139.111 175.709 139.778C176.188 140.446 176.881 140.779 177.788 140.779C178.053 140.779 178.304 140.754 178.543 140.704C178.783 140.654 178.988 140.594 179.158 140.524C179.328 140.455 179.472 140.386 179.592 140.316C179.712 140.247 179.816 140.181 179.904 140.118L180.036 140.024C180.112 140.024 180.15 140.106 180.15 140.269C180.15 140.37 180.112 140.484 180.036 140.609C179.784 140.962 179.413 141.28 178.922 141.563C178.43 141.847 177.895 141.988 177.316 141.988C176.27 141.988 175.373 141.595 174.623 140.808C173.874 140.021 173.5 139.06 173.5 137.926C173.5 136.604 173.855 135.559 174.567 134.79C175.278 134.022 176.169 133.637 177.24 133.637Z" fill="#355E93"/>
<path d="M186.093 128.743C187 128.743 187.598 128.989 187.888 129.48C187.888 130.274 187.661 130.671 187.208 130.671C187.044 130.671 186.887 130.573 186.735 130.378C186.584 130.183 186.411 129.984 186.216 129.782C186.02 129.581 185.784 129.48 185.507 129.48C184.953 129.48 184.525 129.821 184.223 130.501C183.92 131.181 183.769 131.981 183.769 132.9V133.863C183.769 133.927 183.8 133.958 183.863 133.958H185.961C186.024 133.958 186.055 134.002 186.055 134.09C186.055 134.292 185.98 134.544 185.828 134.846H183.882C183.807 134.846 183.769 134.884 183.769 134.959V139.323C183.769 140.004 183.826 140.564 183.939 141.005C183.964 141.094 184.118 141.179 184.402 141.26C184.685 141.342 184.884 141.383 184.997 141.383C185.035 141.383 185.06 141.459 185.073 141.61C185.085 141.761 185.079 141.868 185.054 141.931C183.794 141.868 183.12 141.837 183.032 141.837C182.994 141.837 182.333 141.868 181.048 141.931C181.023 141.906 181.004 141.846 180.992 141.751C180.979 141.657 180.979 141.572 180.992 141.496C181.004 141.421 181.023 141.383 181.048 141.383C181.2 141.383 181.414 141.342 181.691 141.26C181.968 141.179 182.119 141.094 182.145 141.005C182.27 140.514 182.333 139.954 182.333 139.323V134.978C182.333 134.89 182.301 134.846 182.239 134.846H181.237C181.2 134.846 181.181 134.808 181.181 134.733C181.181 134.619 181.281 134.462 181.483 134.261C181.684 134.059 181.899 133.958 182.126 133.958H182.239C182.301 133.958 182.333 133.92 182.333 133.845V133.599C182.333 132.277 182.727 131.137 183.514 130.179C184.301 129.222 185.161 128.743 186.093 128.743Z" fill="#355E93"/>
<path d="M190.031 134.337C189.376 134.337 188.875 134.617 188.528 135.178C188.182 135.738 188.009 136.201 188.009 136.566C188.009 136.655 188.047 136.699 188.123 136.699H191.806C191.869 136.699 191.901 136.636 191.901 136.51C191.901 136.106 191.731 135.643 191.391 135.121C191.051 134.598 190.597 134.337 190.031 134.337ZM190.22 133.637C190.799 133.637 191.309 133.748 191.75 133.968C192.191 134.189 192.527 134.472 192.761 134.818C192.994 135.165 193.164 135.518 193.271 135.877C193.378 136.236 193.431 136.592 193.431 136.944C193.431 137.196 193.394 137.35 193.318 137.407C193.242 137.464 193.097 137.492 192.884 137.492H188.123C188.021 137.492 187.971 137.523 187.971 137.586C187.971 138.38 188.21 139.111 188.689 139.778C189.168 140.446 189.861 140.779 190.767 140.779C191.032 140.779 191.284 140.754 191.523 140.704C191.762 140.654 191.967 140.594 192.137 140.524C192.308 140.455 192.452 140.386 192.572 140.316C192.691 140.247 192.795 140.181 192.884 140.118L193.016 140.024C193.092 140.024 193.129 140.106 193.129 140.269C193.129 140.37 193.092 140.484 193.016 140.609C192.764 140.962 192.393 141.28 191.901 141.563C191.41 141.847 190.875 141.988 190.295 141.988C189.25 141.988 188.352 141.595 187.603 140.808C186.853 140.021 186.479 139.06 186.479 137.926C186.479 136.604 186.835 135.559 187.547 134.79C188.257 134.022 189.149 133.637 190.22 133.637Z" fill="#355E93"/>
<path d="M199.566 133.599C200.447 133.599 201.064 133.914 201.417 134.544C201.77 135.174 201.947 136.194 201.947 137.604V139.323C201.947 140.054 201.997 140.615 202.097 141.005C202.123 141.094 202.286 141.179 202.589 141.26C202.891 141.342 203.105 141.383 203.231 141.383C203.269 141.383 203.294 141.459 203.307 141.61C203.319 141.761 203.313 141.868 203.288 141.931C202.028 141.868 201.354 141.837 201.266 141.837C201.241 141.837 200.579 141.868 199.282 141.931C199.232 141.881 199.207 141.777 199.207 141.619C199.207 141.462 199.232 141.383 199.282 141.383C199.434 141.383 199.644 141.342 199.915 141.26C200.186 141.179 200.334 141.094 200.359 141.005C200.447 140.64 200.491 140.199 200.491 139.683V137.793C200.491 136.622 200.34 135.823 200.038 135.394C199.736 134.966 199.245 134.751 198.564 134.751C198.161 134.751 197.774 134.9 197.402 135.195C197.031 135.492 196.845 135.759 196.845 135.999V139.323C196.845 140.054 196.895 140.615 196.996 141.005C197.022 141.094 197.185 141.179 197.488 141.26C197.79 141.342 198.004 141.383 198.13 141.383C198.168 141.383 198.193 141.459 198.206 141.61C198.218 141.761 198.212 141.868 198.187 141.931C196.927 141.868 196.253 141.837 196.165 141.837C196.089 141.837 195.403 141.868 194.105 141.931C194.055 141.881 194.03 141.777 194.03 141.619C194.03 141.462 194.055 141.383 194.105 141.383C194.257 141.383 194.48 141.342 194.776 141.26C195.072 141.179 195.233 141.094 195.258 141.005C195.346 140.64 195.391 140.199 195.391 139.683V136.112C195.391 135.62 195.302 135.281 195.126 135.092C195 134.94 194.845 134.836 194.663 134.78C194.48 134.723 194.329 134.694 194.21 134.694C194.089 134.694 194.03 134.682 194.03 134.657C194.03 134.355 194.068 134.198 194.144 134.185C195.479 133.983 196.347 133.819 196.75 133.694C196.763 133.694 196.795 133.687 196.845 133.674C196.896 133.674 196.927 133.728 196.94 133.835C196.952 133.942 196.952 134.021 196.94 134.072C196.889 134.424 196.864 134.676 196.864 134.827C196.864 134.878 196.876 134.903 196.902 134.903C196.915 134.903 196.933 134.89 196.958 134.865C197.248 134.563 197.641 134.276 198.139 134.005C198.637 133.735 199.112 133.599 199.566 133.599Z" fill="#355E93"/>
<path d="M207.002 133.618C207.278 133.618 207.628 133.653 208.05 133.721C208.472 133.791 208.765 133.839 208.928 133.863C209.054 134.443 209.13 135.085 209.155 135.791C209.155 135.854 209.073 135.885 208.91 135.885C208.733 135.885 208.639 135.841 208.626 135.753C208.563 135.4 208.384 135.067 208.088 134.752C207.792 134.437 207.455 134.279 207.077 134.279C206.17 134.279 205.716 134.651 205.716 135.394C205.716 135.583 205.742 135.75 205.792 135.895C205.842 136.04 205.94 136.178 206.085 136.31C206.23 136.442 206.34 136.537 206.416 136.594C206.491 136.651 206.658 136.752 206.916 136.896C207.174 137.041 207.335 137.132 207.398 137.17C207.448 137.195 207.596 137.281 207.842 137.425C208.088 137.57 208.261 137.674 208.362 137.736C208.463 137.8 208.61 137.907 208.806 138.058C209.001 138.209 209.142 138.344 209.231 138.464C209.319 138.584 209.404 138.736 209.486 138.918C209.568 139.1 209.609 139.286 209.609 139.475C209.609 140.218 209.319 140.838 208.74 141.336C208.16 141.834 207.48 142.082 206.699 142.082C206.434 142.082 206.192 142.067 205.972 142.035C205.751 142.003 205.49 141.95 205.187 141.875C204.885 141.798 204.652 141.748 204.489 141.723C204.413 141.522 204.34 141.207 204.271 140.778C204.202 140.351 204.167 140.01 204.167 139.758C204.268 139.683 204.344 139.645 204.394 139.645C204.583 139.645 204.683 139.683 204.696 139.758C204.772 140.136 205.008 140.504 205.405 140.864C205.802 141.223 206.233 141.402 206.699 141.402C207.102 141.402 207.433 141.291 207.691 141.071C207.949 140.851 208.078 140.533 208.078 140.117C208.078 139.903 208.037 139.705 207.956 139.522C207.874 139.34 207.741 139.176 207.559 139.031C207.376 138.886 207.206 138.766 207.049 138.672C206.891 138.577 206.667 138.455 206.378 138.304C206.088 138.152 205.874 138.033 205.736 137.945C204.753 137.378 204.262 136.704 204.262 135.923C204.262 135.243 204.536 134.689 205.084 134.26C205.632 133.832 206.271 133.618 207.002 133.618Z" fill="#355E93"/>
<path d="M214.155 134.337C213.5 134.337 212.999 134.617 212.653 135.178C212.306 135.738 212.133 136.201 212.133 136.566C212.133 136.655 212.171 136.699 212.246 136.699H215.931C215.993 136.699 216.025 136.636 216.025 136.51C216.025 136.106 215.855 135.643 215.515 135.121C215.175 134.598 214.721 134.337 214.155 134.337ZM214.344 133.637C214.923 133.637 215.433 133.748 215.874 133.968C216.315 134.189 216.652 134.472 216.885 134.818C217.118 135.165 217.288 135.518 217.395 135.877C217.502 136.236 217.555 136.592 217.555 136.944C217.555 137.196 217.518 137.35 217.442 137.407C217.367 137.464 217.221 137.492 217.008 137.492H212.246C212.146 137.492 212.096 137.523 212.096 137.586C212.096 138.38 212.335 139.111 212.813 139.778C213.292 140.446 213.985 140.779 214.892 140.779C215.156 140.779 215.408 140.754 215.647 140.704C215.886 140.654 216.091 140.594 216.261 140.524C216.431 140.455 216.576 140.386 216.696 140.316C216.816 140.247 216.919 140.181 217.008 140.118L217.14 140.024C217.215 140.024 217.253 140.106 217.253 140.269C217.253 140.37 217.215 140.484 217.14 140.609C216.888 140.962 216.516 141.28 216.025 141.563C215.534 141.847 214.998 141.988 214.419 141.988C213.374 141.988 212.476 141.595 211.727 140.808C210.977 140.021 210.603 139.06 210.603 137.926C210.603 136.604 210.958 135.559 211.67 134.79C212.382 134.022 213.273 133.637 214.344 133.637Z" fill="#355E93"/>
</svg>
