<svg width="32" height="32" viewBox="0 0 32 32" fill="none" xmlns="http://www.w3.org/2000/svg">
<path d="M16.3254 5.33325C17.0374 5.33725 18.8187 5.35459 20.7121 5.43059L21.3841 5.45992C23.2894 5.54925 25.1934 5.70392 26.1387 5.96659C27.3987 6.32125 28.3881 7.35325 28.7227 8.66259C29.2561 10.7426 29.3227 14.7986 29.3307 15.7813L29.3321 15.9839V16.2159C29.3228 17.1986 29.2561 21.2559 28.7227 23.3346C28.3841 24.6479 27.3934 25.6813 26.1387 26.0306C25.1934 26.2933 23.2894 26.4479 21.3841 26.5373L20.7121 26.5679C18.8187 26.6426 17.0374 26.6613 16.3254 26.6639L16.0121 26.6653H15.6721C14.1654 26.6559 7.86408 26.5879 5.85875 26.0306C4.60008 25.6759 3.60941 24.6439 3.27475 23.3346C2.74141 21.2546 2.67475 17.1986 2.66675 16.2159V15.7813C2.67475 14.7986 2.74141 10.7413 3.27475 8.66259C3.61341 7.34925 4.60408 6.31592 5.86008 5.96792C7.86408 5.40925 14.1667 5.34125 15.6734 5.33325H16.3254ZM13.3321 11.3333V20.6666L21.3321 15.9999L13.3321 11.3333Z" fill="white"/>
</svg>
